<svg width="472" height="60" viewBox="0 0 472 60" fill="none" xmlns="http://www.w3.org/2000/svg">
<g clip-path="url(#clip0_60_1058)">
<path d="M227.733 35.2342L227.223 23.7178L224.109 29.9754C223.678 30.8436 222.772 31.2884 221.923 31.2884C220.978 31.2884 220.114 30.7836 219.661 29.8625L216.586 23.5907L216.148 35.2307H211.346L212.121 16.9625C212.184 15.4872 214.049 14.7495 215.238 14.7601C216.427 14.7707 217.598 15.1589 218.101 16.2425L221.919 24.4836L225.755 16.1013C226.356 15.1342 227.407 14.7389 228.547 14.7672C230.079 14.7495 231.462 15.5719 231.788 17.1142L232.482 35.2166L227.733 35.2307V35.2342Z" fill="white"/>
<path d="M199.396 35.4001C198.111 35.4883 196.851 35.1142 196.193 34.0306L189.626 23.1848L189.59 35.2165L184.707 35.2095V17.4883C184.711 15.8824 185.942 14.8377 187.506 14.7636C188.553 14.7283 189.891 14.9083 190.489 15.8965L197.223 27L197.28 14.9506L202.159 14.9683V32.6259C202.103 34.2036 201.034 35.2836 199.392 35.4001H199.396Z" fill="white"/>
<path d="M347.46 35.3859C346.137 35.5235 344.817 35.1176 344.138 33.9988L337.581 23.1812L337.545 35.2165L332.662 35.2094V17.527C332.701 15.8823 333.961 14.7565 335.585 14.7706C336.696 14.6965 337.726 15.0176 338.444 15.8612L345.171 26.9823L345.228 14.9506L350.114 14.9612V32.6329C350.079 34.1612 349.035 35.2341 347.457 35.3823L347.46 35.3859Z" fill="white"/>
<path d="M419.301 35.3896C417.96 35.5201 416.679 35.1037 415.992 33.9743L409.46 23.206L409.425 35.206L404.527 35.2166V17.6648C404.527 15.9496 405.706 14.7707 407.443 14.7637C408.409 14.7637 409.722 14.9154 410.288 15.8507L417.036 26.9931L417.093 14.9578L421.994 14.9648V32.6366C421.941 34.1719 420.876 35.2378 419.297 35.3896H419.301Z" fill="white"/>
<path d="M114.353 27.3141C115.298 29.6824 114.544 32.1565 112.587 33.653C111.289 34.6447 109.661 35.1953 107.98 35.1988L100.103 35.2271C99.1126 35.2271 98.0227 34.4188 98.0227 33.3353L98.0156 16.9624C98.0156 15.8471 98.9923 14.9577 100.089 14.9612L107.534 14.9788C110.655 14.9859 113.522 16.8283 113.886 20.1177C114.091 21.9883 113.362 23.6506 111.721 24.7659C112.846 25.3235 113.865 26.0788 114.357 27.3141H114.353ZM107.028 23.04C108.249 23.0188 108.982 21.8824 108.929 20.9224C108.876 19.9624 108.062 18.9635 106.926 18.953L102.902 18.9212L102.909 23.1071L107.028 23.0365V23.04ZM107.761 31.2035C109.134 31.1859 109.827 29.9683 109.771 28.8918C109.714 27.8153 108.826 26.9083 107.626 26.8977L102.902 26.8659L102.909 31.2706L107.761 31.2071V31.2035Z" fill="white"/>
<path d="M265.577 35.2446L261.886 28.9975L258.447 28.9764V35.227H253.557L253.564 16.9693C253.564 15.7446 254.664 14.9434 255.779 14.9505L263.228 15.0105C266.285 15.0352 269.006 17.1246 269.848 19.9799C270.789 23.174 269.586 26.4387 266.653 28.0446L270.857 35.2093L265.577 35.2411V35.2446ZM262.396 25.0164C264.208 24.9917 265.269 23.5234 265.213 21.9634C265.16 20.5058 263.971 19.1893 262.336 19.1752L258.443 19.1399V25.0693L262.392 25.0164H262.396Z" fill="white"/>
<path d="M147.332 35.2587L143.606 28.9834H140.202L140.191 35.2234L135.305 35.2305L135.312 16.9552C135.312 15.7729 136.324 14.9505 137.417 14.9576L144.862 15.0034C148.157 15.0246 151.016 17.3258 151.72 20.4634C152.424 23.6011 151.136 26.5552 148.397 28.0587L152.591 35.2023L147.339 35.2587H147.332ZM144.204 25.0093C145.97 24.9952 146.989 23.474 146.94 21.9811C146.89 20.4882 145.765 19.2034 144.148 19.1858L140.177 19.147L140.167 25.0376L144.201 25.0093H144.204Z" fill="white"/>
<path d="M307.924 35.2165L303.033 35.2306V27.2894H295.425V35.2341L290.535 35.2235V14.9682L295.425 14.9541V22.8776H303.033V14.9612L307.924 14.9541V35.2165Z" fill="white"/>
<path d="M240.367 27.1977L240.329 30.8365L250.64 30.8435V35.2129L237.434 35.2024C236.376 35.2024 235.452 34.2353 235.452 33.1694L235.445 17.1247C235.445 15.9741 236.256 15.0741 237.392 14.9612H250.64L250.647 19.3482H240.346L240.343 22.9659H248.991L248.995 27.2012H240.371L240.367 27.1977Z" fill="white"/>
<path d="M430.1 27.1975L430.079 30.8363L440.366 30.8434L440.373 35.2163L427.138 35.1987C426.041 35.1987 425.199 34.1469 425.199 33.1375V17.1422C425.196 16.0234 425.946 15.1305 427.061 14.9575H440.362L440.373 19.341L430.09 19.3481V22.9587H438.713V27.194H430.1V27.1975Z" fill="white"/>
<path d="M122.11 27.1976L122.078 30.84H132.39V35.2094L119.559 35.22C118.37 35.22 117.198 34.507 117.198 33.1694L117.191 17.1212C117.191 15.9882 118.023 14.9647 119.205 14.9612L132.393 14.9541V19.3412L122.075 19.3482V22.9588H130.702V27.1976L122.106 27.1941L122.11 27.1976Z" fill="white"/>
<path d="M176.356 32.1037L168.181 32.0895L167.085 35.2307L161.939 35.2237L168.981 16.6766C169.505 15.2931 170.906 14.7566 172.265 14.7566C173.854 14.7566 175.075 15.4978 175.63 16.966L182.545 35.2131L177.41 35.2378L176.352 32.1001L176.356 32.1037ZM174.915 27.9813L172.237 20.3189L169.565 27.9989L174.915 27.9813Z" fill="white"/>
<path d="M324.304 32.0965H316.126L315.04 35.2341L309.898 35.2271L316.876 16.8353C317.425 15.3918 318.717 14.7565 320.196 14.7529C321.675 14.7494 323.023 15.4588 323.575 16.9447L330.504 35.2094L325.373 35.2412L324.308 32.0965H324.304ZM322.878 27.9918L320.206 20.2871L317.535 27.9918H322.881H322.878Z" fill="white"/>
<path d="M455.755 34.2635C451.834 36.3777 446.671 35.2694 442.645 33.3035L444.435 29.3082C446.887 30.4765 450.812 31.7612 453.027 30.6706C453.427 30.4729 453.805 29.8941 453.83 29.5518C453.862 29.1106 453.547 28.38 453.105 28.2141L449.863 27.0035C446.848 25.8777 443.317 25.1365 443.083 21.2118C442.97 19.2706 443.717 17.5659 445.284 16.3906C448.908 13.68 454.7 14.6647 458.83 16.7612L457.181 20.6259C455.362 19.9059 453.572 19.2988 451.59 19.1047C449.778 18.9282 447.995 19.3906 448.059 20.7247C448.08 21.1941 448.515 21.8365 449.035 22.0094L453.186 23.393C454.725 23.9082 456.487 24.5682 457.581 25.8282C459.923 28.5247 458.805 32.6082 455.755 34.253V34.2635Z" fill="white"/>
<path d="M85.0882 33.5859C81.3974 36.5894 75.1943 35.4353 71.0117 33.2859L72.7952 29.2976C74.7662 30.2753 76.7159 30.84 78.8497 31.0906C80.5942 31.1718 82.2396 30.7024 82.1865 29.3824C82.1689 28.9377 81.7725 28.2812 81.2948 28.1082L78.4286 27.0741C75.1235 25.8812 71.5708 25.1082 71.4364 21.0035C71.3762 19.1012 72.1688 17.4777 73.6975 16.3624C77.3599 13.6835 83.1137 14.6824 87.183 16.7718L85.534 20.6471C82.6855 19.2565 76.5673 18.0424 76.4116 20.5694C76.3833 21.0529 76.7336 21.7306 77.2325 21.9071L80.2545 22.9694C83.4604 24.0953 86.8681 24.9776 87.1512 28.7576C87.2927 30.6741 86.585 32.3647 85.0846 33.5824L85.0882 33.5859Z" fill="white"/>
<path d="M281.89 30.7517C283.486 30.7023 284.87 30.247 286.161 29.6929L288.111 33.8399C286.034 34.8211 283.808 35.4811 281.459 35.4635C277.219 35.4352 273.557 33.0141 272.209 28.9835C271.317 26.3188 271.342 23.3999 272.375 20.7882C273.858 17.0399 277.354 14.7388 281.349 14.7388C283.716 14.7388 285.91 15.3599 288.094 16.3658L286.176 20.5023C284.877 20.0011 283.621 19.5917 282.23 19.4823C279.654 19.2741 277.368 20.8623 276.767 23.3964C276.487 24.5788 276.501 25.8564 276.816 27.0211C277.435 29.2976 279.406 30.8294 281.89 30.7517Z" fill="white"/>
<path d="M363.676 35.2305L358.765 35.2234V19.3516L352.607 19.3446L352.629 14.9575H369.89V19.3481L363.676 19.3516V35.2305Z" fill="white"/>
<path d="M393.786 30.84L393.8 35.2165L380.605 35.2023C379.413 35.2023 378.588 34.1435 378.606 32.9965V14.9682L383.493 14.9541V30.8435H393.786V30.84Z" fill="white"/>
<path d="M43.426 13.5778C46.4338 14.2308 48.4331 16.9766 48.4437 19.9237C48.4508 22.2143 46.7912 23.8096 44.5194 23.8908C42.2476 23.9719 39.9936 22.8813 38.38 21.1307C36.5647 19.1613 35.8287 16.6343 35.719 13.9519C35.5916 10.8884 37.5838 8.36487 40.6836 7.98722C42.69 7.74369 44.6255 8.22369 46.4408 9.26487C50.9702 11.866 53.6914 16.9731 53.3552 22.2107C53.1004 26.1566 50.3368 29.1566 46.5222 29.866C43.6737 30.3955 40.9207 29.7743 38.3835 28.3519C34.9723 26.439 32.4529 23.439 30.7296 19.9625C29.3071 17.0966 29.0983 14.1743 29.5866 11.0755C29.898 9.09546 30.4323 7.4931 31.8619 6.04957C33.7834 4.10487 36.2391 3.03546 39.0664 3.22957C42.8032 3.49075 46.2427 4.8284 49.1903 7.20369C54.9547 11.859 58.5605 19.9378 56.9469 27.2155C56.1047 31.0025 53.7692 34.2919 50.2873 36.0602C46.3099 38.0825 39.7034 37.8778 35.7154 35.7778C31.1683 33.3849 27.6156 29.7672 24.806 25.5143C23.0544 22.8637 21.8584 20.1072 21.5859 16.9166C21.4231 14.986 21.3028 13.0978 21.4479 11.1707C21.8194 6.15545 25.1457 2.10369 29.9298 0.600161C32.3255 -0.151604 34.7352 -0.246896 37.2512 0.0672214C37.8952 0.148398 38.5321 0.536633 38.9638 1.10134C37.3573 1.22134 35.8923 1.35193 34.3708 1.84605C29.2858 3.48722 26.9079 8.37898 27.2122 13.6202C27.789 23.5907 35.673 33.1166 46.0162 32.2096C52.5237 31.6378 56.1012 25.7966 55.3368 19.3943C54.7317 14.3543 51.8053 9.94957 47.3963 7.39075C45.3651 6.21193 42.9872 5.74251 40.6588 5.83075C38.3304 5.91898 36.4939 6.95311 35.2377 8.73193C31.3948 14.1672 34.3955 21.9778 40.0856 25.059C42.9518 26.6084 46.4302 26.4213 48.8081 24.2013C50.1953 22.906 50.5527 20.9155 50.4182 19.0625C50.1422 15.3496 47.6616 12.2296 44.0488 11.4284C42.5413 11.0931 41.0304 11.4813 40.0431 12.646C38.9391 13.9484 38.656 15.6778 39.2858 17.4143C39.7459 18.6849 40.9914 19.9307 42.5979 20.3049C44.0028 20.6331 45.2448 19.7013 45.2837 18.2896C45.3191 17.0402 44.1797 16.0731 42.7607 16.1331L42.3219 17.6896C41.363 17.3119 40.9242 16.2884 41.0657 15.2084C41.2073 14.1284 42.1167 13.2919 43.4295 13.5778H43.426Z" fill="white"/>
<path d="M58.2072 30.279C58.37 34.2884 56.7175 37.9766 54.2299 41.0684C52.227 43.5566 49.7394 45.2437 46.7316 46.3096C41.169 48.279 35.3692 48.0213 29.9906 45.5613C21.6431 41.739 14.5341 34.1614 11.2786 25.6131C8.74501 18.9672 8.78039 12.3355 12.6197 6.3037C13.2142 5.37194 13.9927 4.55311 14.9269 3.99193C18.2107 2.01193 21.6997 0.497817 25.4789 -0.105713C24.8278 0.854287 24.1803 1.54958 23.4336 2.24841C20.1711 5.30488 18.968 9.66017 19.2086 14.1355C19.6332 21.9919 23.3806 29.1355 29.4315 34.1261C36.445 39.9108 45.5462 41.9966 53.3452 36.6778C54.4634 35.9155 55.3728 35.1002 56.0841 33.9213L58.2072 30.2825V30.279Z" fill="white"/>
<path d="M58.6629 38.5516C58.2772 43.6975 53.9071 49.4787 49.9156 52.2952C45.2553 55.5846 39.6112 56.8657 33.9283 56.481C24.5935 55.8457 15.2835 50.4104 9.79167 42.9599C5.58784 37.2563 2.30758 29.0152 2.42081 21.8893C2.49159 17.4352 5.55599 13.2952 8.25239 9.88574C8.22761 10.761 8.12854 11.5587 7.93038 12.3916C6.6848 17.5693 7.94099 23.7704 10.1774 28.6481C14.1229 37.2457 21.2319 44.1599 29.9226 47.8869C35.5348 50.294 41.4442 50.4175 47.1696 48.5293C50.6481 47.3822 53.4789 45.4728 55.687 42.5257L58.6594 38.5552L58.6629 38.5516Z" fill="white"/>
<path d="M40.1807 58.44C37.7851 60.3353 33.0575 60.0635 29.6782 60.1235C25.7893 60.1941 22.18 59.4247 18.6697 57.7306C13.5529 55.2635 9.23939 51.5859 5.99452 46.9341C2.74965 42.2824 0.612345 35.1635 0.934356 29.4741C1.23867 29.7741 1.50053 30.0953 1.59253 30.4765C4.57909 42.9106 13.836 53.0506 25.9733 57.1659C29.1085 58.2282 32.2048 58.6482 35.5169 58.56L40.1807 58.4365V58.44Z" fill="white"/>
<path d="M94.808 35.1812L89.8965 35.22V14.9541L94.808 14.9612V35.1812Z" fill="white"/>
<path d="M401.341 35.2023L396.43 35.2094V14.9647L401.341 14.9541V35.2023Z" fill="white"/>
<path d="M159.812 35.2128L154.922 35.2058V14.9646L159.812 14.9575V35.2128Z" fill="white"/>
<path d="M419.538 40.2353L418.664 46.1718C418.423 47.8095 416.693 48.2718 414.789 47.8836L415.09 46.373C415.752 46.44 416.314 46.3906 416.693 46.1048L417.694 39.1765C417.737 38.873 418.25 38.4883 418.544 38.4883H423.377C423.742 38.4883 424.124 38.9365 424.124 39.3283L424.117 47.8695L422.128 47.8624V40.2318H419.538V40.2353Z" fill="white"/>
<path d="M296.622 42.4906C297.783 43.4047 297.952 44.9541 297.418 46.1647C296.884 47.3753 295.628 48.0318 294.17 48.0353C292.616 48.0353 290.928 47.16 290.734 45.4906L290.688 41.6612C290.67 40.3165 291.774 39.1906 293.083 38.9682L296.261 38.4282V39.9635L293.639 40.3729C292.775 40.507 292.294 41.3365 292.315 42.2012C293.664 41.5729 295.316 41.4635 296.618 42.4906H296.622ZM293.331 43.3482C292.393 43.8459 292.347 44.94 292.673 45.5753C293.147 46.507 294.205 46.6659 294.913 46.3059C295.804 45.8506 295.999 44.8412 295.677 44.0859C295.309 43.2212 294.216 42.8788 293.331 43.3482Z" fill="white"/>
<path d="M366.458 47.8341L366.433 50.7635L364.49 50.7847L364.497 42.2224C365.368 41.3647 366.585 41.0894 367.806 41.0188C369.883 40.8953 371.472 42.3953 371.461 44.4812C371.454 45.9141 370.764 47.2765 369.349 47.7988C368.499 48.1094 367.668 48.0353 366.458 47.8341ZM368.482 46.3412C369.342 46.0235 369.55 45.2153 369.565 44.5518C369.579 43.8882 369.335 43.2 368.719 42.8259C368.071 42.4306 366.999 42.54 366.468 42.9741V46.2671C367.098 46.4435 367.884 46.56 368.482 46.3376V46.3412Z" fill="white"/>
<path d="M309.41 47.8377V50.7742L307.453 50.7601L307.464 42.2048C308.348 41.3471 309.498 41.1106 310.68 41.0224C312.782 40.8671 314.421 42.3459 314.413 44.4777C314.41 45.9424 313.706 47.3401 312.241 47.8236C311.392 48.1059 310.493 48.0177 309.406 47.8377H309.41ZM311.37 46.3659C312.202 46.1048 312.474 45.293 312.503 44.7318C312.535 44.0683 312.365 43.3554 311.827 42.9389C311.147 42.4165 309.983 42.5048 309.406 42.9848V46.2812C309.962 46.433 310.762 46.5601 311.37 46.3695V46.3659Z" fill="white"/>
<path d="M453.666 47.4002C453.422 47.7637 452.853 48.0178 452.46 48.0531C452.113 48.0849 451.25 47.7355 451.246 47.3472L451.189 41.1214L453.139 41.1108L453.206 45.1378L455.645 41.5202C455.85 41.2166 456.476 41.0014 456.841 40.9978C457.205 40.9943 457.991 41.4037 457.994 41.8166L458.03 47.9402H456.083L456.044 43.8637L453.663 47.4002H453.666Z" fill="white"/>
<path d="M428.348 47.294C428.065 47.707 427.566 48.0352 427.145 48.0493C426.767 48.0634 426.101 47.7634 425.861 47.4176L425.836 41.1176L427.775 41.1105L427.825 45.1093L430.075 41.7987C430.341 41.4105 430.839 41.054 431.246 40.9976C431.653 40.9411 432.602 41.2834 432.605 41.7211L432.651 47.9223L430.705 47.9293L430.62 43.9552L428.348 47.2905V47.294Z" fill="white"/>
<path d="M333.161 47.294C332.878 47.7069 332.379 48.0352 331.958 48.0493C331.579 48.0634 330.914 47.7634 330.673 47.4175L330.648 41.1175H332.598L332.616 45.2046L334.884 41.7987C335.153 41.3964 335.631 41.0611 336.066 40.9975C336.455 40.9411 337.414 41.2693 337.418 41.7211L337.464 47.9222L335.518 47.9293L335.433 43.9552L333.161 47.2905V47.294Z" fill="white"/>
<path d="M301.554 47.2553C301.296 47.6364 300.818 47.9576 300.458 48.0353C300.097 48.1129 299.063 47.82 299.06 47.3894L298.996 41.1211H300.949L300.967 45.2082L303.228 41.8235C303.511 41.4 303.95 41.0858 304.399 41.0082C304.792 40.9411 305.755 41.2588 305.762 41.7317L305.811 47.9294H303.862L303.84 43.8811L301.558 47.2553H301.554Z" fill="white"/>
<path d="M284.78 47.2976C284.522 47.6788 284.041 47.9788 283.641 48.0424C283.241 48.1059 282.296 47.7918 282.292 47.3329L282.25 41.1247L284.193 41.1141L284.253 45.1341L286.684 41.5341C286.882 41.2447 287.533 41.0082 287.876 41.0012C288.241 40.9906 289.044 41.3965 289.044 41.8094L289.083 47.9259L287.137 47.9471L287.091 43.86L284.773 47.2976H284.78Z" fill="white"/>
<path d="M445.192 47.4177C444.986 47.7213 444.452 47.993 444.123 48.0424C443.776 48.0954 442.941 47.806 442.796 47.446L442.75 41.1213L444.686 41.1036L444.763 45.1201L446.95 41.8624C447.226 41.453 447.647 41.1142 448.097 41.0083C448.479 40.9166 449.48 41.2201 449.484 41.6789L449.562 47.9154L447.616 47.9366L447.58 43.8671L445.192 47.4107V47.4177Z" fill="white"/>
<path d="M278.359 46.0799L280.1 45.6811L280.879 47.3611C279.92 47.7141 279.06 47.9682 278.104 48.0141C275.359 48.1552 273.409 46.0764 273.334 43.4082C273.271 41.1564 274.46 39.1023 276.724 38.5376C278.119 38.1917 279.566 38.5199 280.872 39.0635L280.139 40.7329C279.286 40.4611 278.288 40.1717 277.407 40.3835C275.985 40.7258 275.305 42.0423 275.373 43.4117C275.451 44.9788 276.611 46.2882 278.359 46.0764V46.0799Z" fill="white"/>
<path d="M390.984 47.7706L387.58 47.9435C387.201 47.9611 386.409 47.7317 386.405 47.2976L386.377 41.9788C386.377 41.5764 386.823 41.107 387.223 41.1176L390.552 41.2023C391.228 41.22 391.894 41.9894 392.003 42.487C392.17 43.2353 391.752 44.0223 391.037 44.3929C391.982 44.76 392.41 45.3317 392.378 46.1541C392.354 46.7682 391.869 47.7247 390.981 47.7706H390.984ZM389.756 43.927C390.032 43.9235 390.418 43.4117 390.4 43.1364C390.379 42.84 389.94 42.4341 389.647 42.4305L388.366 42.4164L388.348 43.9517L389.753 43.927H389.756ZM390.131 46.5247C390.386 46.507 390.712 45.8611 390.609 45.6494C390.521 45.4694 390.156 45.1235 389.954 45.1129L388.38 45.0458L388.355 46.6411L390.131 46.5247Z" fill="white"/>
<path d="M441.08 47.9084L439.14 47.9225L439.133 45.2154L436.242 45.1907L436.235 47.9225L434.289 47.9119L434.293 41.1248L436.239 41.1143V43.7896L439.133 43.786L439.13 41.1143L441.08 41.1248V47.9084Z" fill="white"/>
<path d="M329.651 47.8624L327.482 47.94L325.603 45.3177L324.598 46.3765L324.566 47.8977L322.634 47.9259L322.631 41.1247L324.57 41.1141L324.602 43.8106L327.128 41.1106L329.368 41.1494L326.891 43.8953L329.651 47.8624Z" fill="white"/>
<path d="M381.858 48.0212C379.678 48.0424 378.206 46.5142 378.231 44.4777C378.256 42.4412 379.731 40.9977 381.769 40.9941C383.808 40.9906 385.389 42.5224 385.311 44.6542C385.241 46.5565 383.903 48 381.861 48.0212H381.858ZM383.454 44.5589C383.475 43.3447 382.725 42.5083 381.692 42.5577C380.658 42.6071 380.06 43.5565 380.113 44.6577C380.166 45.7589 380.86 46.5212 381.858 46.4824C382.856 46.4436 383.436 45.6883 383.454 44.5624V44.5589Z" fill="white"/>
<path d="M359.916 48.0211C357.757 48.0282 356.313 46.4893 356.338 44.474C356.363 42.4587 357.81 41.0223 359.827 40.994C361.95 40.9658 363.5 42.5117 363.419 44.6505C363.345 46.5846 361.989 48.0105 359.916 48.0176V48.0211ZM361.561 44.5552C361.568 43.4258 360.889 42.5646 359.902 42.554C358.865 42.5434 358.235 43.3976 358.221 44.4705C358.207 45.5434 358.829 46.4893 359.912 46.4823C360.868 46.4752 361.554 45.6811 361.561 44.5552Z" fill="white"/>
<path d="M342.4 46.634C343.21 46.6234 343.692 46.4752 344.566 46.2105L345.164 47.474C344.021 47.8199 343.083 48.0563 341.958 48.014C340.065 47.9434 338.787 46.4787 338.731 44.6646C338.663 42.4834 340.277 40.8881 342.45 41.0187C344.622 41.1493 345.638 42.8505 345.546 45.2152L340.705 45.2258C340.84 45.9669 341.438 46.6481 342.4 46.634ZM343.815 44.0964C343.794 42.8505 343.037 42.2893 342.096 42.3916C341.296 42.4764 340.666 43.1964 340.68 44.1281L343.815 44.0964Z" fill="white"/>
<path d="M408.044 46.6377C408.826 46.6059 409.371 46.4541 410.196 46.2247L410.762 47.4353C409.612 47.8624 408.465 48.1094 407.273 47.9789C405.49 47.7847 404.389 46.3694 404.329 44.6577C404.255 42.5859 405.709 41.0083 407.807 41.0189C408.706 41.0224 409.665 41.2765 410.252 41.993C410.996 42.8965 411.215 44.0083 411.123 45.2188L406.31 45.2259C406.388 46.0024 407.05 46.6765 408.044 46.6377ZM409.417 44.0859C409.283 42.7059 408.526 42.3318 407.712 42.3883C406.898 42.4447 406.311 43.1047 406.24 44.1106L409.417 44.0859Z" fill="white"/>
<path d="M354.389 47.8482L352.375 47.8799V40.2564H349.41L349.417 38.4917H357.358L357.375 40.2599L354.382 40.2529L354.389 47.8482Z" fill="white"/>
<path d="M397.42 43.6307C398.804 43.6307 399.649 44.4742 399.709 45.6248C399.77 46.7754 398.945 47.8801 397.607 47.8942L394.504 47.9295C394.14 47.933 393.68 47.4813 393.68 47.1036V41.1389H395.658V43.6272L397.42 43.6307ZM397.473 46.4401C397.735 46.366 397.965 45.6954 397.862 45.473C397.777 45.2824 397.402 44.9366 397.186 44.9295L395.665 44.873V46.6272C396.319 46.6166 396.882 46.606 397.473 46.4366V46.4401Z" fill="white"/>
<path d="M318.277 46.2952C319.002 46.5952 319.784 46.394 320.626 46.1576L321.249 47.4846C320.195 47.9082 319.08 48.127 317.965 47.9188C316.355 47.6188 315.428 46.2282 315.365 44.647C315.283 42.6388 316.731 40.9799 318.786 41.0082C319.611 41.0188 320.358 41.2552 321.246 41.5905L320.623 42.9635C319.735 42.5752 318.914 42.3635 318.135 42.7693C317.484 43.1046 317.24 43.8917 317.244 44.5552C317.251 45.1623 317.502 45.9776 318.273 46.2952H318.277Z" fill="white"/>
<path d="M374.494 42.6389V47.9154L372.548 47.9189L372.537 41.9718C372.537 41.626 372.926 41.1424 373.266 41.1389L377.887 41.1318V42.6389L374.49 42.6354L374.494 42.6389Z" fill="white"/>
<path d="M403.043 47.8836L401.097 47.9224L401.09 41.1212L403.036 41.1177L403.043 47.8836Z" fill="white"/>
</g>
<defs>
<clipPath id="clip0_60_1058">
<rect width="472" height="60" fill="white"/>
</clipPath>
</defs>
</svg>
