<svg width="225" height="70" viewBox="0 0 225 70" fill="none" xmlns="http://www.w3.org/2000/svg">
<g clip-path="url(#clip0_2036_310)">
<path d="M209.968 7C210.122 7.26519 210.341 7.67364 210.008 7.90428C204.454 10.3286 199.291 13.4803 194.119 16.6107C192.83 17.3911 191.605 18.3167 190.304 19.0716C187.005 20.9858 182.508 23.0382 179.635 25.5103C179.366 25.7419 178.941 26.1311 179.573 26.1615C187.578 20.8222 196.538 17.0578 205.674 14.1113C207.478 13.5291 209.43 12.8697 211.259 12.4145C211.559 12.3403 212.256 12.0863 212.494 12.2306C212.832 12.765 212.828 12.9022 212.311 13.1653C209.573 14.5655 205.751 15.677 202.8 16.9095C198.129 18.8613 193.545 21.0092 189.062 23.3593L194.515 23.8673C194.544 23.8866 194.463 23.9984 194.416 24.0207C194.14 24.1518 192.849 24.2382 192.444 24.2717C191.521 24.3489 190.544 24.3317 189.618 24.3753C189.08 24.4007 188.125 24.6131 187.612 24.4759C187.526 24.4526 187.556 24.2544 187.498 24.2717C186.571 24.8722 185.584 25.3833 184.666 25.998C184.079 26.3902 183.049 26.8362 183.101 27.6257L191.338 27.9264L196.939 28.4395C197.19 28.6427 196.368 28.7159 196.27 28.7311C194.863 28.9475 193.4 28.8663 191.99 29.0481L192.041 28.6427C191.17 29.5318 189.741 30.1556 188.504 30.2664C187.663 30.3416 186.77 30.1272 185.955 30.3944C185.457 30.811 187.084 32.1755 187.389 32.462C188.229 32.271 189.099 32.4712 189.915 32.5078C192.134 32.6073 194.372 32.5982 196.584 32.8095C196.94 32.843 198.113 32.9467 198.353 33.0615C198.399 33.0828 198.481 33.1926 198.452 33.2149C195.478 33.6589 192.45 33.6051 189.464 33.8764C192.33 35.5975 195.682 36.2336 198.958 36.6705V38.8042L190.324 39.2116C188.627 39.4676 186.866 39.3782 185.222 39.9228C185.103 40.0763 186.01 40.2805 186.108 40.3008C186.959 40.4715 188.031 40.5518 188.909 40.633C192.176 40.9338 195.479 40.9927 198.755 41.1421L198.184 43.5847C197.341 43.5013 196.5 43.6385 195.674 43.6812C192.638 43.8376 189.4 43.8529 186.397 44.306C186.003 44.366 184.358 44.6109 185.538 44.937C187.698 45.5334 191.792 45.5883 194.156 45.7173C195.279 45.7793 196.419 45.7834 197.543 45.8149C197.634 45.8961 196.738 47.9577 196.625 48.0908C196.274 48.5023 195.003 48.3225 194.465 48.356C192.628 48.4718 190.737 48.5561 188.91 48.7624C188.052 48.8589 186.996 48.9412 186.234 49.3202C186.236 49.5925 188.473 49.8404 188.809 49.878C190.997 50.127 193.226 50.1524 195.423 50.2865C194.828 51.2649 194.21 52.2576 193.401 53.0775C192.551 53.2625 188.56 53.3336 188.098 53.8386C188.035 53.9066 187.995 54.0225 188.104 54.0458L191.988 54.7042C190.55 56.023 189.038 57.3307 187.289 58.2075C186.918 58.1994 185.812 56.5189 185.277 56.4772C178.079 56.7048 170.866 56.9019 163.663 56.9954C162.849 57.0056 160.846 57.0056 160.223 56.4843C159.169 55.6034 161.381 55.2001 161.938 55.1574C165.641 54.878 170.094 55.2895 173.856 55.3687C177.259 55.4398 180.663 55.4053 184.068 55.5607C184.274 55.5699 184.422 55.6583 184.616 55.6684C184.243 55.194 183.786 54.7642 183.407 54.2948C183.029 53.8253 182.357 52.6853 181.993 52.3643C181.579 51.9975 180.362 52.3094 179.823 52.3206C178.744 52.344 177.661 52.2982 176.583 52.3125C170.68 52.1987 164.169 53.0603 158.302 52.6254C157.389 52.5573 154.359 51.7882 156.369 50.7742C157.651 50.1269 159.172 50.384 160.524 50.3901C165.286 50.4114 170.022 50.4927 174.765 50.5933C176.769 50.636 178.776 50.6096 180.778 50.6898L178.708 47.6427C178.551 48.0166 177.738 47.8185 177.296 47.8469C170.822 48.2513 163.904 48.2239 157.394 48.1457C156.534 48.1355 155.804 48.2259 154.903 48.0187C153.782 47.7606 152.275 46.8746 154.015 46.0679C156 45.1483 159.51 45.8088 161.745 45.6137C162.742 45.5263 163.966 44.6688 163.912 43.5786C163.416 43.798 163.052 44.2471 162.566 44.5093C161.699 44.9787 160.646 44.8263 160.882 43.6802C158.653 43.417 154.361 44.2603 152.465 43.0533C150.535 41.8238 153.7 41.0151 154.672 40.9379C157.239 40.7336 160.036 41.1045 162.629 40.9155L164.013 39.108H154.065C153.837 39.108 152.794 38.8214 152.531 38.7209C150.923 38.1092 151.153 37.1917 152.647 36.6654C154.14 36.1391 155.659 36.3616 157.192 36.3687C160.155 36.3819 163.118 36.3525 166.082 36.3626C166.458 36.2905 167.575 34.8192 167.851 34.4352L154.886 34.5226C154.145 34.4586 151.39 34.0206 151.946 32.8095C152.204 32.2456 153.976 31.8351 154.567 31.7884C158.169 31.5039 162.436 31.8514 166.08 31.8981C167.46 31.9154 168.842 31.8788 170.223 31.892C171.11 31.2601 171.883 30.4777 172.598 29.6598L156.288 29.861C155.226 29.6618 153.639 29.6974 153.208 28.4873C153.721 27.5068 155.271 27.2802 156.283 27.2152C160.477 26.9459 165.273 27.3686 169.514 27.4265C171.332 27.4509 173.157 27.3412 174.966 27.519L178.456 24.8305L172.149 24.988C170.43 25.0002 168.709 24.9596 166.99 24.9799C164.556 25.0083 158.729 25.5336 156.689 24.7848C154.324 23.9161 156.86 22.9336 158.102 22.8462C163.046 22.4997 168.763 22.9448 173.757 23.0586C175.914 23.1073 178.075 23.0829 180.233 23.147L180.426 23.3593L185.324 19.854C184.55 19.666 183.701 19.8895 182.956 19.9098C176.487 20.0795 170.035 20.1872 163.556 20.2065C162.554 20.2096 161.273 20.4534 160.343 19.8905C158.944 19.0442 161.316 18.5219 161.94 18.4782C165.842 18.2049 170.413 18.6063 174.363 18.6906C177.672 18.7607 180.959 18.8054 184.264 18.8907C185.02 18.9101 185.873 19.1051 186.665 18.967C193.831 14.2302 201.34 9.87743 209.464 7.00203H209.969L209.968 7ZM175.83 35.3984C175.883 34.6587 175.83 33.8154 175.83 33.0615C175.83 32.4143 175.162 30.8211 174.749 30.2948C174.684 30.2135 174.752 30.1079 174.518 30.1658L173.998 32.8949C172.863 33.218 171.846 34.2675 171.488 35.4014C171.448 35.5295 171.331 35.5965 171.484 35.7073C172.015 36.0121 172.941 35.2856 173.002 35.3486C172.019 38.986 170.656 42.5767 168.558 45.7102L177.547 45.9134C177.281 45.504 176.668 44.6789 176.178 44.5997C175.419 44.4767 172.092 45.7326 171.689 45.3038C171.654 45.1331 171.735 45.0965 171.854 45.0142C172.136 44.8191 172.796 44.62 173.17 44.4076C177.276 42.0799 178.611 38.8783 177.921 34.2086C177.836 33.6366 177.675 33.0656 177.545 32.5037L176.718 34.5652L175.779 35.754C175.612 35.6697 175.825 35.4655 175.829 35.3984H175.83Z" fill="#DC2340"/>
<path d="M11 32.2992C11.4868 24.364 16.5065 19.109 24.3835 18.2789C35.341 17.1236 43.5533 23.7736 41.9929 35.2823C41.2828 40.517 37.8963 45.2304 32.817 46.8297L42.108 52.7237L37.5105 55.3634L28.1448 48.0235C25.7763 47.9128 23.4887 47.9372 21.1798 47.3082C15.4177 45.7384 11.4232 40.6115 11 34.6361V32.2992ZM25.6248 20.3404C13.9846 21.4337 13.527 44.0792 25.1036 45.6968C30.8182 46.4954 34.8835 42.7056 36.0177 37.2992C37.6266 29.6321 35.3471 19.428 25.6238 20.3404H25.6248Z" fill="#DC2340"/>
<path d="M114.525 63.9999C113.412 62.8955 114.355 63.3395 115.085 63.2948C115.734 63.2552 116.216 62.803 116.421 62.1985L116.546 57.1914L116.154 57.1823C116.101 57.0146 116.042 56.9821 116.132 56.8358C116.419 56.3715 117.599 55.7344 118.059 55.3625L118.161 60.2395H120.181V54.4989C120.181 54.4379 119.73 54.2683 119.928 53.8405C120.11 53.4473 121.405 52.731 121.797 52.416V56.8866C122.169 56.6011 122.589 56.4274 123.061 56.3796C124.718 56.212 128.789 56.1937 130.422 56.3898C131.187 56.4822 131.969 57.0238 132.367 57.6842C132.433 57.7929 132.706 58.4015 132.706 58.4605V60.2385H138.059V59.1209H135.837V57.4444C135.837 57.2758 136.336 56.722 136.492 56.5787C137.306 55.8259 138.646 55.3361 139.675 54.9551V60.2385H141.897V54.3455C141.897 54.312 141.389 54.3475 141.69 53.8832C141.82 53.683 142.53 53.2095 142.774 53.0429C142.996 52.8915 143.25 52.666 143.513 52.6182V61.7626H118.061C118.006 62.738 117.617 63.5356 116.748 63.9979H114.526L114.525 63.9999ZM138.057 57.0908C137.958 56.9791 136.873 57.6354 137.048 58.0043H138.058L138.057 57.0908ZM131.089 60.2406V58.4625C131.089 58.1394 130.403 57.9341 130.13 57.9037C128.458 57.7167 124.66 57.7492 122.955 57.8996C122.714 57.9209 122.357 57.9799 122.163 58.1191C122.071 58.1851 121.797 58.6098 121.797 58.6657V60.2406H131.089Z" fill="#DC2340"/>
<path d="M136.138 33.0117L146.439 47.3358C144.657 47.1418 142.83 47.0412 141.031 47.1296C140.677 47.1469 139.578 47.4222 139.368 47.2891C136.532 42.6021 133.445 38.034 130.21 33.6396L129.269 33.6203L129.37 47.3379C127.497 47.0442 125.587 47.0605 123.715 47.3379C123.696 47.0768 123.811 46.839 123.82 46.5809C124.085 38.8742 124.244 31.135 124.019 23.4101C123.972 21.7671 123.98 20.1211 123.817 18.4833C124.407 18.5402 125.098 18.6662 125.68 18.6906C129.333 18.8399 133.494 18.1642 136.996 18.5859C141.203 19.0929 143.938 22.204 143.297 26.5486C142.757 30.2155 139.606 32.4701 136.139 33.0137L136.138 33.0117ZM129.27 31.6898C132.072 31.8849 135.194 32.1673 136.909 29.4677C139.339 25.6423 137.453 20.2421 132.446 20.5093L129.27 20.7165V31.6898Z" fill="#DC2340"/>
<path d="M72.7118 47.3363C70.5989 47.0497 68.4758 47.0853 66.3609 47.3241L62.9017 38.2061C59.4555 38.0486 55.9832 38.0283 52.529 38.2091L49.1697 47.3281C47.8819 47.0954 46.6265 47.0294 45.3418 47.3363C48.6354 39.533 52.4037 31.9178 55.5893 24.0658C56.3872 22.1008 57.2002 20.1236 57.7648 18.0742C58.6324 18.3577 59.5727 18.3618 60.4463 18.1027L60.5393 18.1718C64.046 28.1198 68.4688 37.6991 72.7108 47.3363H72.7118ZM57.8638 25.3907L57.6375 25.5208C56.2862 28.9032 54.7893 32.2521 53.5228 35.6528H61.7038L57.8648 25.3907H57.8638Z" fill="#DC2340"/>
<path d="M107.048 18.0752C110.553 28.0609 114.964 37.6909 119.272 47.3362C117.159 47.0497 115.037 47.0873 112.923 47.323L109.375 38.2426C106.647 38.1065 103.875 37.9795 101.138 38.0862C100.877 38.0963 100.664 38.1766 100.435 38.1918C100.056 38.2172 99.1865 38.0638 98.9804 38.3544L95.7363 47.3352C94.4536 47.1035 93.181 47.0111 91.9023 47.3372C95.9666 37.5548 100.877 28.1096 104.326 18.0752C105.202 18.382 106.176 18.3536 107.049 18.0752H107.048ZM108.162 35.6517L104.225 25.2891L100.083 35.6517H108.162Z" fill="#DC2340"/>
<path d="M93.3138 18.4815C93.1198 19.5829 93.0532 20.5288 93.3138 21.6302L89.4303 21.3213L85.0318 21.3254L84.9267 43.7342L85.2338 47.3361C83.2865 47.0943 81.321 47.0333 79.3758 47.3361C79.4454 45.7622 79.505 44.1874 79.5788 42.6125C79.6252 41.6137 79.7575 40.5662 79.7838 39.5674C79.9474 33.4874 79.6192 27.3973 79.6788 21.3244C76.8124 21.3142 73.9329 21.3152 71.0938 21.6292C71.2523 20.5796 71.2129 19.528 71.0938 18.4805L73.9672 18.6877C80.4201 18.77 86.8831 18.8869 93.3127 18.4805L93.3138 18.4815Z" fill="#DC2340"/>
<path d="M68.6718 59.2245C68.796 59.3231 69.3293 57.7919 69.3798 57.6517C70.0241 55.8746 70.5928 54.0427 71.1008 52.2209L72.3583 52.3144L74.6308 59.3261C74.7742 59.3139 74.7893 59.1768 74.8358 59.0762C75.7771 57.0197 76.273 54.4684 77.0012 52.3144L78.1637 52.2148L74.8287 61.7656C74.458 61.6447 74.151 61.6214 73.7773 61.7524L73.6702 61.6671L71.1957 54.6544L68.8172 61.7687C68.4536 61.601 68.1294 61.6549 67.7628 61.7667L64.4277 52.2169L66.5013 52.3154L68.6718 59.2266V59.2245Z" fill="#DC2340"/>
<path d="M107.656 60.2411H112.706V58.3614C112.706 58.2933 112.363 58.1907 112.312 58.0403C112.119 57.4683 113.825 56.5986 114.221 56.2785V61.7651H102.707L102.915 59.0787C103.109 58.3604 103.668 57.8839 104.231 57.4561C104.514 57.2417 105.935 56.4675 105.989 56.3791C106.022 56.3232 106.164 55.7004 106.142 55.6719C106.107 55.6262 105.575 55.6313 105.686 55.2604L107.657 53.4336V60.2411H107.656ZM106.04 58.1074C105.008 58.4772 104.088 58.9629 104.323 60.2411H106.04V58.1074Z" fill="#DC2340"/>
<path d="M61.7507 52.2143C62.8597 52.3718 63.6849 53.4895 63.6213 54.598C63.5425 55.9727 62.3931 56.7134 61.1963 57.0395L64.6292 61.7154C64.5474 61.884 64.3333 61.6646 64.2757 61.6646H62.6597C62.6284 61.6646 62.5476 61.7621 62.4527 61.7662L62.2588 61.6656C61.4447 60.3996 60.6731 59.0736 59.7631 57.8737C59.5621 57.6095 59.3924 57.2062 59.0268 57.1909C58.8126 57.1818 58.8945 57.194 58.8722 57.3443C58.6712 58.6743 59.0288 60.4057 58.9732 61.7672C58.3733 61.6463 57.7491 61.5914 57.1562 61.7672V52.2164C58.5773 52.3617 60.3761 52.0213 61.7507 52.2164V52.2143ZM58.8722 56.5833H60.4377C61.1043 56.5833 61.7416 55.5317 61.8002 54.9058C61.978 52.9713 60.4872 52.5578 58.8722 52.9256V56.5833Z" fill="#DC2340"/>
<path d="M47.6484 52.1271L51.6005 61.7653C50.9319 61.5956 50.2633 61.6606 49.5896 61.7582L48.4564 58.7314C47.2727 58.6562 46.1112 58.5709 44.9315 58.7639L43.8225 61.7653C43.4276 61.6576 43.0014 61.5722 42.6135 61.7653L46.6626 52.123L47.6484 52.1271ZM47.9655 57.9043L46.7525 54.4498L45.2385 57.9043H47.9655Z" fill="#DC2340"/>
<path d="M82.1951 52.1221L86.1432 61.7633L84.1202 61.7217L83.0011 58.7274C81.8174 58.6583 80.6549 58.5648 79.4762 58.764L78.3662 61.7633C77.9683 61.6567 77.5461 61.5693 77.1562 61.7633L81.1841 52.1709L82.1951 52.1211V52.1221ZM82.5082 57.9034L81.2952 54.4488C81.2306 54.3991 81.1104 54.6145 81.074 54.6825C80.565 55.6356 80.2287 56.9006 79.7812 57.9034H82.5082Z" fill="#DC2340"/>
<path d="M99.0692 53.9411C98.8914 54.1189 98.8965 53.8598 98.8581 53.7958C98.3319 52.9058 97.8026 52.5817 96.7048 52.732C95.4877 52.8987 94.9484 54.4847 95.8432 55.3077C97.0168 56.3867 99.5732 56.1439 99.8691 58.3701C100.334 61.8744 96.3977 62.6903 93.9121 61.3074L94.1212 59.7336C94.2676 59.5537 94.7029 60.4326 94.7858 60.5373C96.1866 62.292 99.1278 60.8858 98.1491 58.7795C97.4501 57.2748 94.306 57.6771 94.0303 55.4042C93.6323 52.1183 97.0431 51.4335 99.4318 52.6172L99.0671 53.9411H99.0692Z" fill="#DC2340"/>
<path d="M91.9155 52.2307C92.2842 52.2033 92.6084 52.2561 92.9831 52.2439C93.1215 52.2388 93.2497 52.1159 93.2114 52.3648C92.4832 53.4672 91.764 54.591 91.1116 55.7401C90.849 56.2024 90.0289 57.4989 89.9268 57.9013C89.7632 58.5475 90.1208 61.6129 89.9794 61.7642C89.3653 61.622 88.7785 61.622 88.1624 61.7642L88.2169 57.8992L84.8284 52.2155C85.2202 52.122 85.6424 52.31 85.9899 52.3161C86.2888 52.3211 86.7363 52.0722 87.0514 52.2642C87.3665 52.4563 89.1916 56.8852 89.5249 56.8862L91.9145 52.2317L91.9155 52.2307Z" fill="#DC2340"/>
<path d="M54.7324 52.2139C54.7506 52.4741 54.6365 52.7128 54.6274 52.9709C54.5749 54.4889 54.6325 56.0526 54.6365 57.5431C54.6405 58.9503 54.5618 60.3687 54.7324 61.7627C54.079 61.654 53.4669 61.5971 52.8145 61.7627V52.2119H54.7335L54.7324 52.2139Z" fill="#DC2340"/>
<path d="M183.709 15.6375C183.727 15.7858 183.445 15.8194 183.347 15.8305C179.623 16.2553 175.593 16.174 171.837 16.242C170.739 16.2613 167.769 16.621 166.906 16.1303C165.976 15.6009 167.007 15.1762 167.595 15.1244C170.523 14.8643 174.221 15.2199 177.195 15.3307C179.367 15.4119 181.543 15.4028 183.708 15.6375H183.709Z" fill="#DC2340"/>
<path d="M183.709 59.6318C183.727 59.7801 183.445 59.8137 183.347 59.8248C179.592 60.2536 175.525 60.1683 171.736 60.2363C170.649 60.2556 167.767 60.6143 166.906 60.1246C165.976 59.5952 167.007 59.1705 167.595 59.1187C170.528 58.8586 174.217 59.2132 177.195 59.3249C179.367 59.4062 181.543 59.3971 183.708 59.6318H183.709Z" fill="#DC2340"/>
<path d="M146.44 52.6201V61.7645H144.824V54.3474C144.824 54.3139 144.316 54.3494 144.617 53.8851C144.746 53.6849 145.456 53.2115 145.701 53.0448C145.923 52.8934 146.176 52.6679 146.44 52.6201Z" fill="#DC2340"/>
<path d="M110.054 62.6039C110.184 62.7431 110.215 63.1505 110.181 63.3365C110.064 63.9796 108.183 64.1828 108.486 62.8538C108.631 62.2208 109.727 62.2534 110.054 62.6039Z" fill="#DC2340"/>
<path d="M105.708 52.338C106.209 52.2191 106.855 52.2801 106.945 52.8826C107.064 53.6802 106.36 53.8661 105.708 53.7168C105.058 53.5674 105.053 52.4934 105.708 52.339V52.338Z" fill="#DC2340"/>
<path d="M138.126 52.2336C139.64 51.7744 140.136 53.588 138.609 53.6408C137.482 53.6795 137.648 52.3779 138.126 52.2336Z" fill="#DC2340"/>
<path d="M103.585 52.3377C104.131 52.2127 104.786 52.3265 104.832 52.9778C104.882 53.7083 104.18 53.8526 103.585 53.7164C102.933 53.5671 102.933 52.487 103.585 52.3377Z" fill="#DC2340"/>
<path d="M135.906 52.2334C137.468 51.763 137.93 53.5959 136.387 53.6416C135.377 53.6711 135.413 52.3817 135.906 52.2334Z" fill="#DC2340"/>
<path d="M111.161 62.3967C112.441 62.0929 112.857 63.5195 111.905 63.7532C110.35 64.1342 110.418 62.5735 111.161 62.3967Z" fill="#DC2340"/>
</g>
<defs>
<clipPath id="clip0_2036_310">
<rect width="202" height="57" fill="white" transform="translate(11 7)"/>
</clipPath>
</defs>
</svg>
