<svg width="225" height="70" viewBox="0 0 225 70" fill="none" xmlns="http://www.w3.org/2000/svg">
<g clip-path="url(#clip0_2036_309)">
<path d="M113.781 18.4043H119.124V23.1789H113.781V18.4043ZM113.781 25.9558H119.124V46.0326H113.781V25.9558Z" fill="#DC2340"/>
<path d="M127.256 29.165H127.374C128.591 26.8949 129.966 25.7207 132.323 25.7207C132.912 25.7207 133.266 25.7602 133.58 25.8774V30.5345H133.462C129.966 30.1825 127.452 32.0218 127.452 36.2483V46.0324H122.109V25.9556H127.256V29.165Z" fill="#DC2340"/>
<path d="M143.988 18.4043H149.331V23.1789H143.988V18.4043ZM143.989 25.9558H149.331V46.0326H143.989V25.9558Z" fill="#DC2340"/>
<path d="M157.541 28.6956H157.658C159.033 26.5432 160.879 25.4082 163.629 25.4082C167.794 25.4082 170.582 28.5389 170.582 32.9223V46.0328H165.24V33.7049C165.24 31.5524 163.983 30.0261 161.744 30.0261C159.387 30.0261 157.658 31.9046 157.658 34.6442V46.0328H152.316V25.9561H157.541V28.6956H157.541Z" fill="#DC2340"/>
<path d="M172.781 35.9748C172.781 30.0261 176.827 25.4082 182.72 25.4082C189.202 25.4082 192.658 30.3392 192.658 37.501H178.045C178.438 40.5925 180.166 42.5104 183.191 42.5104C185.273 42.5104 186.491 41.5712 187.08 40.0446H192.344C191.598 43.6062 188.416 46.6199 183.231 46.6199C176.552 46.6197 172.781 41.9621 172.781 35.9748ZM178.123 33.8224H187.08C186.923 31.2783 185.234 29.517 182.798 29.517C179.97 29.517 178.595 31.2 178.123 33.8224Z" fill="#DC2340"/>
<path d="M193.891 39.5357H198.84C199.194 41.8449 200.844 42.8624 203.24 42.8624C205.598 42.8624 206.933 41.9621 206.933 40.5537C206.933 38.6359 204.38 38.44 201.63 37.8926C198.016 37.188 194.48 36.2095 194.48 31.8264C194.48 27.4824 198.095 25.4082 202.69 25.4082C207.994 25.4082 210.94 28.0303 211.333 32.0611H206.501C206.265 29.9088 204.89 29.126 202.612 29.126C200.53 29.126 199.155 29.9088 199.155 31.3567C199.155 33.0786 201.826 33.2353 204.694 33.8226C208.072 34.5269 211.804 35.4662 211.804 40.1625C211.804 44.1935 208.347 46.6201 203.319 46.6201C197.465 46.6197 194.205 43.8021 193.891 39.5357Z" fill="#DC2340"/>
<path d="M101.175 18.4043H94.9574L83.7148 46.0323H90.0786L92.1607 40.3578H103.632L105.753 46.0323H112.156L101.175 18.4043ZM93.6926 35.7004L97.8175 23.9594L102.06 35.7002H93.6926V35.7004Z" fill="#DC2340"/>
<path d="M141.003 18.4043H135.66V46.0323H141.003V18.4043Z" fill="#DC2340"/>
<path d="M76.7829 34.9868C76.7829 52.5393 62.5146 66.7518 44.9011 66.7518C27.2854 66.7518 13 52.5393 13 34.9868C13 17.4342 27.2854 3.20801 44.9011 3.20801C62.5149 3.20801 76.7829 17.4342 76.7829 34.9868Z" fill="#DC2340"/>
<path d="M42.5769 18.4023C37.5535 18.4023 34.2946 18.679 31.9356 19.5514C27.9713 21.0899 25.2336 24.3143 25.2336 28.5518C25.2336 32.0811 26.8832 34.637 31.657 37.5768C36.7506 40.653 37.7668 41.6697 37.7668 43.5233C37.7668 45.552 35.7716 47.8612 30.638 47.8612C28.8462 47.8612 26.1474 47.6141 24.4229 47.1938L23.6 46.9871C23.141 48.2131 22.099 51.1132 21.7812 52.1654L22.596 52.4042C24.1473 52.8971 27.8287 53.282 30.4663 53.282C39.2406 53.282 44.4758 48.0008 44.4758 42.4706C44.4758 39.0724 42.9275 36.4898 37.6934 33.2362C35.068 31.6274 33.7301 30.5841 32.9176 29.7764C32.2589 28.9333 32.186 28.3059 32.186 27.643C32.186 27.0102 32.3274 26.281 32.7461 25.7468C33.1991 25.0864 34.0298 24.6656 35.1542 24.3184C36.3098 23.9364 38.4511 23.9263 41.786 23.9263H44.8911L47.1084 18.4026L42.5769 18.4023ZM66.0437 18.4023H50.4397L48.2222 23.9258H53.3944C56.8746 23.9258 57.544 23.8512 58.418 23.8512C57.1563 26.7266 49.5525 46.0306 49.5525 46.0306H55.9878C55.9878 46.0306 65.6148 22.0005 66.635 19.481C66.9176 18.9188 66.7772 18.4023 66.0437 18.4023Z" fill="white"/>
</g>
<defs>
<clipPath id="clip0_2036_309">
<rect width="199" height="64" fill="white" transform="translate(13 3)"/>
</clipPath>
</defs>
</svg>
