<svg width="100" height="100" viewBox="0 0 100 100" fill="none" xmlns="http://www.w3.org/2000/svg">
<path d="M92.9301 50.6768C90.3301 31.2934 74.4767 15.8134 55.0434 13.6201C28.8534 10.6634 6.66675 31.0734 6.66675 56.6668C6.66675 67.1101 10.3734 76.6834 16.5301 84.1634C17.8201 85.7301 19.7267 86.6668 21.7567 86.6668H78.2767C80.1734 86.6668 82.0267 85.9034 83.2434 84.4501C90.7101 75.5301 94.6601 63.5634 92.9301 50.6768ZM63.7801 26.1334C64.7001 24.5401 66.7401 23.9934 68.3334 24.9134C69.9267 25.8334 70.4734 27.8734 69.5534 29.4668C68.6334 31.0601 66.5934 31.6068 65.0001 30.6868C63.4067 29.7668 62.8601 27.7268 63.7801 26.1334ZM50.0001 20.0001C51.8401 20.0001 53.3334 21.4934 53.3334 23.3334C53.3334 25.1734 51.8401 26.6668 50.0001 26.6668C48.1601 26.6668 46.6667 25.1734 46.6667 23.3334C46.6667 21.4934 48.1601 20.0001 50.0001 20.0001ZM13.3334 56.6668C13.3334 54.8268 14.8267 53.3334 16.6667 53.3334C18.5067 53.3334 20.0001 54.8268 20.0001 56.6668C20.0001 58.5068 18.5067 60.0001 16.6667 60.0001C14.8267 60.0001 13.3334 58.5068 13.3334 56.6668ZM22.8001 76.2201C21.2067 77.1401 19.1667 76.5934 18.2467 75.0001C17.3267 73.4068 17.8734 71.3668 19.4667 70.4468C21.0601 69.5268 23.1001 70.0734 24.0201 71.6668C24.9401 73.2601 24.3934 75.3001 22.8001 76.2201ZM24.0201 41.6668C23.1001 43.2601 21.0601 43.8068 19.4667 42.8868C17.8701 41.9668 17.3267 39.9268 18.2467 38.3334C19.1667 36.7401 21.2067 36.1934 22.8001 37.1134C24.3934 38.0334 24.9401 40.0734 24.0201 41.6668ZM35.0001 30.6868C33.4067 31.6068 31.3667 31.0601 30.4467 29.4668C29.5267 27.8734 30.0734 25.8334 31.6667 24.9134C33.2601 23.9934 35.3001 24.5401 36.2201 26.1334C37.1401 27.7268 36.5934 29.7668 35.0001 30.6868ZM44.2267 60.0001C42.3867 56.8101 43.4767 52.7334 46.6667 50.8934C48.6701 49.7368 63.9801 43.9368 75.0834 39.7868C77.3101 38.9534 78.9967 41.8734 77.1601 43.3868C68.0134 50.9268 55.3367 61.2868 53.3334 62.4434C50.1434 64.2801 46.0667 63.1901 44.2267 60.0001ZM81.7534 75.0001C80.8334 76.5934 78.7934 77.1401 77.2001 76.2201C75.6067 75.3001 75.0601 73.2601 75.9801 71.6668C76.9001 70.0734 78.9401 69.5268 80.5334 70.4468C82.1301 71.3668 82.6734 73.4068 81.7534 75.0001ZM83.3334 60.0001C81.4934 60.0001 80.0001 58.5068 80.0001 56.6668C80.0001 54.8268 81.4934 53.3334 83.3334 53.3334C85.1734 53.3334 86.6667 54.8268 86.6667 56.6668C86.6667 58.5068 85.1734 60.0001 83.3334 60.0001Z" fill="#142637"/>
</svg>
