<svg width="100" height="100" viewBox="0 0 100 100" fill="none" xmlns="http://www.w3.org/2000/svg">
<path d="M19.9999 13.3333C16.3166 13.3333 13.3333 16.3166 13.3333 19.9999V79.9999C13.3333 83.6833 16.3166 86.6666 19.9999 86.6666H25.1887C24.0421 84.6966 23.3333 82.4399 23.3333 79.9999V19.9999C23.3333 17.5599 24.0421 15.3033 25.1887 13.3333H19.9999ZM36.6666 13.3333C32.9833 13.3333 29.9999 16.3166 29.9999 19.9999V79.9999C29.9999 83.6833 32.9833 86.6666 36.6666 86.6666H79.9999C83.6833 86.6666 86.6666 83.6833 86.6666 79.9999V34.9999C86.6666 34.1166 86.3167 33.2698 85.69 32.6431L67.3567 14.3098C66.73 13.6831 65.8833 13.3333 64.9999 13.3333H36.6666ZM63.3333 19.6809L80.3189 36.6666H66.6666C64.8266 36.6666 63.3333 35.1733 63.3333 33.3333V19.6809ZM46.6666 49.9999H69.9999C71.8399 49.9999 73.3333 51.4933 73.3333 53.3333C73.3333 55.1733 71.8399 56.6666 69.9999 56.6666H46.6666C44.8266 56.6666 43.3333 55.1733 43.3333 53.3333C43.3333 51.4933 44.8266 49.9999 46.6666 49.9999ZM46.6666 63.3333H63.3333C65.1733 63.3333 66.6666 64.8266 66.6666 66.6666C66.6666 68.5066 65.1733 69.9999 63.3333 69.9999H46.6666C44.8266 69.9999 43.3333 68.5066 43.3333 66.6666C43.3333 64.8266 44.8266 63.3333 46.6666 63.3333Z" fill="#142637"/>
</svg>
