<svg width="30" height="30" viewBox="0 0 30 30" fill="none" xmlns="http://www.w3.org/2000/svg">
<path d="M24 2H4V28H24C25.105 28 26 27.105 26 26V4C26 2.895 25.105 2 24 2ZM9 21C9 17.208 13 18.292 13.5 16.667V15.584C13.275 15.463 12.632 14.633 12.564 13.985C12.387 13.97 12.109 13.794 12.027 13.099C11.983 12.726 12.158 12.516 12.264 12.45C12.264 12.45 12 11.848 12 11.251C12 9.474 12.879 8 15 8C16.145 8 16.5 8.812 16.5 8.812C17.523 8.812 18 9.934 18 11.25C18 11.906 17.736 12.449 17.736 12.449C17.842 12.515 18.017 12.725 17.973 13.098C17.891 13.793 17.613 13.969 17.436 13.984C17.368 14.632 16.725 15.462 16.5 15.583V16.666C17 18.292 21 17.208 21 21H9Z" fill="#DC2340"/>
</svg>
