<svg width="30" height="30" viewBox="0 0 30 30" fill="none" xmlns="http://www.w3.org/2000/svg">
<path d="M14.9999 2C10.5819 2 6.99991 5.582 6.99991 10C6.99991 16 13.9999 18 13.9999 22C13.9999 22.552 14.4479 23 14.9999 23C15.5519 23 15.9999 22.552 15.9999 22C15.9999 18 22.9999 16 22.9999 10C22.9999 5.582 19.4179 2 14.9999 2ZM14.9999 8C16.1049 8 16.9999 8.895 16.9999 10C16.9999 11.105 16.1049 12 14.9999 12C13.8949 12 12.9999 11.105 12.9999 10C12.9999 8.895 13.8949 8 14.9999 8ZM5.99991 17C5.58291 17 5.20941 17.2594 5.06241 17.6484L2.06241 25.6484C1.94741 25.9564 1.99164 26.2984 2.17764 26.5684C2.36564 26.8384 2.67191 27 2.99991 27H26.9999C27.3279 27 27.6352 26.8384 27.8222 26.5684C28.0092 26.2994 28.0524 25.9564 27.9374 25.6484L24.9374 17.6484C24.7904 17.2594 24.4169 17 23.9999 17H22.0233C21.4753 17.612 20.9099 18.1713 20.3769 18.6973C20.2719 18.7993 20.1712 18.9 20.0702 19H23.3065L25.5565 25H4.44327L6.69327 19H9.92959C9.82859 18.9 9.72891 18.7993 9.62491 18.6973C9.09091 18.1713 8.52447 17.612 7.97647 17H5.99991Z" fill="#DC2340"/>
</svg>
