<svg width="100" height="100" viewBox="0 0 100 100" fill="none" xmlns="http://www.w3.org/2000/svg">
<g clip-path="url(#clip0_2001_1062)">
<path d="M89.9675 13.3022C89.3044 13.3024 88.6564 13.5003 88.1064 13.8707C87.5564 14.2411 87.1293 14.7671 86.8798 15.3815C86.6302 15.9958 86.5696 16.6707 86.7056 17.3197C86.8416 17.9687 87.1681 18.5624 87.6433 19.0249L88.6199 20.0014L87.6433 20.978C87.3234 21.2852 87.068 21.6531 86.892 22.0602C86.7161 22.4672 86.6231 22.9054 86.6186 23.3488C86.6141 23.7923 86.6981 24.2322 86.8658 24.6428C87.0334 25.0534 87.2813 25.4264 87.5949 25.74C87.9085 26.0536 88.2815 26.3015 88.6921 26.4691C89.1027 26.6367 89.5426 26.7208 89.986 26.7162C90.4295 26.7117 90.8676 26.6188 91.2747 26.4428C91.6818 26.2669 92.0497 26.0115 92.3569 25.6916L93.3334 24.715L94.31 25.6916C94.6171 26.0115 94.985 26.2669 95.3921 26.4428C95.7992 26.6188 96.2373 26.7117 96.6808 26.7162C97.1243 26.7208 97.5642 26.6367 97.9748 26.4691C98.3854 26.3015 98.7584 26.0536 99.072 25.74C99.3856 25.4264 99.6334 25.0534 99.8011 24.6428C99.9687 24.2322 100.053 23.7923 100.048 23.3488C100.044 22.9054 99.9507 22.4672 99.7748 22.0602C99.5988 21.6531 99.3434 21.2852 99.0235 20.978L98.047 20.0014L99.0235 19.0249C99.5052 18.5567 99.8342 17.9539 99.9674 17.2955C100.101 16.6371 100.032 15.9538 99.77 15.3352C99.5082 14.7166 99.0656 14.1915 98.5002 13.8287C97.9349 13.4659 97.2731 13.2824 96.6016 13.3022C95.7357 13.328 94.9137 13.69 94.31 14.3113L93.3334 15.2879L92.3569 14.3113C92.0462 13.992 91.6747 13.7382 91.2644 13.5649C90.854 13.3916 90.413 13.3023 89.9675 13.3022ZM80.0001 16.6681C75.6179 16.6681 70.0201 19.0705 62.5001 26.1994L61.0287 24.7345C59.1654 22.8712 56.1408 22.8712 54.2774 24.7345L52.3634 26.6486C48.0037 24.48 43.2026 23.346 38.3334 23.3348C29.9349 23.3348 21.8804 26.6711 15.9417 32.6097C10.003 38.5484 6.66675 46.6029 6.66675 55.0014C6.66675 63.4 10.003 71.4545 15.9417 77.3932C21.8804 83.3318 29.9349 86.6681 38.3334 86.6681C46.7319 86.6681 54.7865 83.3318 60.7251 77.3932C66.6638 71.4545 70.0001 63.4 70.0001 55.0014C69.9959 50.1267 68.8663 45.3186 66.6993 40.952L68.6003 39.0509C70.4637 37.1876 70.4637 34.163 68.6003 32.2996L67.2136 30.9194C73.9501 24.5893 78.1497 23.3348 80.0001 23.3348C80.4418 23.341 80.8803 23.2594 81.2902 23.0947C81.7001 22.93 82.0732 22.6855 82.3878 22.3753C82.7023 22.0652 82.9521 21.6956 83.1226 21.2881C83.2931 20.8805 83.3809 20.4432 83.3809 20.0014C83.3809 19.5597 83.2931 19.1224 83.1226 18.7148C82.9521 18.3073 82.7023 17.9377 82.3878 17.6276C82.0732 17.3174 81.7001 17.0729 81.2902 16.9082C80.8803 16.7435 80.4418 16.6619 80.0001 16.6681Z" fill="#DC2340"/>
</g>
<defs>
<clipPath id="clip0_2001_1062">
<rect width="100" height="100" fill="white"/>
</clipPath>
</defs>
</svg>
