<svg width="56" height="56" viewBox="0 0 56 56" fill="none" xmlns="http://www.w3.org/2000/svg">
<path d="M29 20.5C29 19.9477 28.5523 19.5 28 19.5C27.4477 19.5 27 19.9477 27 20.5L28 20.5L29 20.5ZM27 29.6667C27 30.219 27.4477 30.6667 28 30.6667C28.5523 30.6667 29 30.219 29 29.6667H28H27ZM32.0404 28.7071C32.431 28.3166 32.431 27.6834 32.0404 27.2929C31.6499 26.9024 31.0168 26.9024 30.6262 27.2929L31.3333 28L32.0404 28.7071ZM28.5893 30.7441L29.2964 31.4512V31.4512L28.5893 30.7441ZM25.3738 27.2929C24.9832 26.9024 24.3501 26.9024 23.9596 27.2929C23.569 27.6834 23.569 28.3166 23.9596 28.7071L24.6667 28L25.3738 27.2929ZM21.5 31.3333C21.5 30.781 21.0523 30.3333 20.5 30.3333C19.9477 30.3333 19.5 30.781 19.5 31.3333H20.5H21.5ZM36.5 31.3333C36.5 30.781 36.0523 30.3333 35.5 30.3333C34.9477 30.3333 34.5 30.781 34.5 31.3333H35.5H36.5ZM34.135 35.2275L34.589 36.1185H34.589L34.135 35.2275ZM35.2275 34.135L36.1185 34.589L36.1185 34.589L35.2275 34.135ZM20.7725 34.135L19.8815 34.589L19.8815 34.589L20.7725 34.135ZM21.865 35.2275L21.411 36.1185L21.411 36.1185L21.865 35.2275ZM28 20.5L27 20.5L27 29.6667H28H29V20.5L28 20.5ZM31.3333 28L30.6262 27.2929L27.8821 30.037L28.5893 30.7441L29.2964 31.4512L32.0404 28.7071L31.3333 28ZM27.4107 30.7441L28.1179 30.037L25.3738 27.2929L24.6667 28L23.9596 28.7071L26.7036 31.4512L27.4107 30.7441ZM28.5893 30.7441L27.8821 30.037C27.9472 29.9719 28.0528 29.9719 28.1179 30.037L27.4107 30.7441L26.7036 31.4512C27.4196 32.1671 28.5804 32.1671 29.2964 31.4512L28.5893 30.7441ZM20.5 31.3333H19.5V31.5H20.5H21.5V31.3333H20.5ZM24.5 35.5V36.5H31.5V35.5V34.5H24.5V35.5ZM35.5 31.5H36.5V31.3333H35.5H34.5V31.5H35.5ZM31.5 35.5V36.5C32.1836 36.5 32.7564 36.5008 33.2234 36.4626C33.7021 36.4235 34.1571 36.3386 34.589 36.1185L34.135 35.2275L33.681 34.3365C33.5781 34.389 33.4156 34.4403 33.0606 34.4693C32.6938 34.4992 32.2166 34.5 31.5 34.5V35.5ZM35.5 31.5H34.5C34.5 32.2166 34.4992 32.6939 34.4693 33.0606C34.4403 33.4156 34.389 33.5781 34.3365 33.681L35.2275 34.135L36.1185 34.589C36.3386 34.1571 36.4235 33.7021 36.4626 33.2234C36.5008 32.7564 36.5 32.1836 36.5 31.5H35.5ZM34.135 35.2275L34.589 36.1185C35.2475 35.783 35.783 35.2475 36.1185 34.589L35.2275 34.135L34.3365 33.681C34.1927 33.9632 33.9632 34.1927 33.681 34.3365L34.135 35.2275ZM20.5 31.5H19.5C19.5 32.1836 19.4992 32.7564 19.5374 33.2234C19.5765 33.7021 19.6614 34.1571 19.8815 34.589L20.7725 34.135L21.6635 33.681C21.611 33.5781 21.5597 33.4156 21.5307 33.0606C21.5008 32.6939 21.5 32.2166 21.5 31.5H20.5ZM24.5 35.5V34.5C23.7834 34.5 23.3062 34.4992 22.9394 34.4693C22.5844 34.4403 22.4219 34.389 22.319 34.3365L21.865 35.2275L21.411 36.1185C21.8429 36.3386 22.2979 36.4235 22.7766 36.4626C23.2436 36.5008 23.8164 36.5 24.5 36.5V35.5ZM20.7725 34.135L19.8815 34.589C20.217 35.2475 20.7525 35.783 21.411 36.1185L21.865 35.2275L22.319 34.3365C22.0368 34.1927 21.8073 33.9632 21.6635 33.681L20.7725 34.135Z" fill="white"/>
</svg>
