<svg width="56" height="56" viewBox="0 0 56 56" fill="none" xmlns="http://www.w3.org/2000/svg">
<path d="M28.0001 5.60001C15.6297 5.60001 5.6001 15.6296 5.6001 28C5.6001 40.3704 15.6297 50.4 28.0001 50.4C40.3705 50.4 50.4001 40.3704 50.4001 28C50.4001 15.6296 40.3705 5.60001 28.0001 5.60001ZM36.7865 34.1469C37.5164 34.8768 37.5164 36.0565 36.7865 36.7864C36.4225 37.1504 35.9446 37.3333 35.4668 37.3333C34.9889 37.3333 34.511 37.1504 34.147 36.7864L28.0001 30.6395L21.8532 36.7864C21.4892 37.1504 21.0113 37.3333 20.5334 37.3333C20.0556 37.3333 19.5777 37.1504 19.2137 36.7864C18.4838 36.0565 18.4838 34.8768 19.2137 34.1469L25.3606 28L19.2137 21.8531C18.4838 21.1232 18.4838 19.9435 19.2137 19.2136C19.9436 18.4837 21.1233 18.4837 21.8532 19.2136L28.0001 25.3605L34.147 19.2136C34.8769 18.4837 36.0566 18.4837 36.7865 19.2136C37.5164 19.9435 37.5164 21.1232 36.7865 21.8531L30.6396 28L36.7865 34.1469Z" fill="#DC2340"/>
</svg>
