<svg width="56" height="56" viewBox="0 0 56 56" fill="none" xmlns="http://www.w3.org/2000/svg">
<path d="M56 28.006C56 43.4748 43.4728 56 28.0085 56C12.5422 56 0 43.4748 0 28.006C0 12.5372 12.5422 0 28.0085 0C43.473 0 56 12.5372 56 28.006Z" fill="#EEF1F7"/>
<path d="M22.9459 36.3362C24.0011 37.6559 25.0758 39.3153 25.6382 40.3176C26.3231 41.6206 26.6071 42.5004 27.1166 44.0762C27.4145 44.9393 27.6985 45.201 28.2943 45.201C28.9458 45.201 29.2437 44.7611 29.472 44.0762C29.9481 42.5978 30.3156 41.473 30.8975 40.4011C33.1416 36.1692 36.8 33.1622 38.8603 29.0417C38.8603 29.0417 40.2162 26.5248 40.2162 23C40.2162 19.7147 38.8798 17.4316 38.8798 17.4316L22.9543 36.3641L22.9459 36.3362Z" fill="#34A853"/>
<path d="M17.5446 28.596C18.8281 31.5194 21.2754 34.0808 22.9459 36.336L31.7996 25.8396C31.7996 25.8396 30.5495 27.4767 28.2916 27.4767C25.7747 27.4767 23.7255 25.4721 23.7255 22.9385C23.7255 21.1956 24.764 19.9873 24.764 19.9873C18.249 20.9562 18.611 22.5348 17.5251 28.5904L17.5446 28.596Z" fill="#FBBC04"/>
<path d="M31.911 11.5488C34.8622 12.4982 37.3679 14.5001 38.8714 17.4234L31.7996 25.8595C31.7996 25.8595 32.8381 24.6456 32.8381 22.9083C32.8381 20.3218 30.6553 18.3701 28.2999 18.3701C26.0642 18.3701 24.7918 19.9877 24.7918 19.9877C25.3347 18.7515 30.9448 11.9692 31.9193 11.5516L31.911 11.5488Z" fill="#4285F4"/>
<path d="M19.1594 15.2598C20.919 13.1661 24.0039 11 28.2637 11C30.3212 11 31.8831 11.5457 31.8831 11.5457L24.7835 19.9818C24.3046 19.722 19.6327 16.0839 19.1594 15.2487V15.2598Z" fill="#1A73E8"/>
<path d="M17.5446 28.5955C17.5446 28.5955 16.3836 26.2902 16.3836 22.9714C16.3836 19.8253 17.6142 17.069 19.1678 15.2871L24.7918 20.0202L17.553 28.5955H17.5446Z" fill="#EA4335"/>
</svg>
