<svg width="70" height="70" viewBox="0 0 70 70" fill="none" xmlns="http://www.w3.org/2000/svg">
<g clip-path="url(#clip0_2001_919)">
<path d="M7.00003 11.6667C4.4217 11.6667 2.33336 13.7551 2.33336 16.3334V49.0001C2.02417 48.9957 1.71719 49.0528 1.43026 49.1681C1.14334 49.2834 0.882187 49.4546 0.661991 49.6717C0.441795 49.8888 0.266944 50.1475 0.1476 50.4328C0.028255 50.718 -0.0332031 51.0242 -0.0332031 51.3334C-0.0332031 51.6426 0.028255 51.9488 0.1476 52.234C0.266944 52.5193 0.441795 52.778 0.661991 52.9951C0.882187 53.2122 1.14334 53.3834 1.43026 53.4987C1.71719 53.614 2.02417 53.6711 2.33336 53.6667H7.00003H9.45185C10.0291 57.5994 13.4169 60.6667 17.5 60.6667C21.5832 60.6667 24.9709 57.5994 25.5482 53.6667H42H46.7852C47.3624 57.5994 50.7502 60.6667 54.8334 60.6667C58.9165 60.6667 62.3043 57.5994 62.8815 53.6667H67.6667C67.9759 53.6711 68.2829 53.614 68.5698 53.4987C68.8567 53.3834 69.1179 53.2122 69.3381 52.9951C69.5583 52.778 69.7331 52.5193 69.8525 52.234C69.9718 51.9488 70.0333 51.6426 70.0333 51.3334C70.0333 51.0242 69.9718 50.718 69.8525 50.4328C69.7331 50.1475 69.5583 49.8888 69.3381 49.6717C69.1179 49.4546 68.8567 49.2834 68.5698 49.1681C68.2829 49.0528 67.9759 48.9957 67.6667 49.0001V37.3334H53.6667V28.0001C53.6667 26.7121 54.712 25.6667 56 25.6667H62.6673L61.8789 23.8302C61.1439 22.1152 59.4572 21.0001 57.5905 21.0001H42V16.3334C42 13.7551 39.9117 11.6667 37.3334 11.6667H7.00003ZM17.5 49.0001C19.4607 49.0001 21 50.5394 21 52.5001C21 54.4607 19.4607 56.0001 17.5 56.0001C15.5394 56.0001 14 54.4607 14 52.5001C14 50.5394 15.5394 49.0001 17.5 49.0001ZM54.8334 49.0001C56.794 49.0001 58.3334 50.5394 58.3334 52.5001C58.3334 54.4607 56.794 56.0001 54.8334 56.0001C52.8727 56.0001 51.3334 54.4607 51.3334 52.5001C51.3334 50.5394 52.8727 49.0001 54.8334 49.0001Z" fill="#DC2340"/>
</g>
<defs>
<clipPath id="clip0_2001_919">
<rect width="70" height="70" fill="white"/>
</clipPath>
</defs>
</svg>
