<svg width="100" height="100" viewBox="0 0 100 100" fill="none" xmlns="http://www.w3.org/2000/svg">
<path d="M39.9999 10C36.3564 10 33.3333 13.0231 33.3333 16.6667V43.0729C27.4158 47.9621 23.3333 55.0732 23.3333 63.3333C23.3333 78.0215 35.3118 90 49.9999 90C64.688 90 76.6666 78.0215 76.6666 63.3333C76.6666 55.0732 72.584 47.9621 66.6666 43.0729V40H69.9999C70.4416 40.0062 70.8802 39.9246 71.2901 39.7599C71.7 39.5952 72.073 39.3507 72.3876 39.0405C72.7022 38.7304 72.9519 38.3608 73.1224 37.9533C73.2929 37.5458 73.3807 37.1084 73.3807 36.6667C73.3807 36.2249 73.2929 35.7876 73.1224 35.38C72.9519 34.9725 72.7022 34.6029 72.3876 34.2928C72.073 33.9827 71.7 33.7381 71.2901 33.5734C70.8802 33.4087 70.4416 33.3271 69.9999 33.3333H66.6666V26.6667H69.9999C70.4416 26.6729 70.8802 26.5913 71.2901 26.4266C71.7 26.2619 72.073 26.0173 72.3876 25.7072C72.7022 25.3971 72.9519 25.0275 73.1224 24.62C73.2929 24.2124 73.3807 23.7751 73.3807 23.3333C73.3807 22.8916 73.2929 22.4542 73.1224 22.0467C72.9519 21.6392 72.7022 21.2696 72.3876 20.9595C72.073 20.6493 71.7 20.4048 71.2901 20.2401C70.8802 20.0754 70.4416 19.9938 69.9999 20H66.6666V16.6667C66.6666 13.0231 63.6435 10 59.9999 10H39.9999ZM39.9999 16.6667H59.9999V22.7734C59.9404 23.1334 59.9404 23.5007 59.9999 23.8607V36.1068C59.9404 36.4667 59.9404 36.834 59.9999 37.194V45.9375L61.4257 46.9336C66.6087 50.552 69.9999 56.5168 69.9999 63.3333C69.9999 74.4185 61.0851 83.3333 49.9999 83.3333C38.9147 83.3333 29.9999 74.4185 29.9999 63.3333C29.9999 56.5168 33.3912 50.552 38.5741 46.9336L39.9999 45.9375V16.6667ZM46.6666 26.6667V50.4362C43.8066 51.1746 41.2728 52.8418 39.4629 55.1761C37.653 57.5104 36.6694 60.3796 36.6666 63.3333C36.6666 66.8696 38.0713 70.2609 40.5718 72.7614C43.0723 75.2619 46.4637 76.6667 49.9999 76.6667C53.5361 76.6667 56.9275 75.2619 59.428 72.7614C61.9285 70.2609 63.3333 66.8696 63.3333 63.3333C63.329 60.3807 62.3447 57.513 60.5349 55.18C58.7251 52.8471 56.1921 51.1809 53.3333 50.4427V26.6667H46.6666Z" fill="#DC2340"/>
</svg>
