<svg width="30" height="30" viewBox="0 0 30 30" fill="none" xmlns="http://www.w3.org/2000/svg">
<path d="M2.97813 14.1169C3.03477 14.0891 3.09145 14.0628 3.14668 14.0378C4.10684 13.6021 5.07974 13.1942 6.05123 12.7863C6.10363 12.7863 6.19141 12.7266 6.24097 12.7072C6.31603 12.6753 6.3911 12.6447 6.46615 12.6128C6.6106 12.5518 6.75506 12.4921 6.89809 12.4311C7.18699 12.3104 7.47445 12.1896 7.76335 12.0689C8.33973 11.8275 8.9161 11.5861 9.49248 11.3433C10.6452 10.8604 11.7994 10.3762 12.9522 9.89335C14.1049 9.4105 15.2591 8.92625 16.4119 8.44341C17.5646 7.96056 18.7188 7.47633 19.8715 6.99348C21.0243 6.51063 22.1785 6.02639 23.3313 5.54354C23.5876 5.43531 23.8651 5.27438 24.1399 5.2272C24.3707 5.18696 24.5959 5.10926 24.8281 5.06625C25.2685 4.98439 25.7543 4.95108 26.1763 5.13007C26.3222 5.1925 26.4567 5.27992 26.5686 5.38953C27.1039 5.90845 27.0288 6.76038 26.9155 7.4902C26.1267 12.5768 25.3379 17.6647 24.5477 22.7513C24.4401 23.4492 24.2928 24.2151 23.7306 24.6563C23.2548 25.0295 22.5778 25.0712 21.9901 24.913C21.4024 24.7534 20.8841 24.419 20.3757 24.0902C18.267 22.7221 16.157 21.3541 14.0483 19.986C13.547 19.6613 12.989 19.2367 12.9947 18.6471C12.9975 18.2919 13.2142 17.9755 13.4351 17.6938C15.2676 15.3518 17.9116 13.7422 19.8786 11.5084C20.1562 11.1934 20.3743 10.6246 19.9934 10.4428C19.7668 10.3346 19.5062 10.4816 19.2994 10.6218C16.6993 12.3908 14.1007 14.1613 11.5006 15.9303C10.6523 16.5075 9.76299 17.1014 8.74052 17.2429C7.82568 17.3706 6.90518 17.1208 6.02008 16.8655C5.27801 16.6518 4.53733 16.4326 3.79951 16.2065C3.40723 16.0871 3.00221 15.9581 2.69915 15.6875C2.39609 15.417 2.22192 14.9619 2.40461 14.6011C2.51932 14.375 2.74166 14.232 2.97533 14.1155L2.97813 14.1169Z" fill="white" fill-opacity="0.5"/>
</svg>
