<svg width="30" height="30" viewBox="0 0 30 30" fill="none" xmlns="http://www.w3.org/2000/svg">
<path d="M15 4C8.92525 4 4 8.92525 4 15C4 17.0636 4.57965 18.9876 5.56836 20.6379L4.09847 26L9.5752 24.5623C11.1769 25.473 13.0259 26 15 26C21.0748 26 26 21.0748 26 15C26 8.92525 21.0748 4 15 4ZM11.2349 9.86882C11.4136 9.86882 11.5973 9.86773 11.7559 9.87598C11.952 9.88056 12.1655 9.89493 12.37 10.3468C12.6129 10.884 13.1418 12.2316 13.2096 12.3682C13.2775 12.5047 13.3255 12.6657 13.2311 12.8444C13.1413 13.0277 13.0946 13.1387 12.9626 13.3009C12.826 13.4586 12.6763 13.6544 12.5526 13.7736C12.416 13.9102 12.275 14.0599 12.4326 14.3322C12.5903 14.6044 13.1378 15.4969 13.9473 16.2174C14.9877 17.1469 15.8655 17.4326 16.1387 17.5692C16.4118 17.7058 16.57 17.6845 16.7277 17.5011C16.89 17.3224 17.4091 16.709 17.5924 16.4359C17.7712 16.1627 17.9537 16.21 18.2012 16.2998C18.4523 16.3896 19.7918 17.0495 20.0649 17.186C20.3381 17.3226 20.5172 17.3902 20.5859 17.5011C20.6565 17.6157 20.6566 18.1612 20.4302 18.7974C20.2038 19.4326 19.0919 20.0469 18.5933 20.09C18.09 20.1368 17.6203 20.3162 15.3223 19.4115C12.5503 18.3197 10.8021 15.4805 10.6655 15.2972C10.5289 15.1185 9.5555 13.8211 9.5555 12.4827C9.5555 11.1398 10.2596 10.4822 10.5062 10.209C10.7574 9.93582 11.0515 9.86882 11.2349 9.86882Z" fill="white" fill-opacity="0.5"/>
</svg>
