<svg width="225" height="70" viewBox="0 0 225 70" fill="none" xmlns="http://www.w3.org/2000/svg">
<g clip-path="url(#clip0_2036_311)">
<path d="M144.999 20.0002L135.999 20.5002L143.559 21.9502V29.0602L139.009 31.0002C140.369 30.8302 146.469 34.6602 144.999 36.0002L135.999 32.0002C135.249 32.8002 137.709 38.0702 133.999 37.0002L133.489 32.0002L124.999 36.0002C123.909 32.1502 128.419 31.9402 130.989 31.0002L126.429 29.0602V21.9502L133.989 21.0002C134.219 19.2602 131.699 20.0302 130.499 20.0002C128.669 19.9602 126.819 20.0302 124.999 20.0002C124.829 18.9402 125.019 18.0602 125.969 17.4702C127.949 16.2502 139.609 16.5902 142.519 16.9802C144.139 17.1902 145.309 18.1602 144.989 20.0002H144.999ZM133.999 23.0002H128.999V23.9902H133.999V23.0002ZM140.999 23.0002H135.999V23.9902H140.999V23.0002ZM133.999 26.0002H128.999V27.9902C131.049 28.1302 133.359 28.3202 133.999 26.0002ZM140.999 26.0002H135.999V26.5002C137.249 28.2702 138.969 28.1402 140.999 28.0002V26.0002Z" fill="#DC2340"/>
<path d="M102.002 36V17H119.502L121.002 18.5V34.5L119.502 36H102.002ZM112.002 19C109.852 19.07 107.652 18.89 105.492 19C103.852 19.08 102.682 19.87 104.002 21C106.632 20.73 110.742 22.24 112.002 19.01V19ZM118.002 19H113.002V21C114.892 19.79 116.022 20.56 117.992 21V19H118.002ZM104.002 34H118.002L117.512 32.01L105.012 31.99C104.782 30.65 107.802 30.02 108.582 29.98C109.682 29.92 110.622 30.33 111.552 30.84L113.022 29.47L112.002 23L104.022 21.99V33.99L104.002 34ZM116.002 23H114.002V25.99H114.992L115.992 23H116.002ZM117.972 28.97L117.012 23L115.012 29.5L117.972 28.97Z" fill="#DC2340"/>
<path d="M158.991 16.0005L160.591 18.9005L167.991 19.0005C169.321 20.1305 168.141 20.9205 166.501 21.0005C163.011 21.1705 159.471 20.8705 155.991 21.0005C154.721 22.0805 155.811 22.9405 157.471 23.0005C160.441 23.1105 163.061 22.7105 165.901 24.0805C165.751 27.9205 167.691 35.1105 162.491 36.0005C160.081 36.4105 153.911 36.1505 157.471 33.0105L160.451 34.0605L163.491 32.0105L163.981 25.9905H154.981C155.491 29.5305 154.321 32.0405 152.221 34.7305C151.041 36.2405 151.661 36.3205 148.991 35.9905C149.361 32.6705 152.141 30.7205 152.771 27.2805C153.151 25.1905 152.991 23.0905 152.991 20.9905C152.261 20.2605 146.901 22.7005 147.991 18.9905L156.961 18.9505C157.091 16.8005 156.221 15.4505 158.981 15.9805L158.991 16.0005Z" fill="#DC2340"/>
<path d="M87.9902 16.0001L89.5902 18.9001L97.0002 19.0001V31.0101H87.9902C87.2702 31.7301 89.7002 37.1101 86.0002 36.0101V31.0101H77.9902V19.0001L85.9702 18.9701C86.1002 16.8201 85.2302 15.4701 87.9902 16.0001ZM86.0002 21.0001H79.9902V29.0101C81.7102 28.9201 84.5402 29.5601 85.5402 28.0601L85.9902 21.0001H86.0002ZM94.0002 21.0001C88.0102 19.8901 86.3502 23.5201 88.9502 28.5601L94.0002 29.0101V21.0001Z" fill="#DC2340"/>
<path d="M177.999 15.9898L178.079 18.9198L181.049 19.5298C180.199 21.9498 181.919 24.5998 181.919 26.4898C181.919 28.9698 180.089 32.8498 181.009 35.9898H176.009L179.059 33.3698L179.009 27.9898L176.019 31.9898L175.019 27.9898L172.519 36.9798L171.289 27.2998L172.089 19.0498L175.049 18.5098C176.369 17.6598 175.249 15.1298 178.019 15.9798L177.999 15.9898ZM178.999 20.9998L175.009 22.9998L178.999 24.9898V20.9898V20.9998ZM175.499 23.9998C174.849 23.9998 174.849 24.9998 175.499 24.9998C176.149 24.9998 176.149 23.9998 175.499 23.9998Z" fill="#DC2340"/>
<path d="M206.991 16.0098L207.581 18.0498L215.031 18.4698L215.991 21.4898C212.441 25.5498 214.051 19.8798 210.001 20.9998V24.9998C211.011 26.0198 216.341 21.8598 215.991 25.4998C214.391 27.8498 207.781 27.7698 207.111 25.3998C206.511 23.2998 208.351 20.2898 205.011 21.0098C204.641 25.3998 201.271 27.4698 197.001 27.0098C196.311 23.8198 200.751 24.8898 201.991 22.5098L199.491 20.9998L197.491 24.0098C194.881 22.2498 196.431 20.3998 197.081 18.1098L204.401 18.0698L204.991 16.0298H206.981L206.991 16.0098Z" fill="#DC2340"/>
<path d="M215.001 28C215.801 31.43 211.681 29.66 209.481 29.98C205.901 30.5 206.041 33.67 210.461 34.05C212.631 34.23 216.821 32.65 216.001 36.01H196.001C195.921 33.89 195.541 34.11 197.491 34.01C199.981 33.89 202.511 34.1 205.001 34.01L204.531 30.98L197.001 30.01L198.501 28.01H215.001V28Z" fill="#DC2340"/>
<path d="M116.001 50.0002V43.0002C117.131 41.6702 117.921 42.8502 118.001 44.4902C118.171 47.9802 117.881 51.5202 118.001 55.0002C116.341 56.8002 112.201 49.1202 111.501 48.0002C110.291 48.0502 112.501 55.9002 108.001 55.0002C108.261 52.9102 107.051 41.9302 109.501 42.0102L116.001 50.0002Z" fill="#DC2340"/>
<path d="M214.001 50.0002V43.0002C215.131 41.6702 215.921 42.8502 216.001 44.4902C216.171 47.9802 215.881 51.5202 216.001 55.0002C214.341 56.8002 210.201 49.1202 209.501 48.0002C208.291 48.0502 210.501 55.9002 206.001 55.0002C206.261 52.9002 205.051 41.9302 207.501 42.0102L214.001 50.0002Z" fill="#DC2340"/>
<path d="M189.992 23.0195L190.002 33.9995L193.002 31.9995V35.9995H188.002L187.502 24.9995L185.062 33.5595L182.002 35.9995L183.042 23.0495L189.992 23.0195Z" fill="#DC2340"/>
<path d="M202.918 43.07L203.978 53.51L201.988 54.51L200.058 50.43L195.988 50C195.238 50.81 197.698 56.07 193.988 55V43L202.908 43.07H202.918ZM200.998 45H195.998V46.49L197.608 47.89L200.998 48V45Z" fill="#DC2340"/>
<path d="M168.961 43.0596L169.001 45.9996L163.011 45.4996L169.551 48.9496C171.161 51.3396 169.181 54.7096 166.491 55.0496L161.041 53.9496L161.011 51.0096C163.831 51.1196 165.291 55.1396 168.001 51.5096L161.471 48.0496L161.101 43.0896C164.051 41.7296 166.011 41.8596 168.981 43.0596H168.961Z" fill="#DC2340"/>
<path d="M93.0209 46.9906L98.0109 47.0106C98.2109 44.9606 96.8509 42.3206 100.001 43.0106V55.0106C96.1709 56.1406 98.8209 49.8206 98.0109 49.0106H93.0009C93.8309 50.6606 92.2209 57.0706 90.4909 54.0206C89.7309 52.6706 89.6509 45.1906 90.0709 43.5906C91.0009 40.0406 94.1309 44.4206 93.0109 47.0006L93.0209 46.9906Z" fill="#DC2340"/>
<path d="M192.001 43.0002L185.001 45.5002L191.001 48.4902L184.991 49.0002V52.0002L191.981 53.5002C191.921 55.3302 185.381 55.5202 183.931 54.5502L182.981 42.9902H191.981L192.001 43.0002Z" fill="#DC2340"/>
<path d="M88.0015 47.0001C83.9615 43.9101 78.2515 44.0001 80.1515 50.3501C81.7515 55.6901 87.0415 50.1001 88.0015 51.0001C88.1815 55.7301 80.2315 56.5101 78.4915 53.0101C77.5715 51.1601 77.4715 44.9601 78.9915 43.4801C81.9315 40.6101 88.8515 42.1001 88.0115 47.0001H88.0015Z" fill="#DC2340"/>
<path d="M159 54.9998L155.39 51.9598L151.14 52.1498L150.01 54.5098L148.02 53.5098C150.38 49.8798 149.89 44.7798 153.51 42.0098C155.54 41.9898 159.23 52.6598 159.01 54.9998H159ZM155 49.9998L154 46.0098H153.01L152.01 49.9998H155.01H155Z" fill="#DC2340"/>
<path d="M146 43.0005C147.08 46.8505 141.01 44.1505 140 45.0005C139.15 49.0005 145.09 45.2005 146 48.9905H140V51.9905L146.99 53.4905C144.81 56.2005 140.94 54.6205 138 54.9905V42.9805H146V43.0005Z" fill="#DC2340"/>
<path d="M130 55.0003C127.82 53.6703 125.83 50.4103 122.92 52.4503C121.76 53.2703 122.77 55.8603 120 54.9903L122.98 43.6603L125.5 42.0103C126.75 41.9203 131.03 52.9403 129.99 54.9903L130 55.0003ZM127 50.0003L126 46.0003C125.64 45.6003 124.54 46.9803 124.01 47.5003V49.9903H127.01L127 50.0003Z" fill="#DC2340"/>
<path d="M181 43L177.08 45.07C176.82 47.86 177.139 50.7 177.009 53.51C176.929 55.14 176.139 56.32 175.009 55V45C172.969 44.81 170.329 46.16 171.009 43.01H181.009L181 43Z" fill="#DC2340"/>
<path d="M188.128 18.8607C189.498 19.7907 192.818 17.4707 191.998 21.0007H181.998C181.448 18.1207 182.948 19.2407 184.918 18.9307L184.998 16.0007C187.178 15.6007 187.528 17.2307 188.128 18.8607Z" fill="#DC2340"/>
<path d="M105 55C103.87 56.33 103.08 55.15 103 53.51C102.83 50.08 102.11 44.6 104.5 42L105 55Z" fill="#DC2340"/>
<path d="M59 13C56.25 15.03 52.47 15.44 49.31 16.81C39.34 21.11 29.89 27.57 25.01 37.51L31.73 34.23C41.71 30.66 52.47 29.35 63 29.01C62.67 30.87 60.97 30.73 59.62 31.13C54.09 32.74 48.55 33.19 43 35.51C40.07 36.74 35.05 39.05 34.97 42.53C34.9 45.72 44.18 47.73 46.77 48.73C47.69 49.09 50.35 49.4 49.5 50.99L36.71 48.78L25 44.49C28.31 51.67 34.77 54.02 40.99 57.99H28.99C27.3 56.41 24.99 57.14 22.62 55.86C15.49 52 11.4 40.86 8 34V33L16.04 32.54C21.05 26.08 25.08 18.68 31 13H59Z" fill="#DC2340"/>
<path d="M117.968 28.97L115.008 29.5L116.998 23L117.968 28.97Z" fill="white"/>
<path d="M105 24H111.01V29.01H105V24ZM109 25H107.51L106 26.99H109V25Z" fill="#DC2340"/>
</g>
<defs>
<clipPath id="clip0_2036_311">
<rect width="209" height="45" fill="white" transform="translate(8 13)"/>
</clipPath>
</defs>
</svg>
