<svg width="100" height="100" viewBox="0 0 100 100" fill="none" xmlns="http://www.w3.org/2000/svg">
<path d="M25.3905 13.3333C22.8724 13.3333 20.5509 14.7702 19.427 17.0247L13.3333 29.2122V29.9999V39.9999V79.9999C13.3333 83.6833 16.3166 86.6666 19.9999 86.6666H79.9999C83.6833 86.6666 86.6666 83.6833 86.6666 79.9999V39.9999V29.9999V29.2122L80.5663 17.0181C79.4408 14.7685 77.1242 13.3333 74.6093 13.3333H25.3905ZM25.3971 19.9999H74.6028L79.6028 29.9999H20.3971L25.3971 19.9999ZM39.9999 36.6666H59.9999C61.8399 36.6666 63.3333 38.1599 63.3333 39.9999C63.3333 41.8399 61.8399 43.3333 59.9999 43.3333H39.9999C38.1599 43.3333 36.6666 41.8399 36.6666 39.9999C36.6666 38.1599 38.1599 36.6666 39.9999 36.6666Z" fill="#142637"/>
</svg>
