<svg width="70" height="70" viewBox="0 0 70 70" fill="none" xmlns="http://www.w3.org/2000/svg">
<path d="M23.6296 9.37437C22.2188 9.19051 20.767 9.65754 19.724 10.7005L18.6667 11.7578L27.3256 19.2455L36.9916 15.4082L25.0104 9.77541C24.5654 9.566 24.0999 9.43566 23.6296 9.37437ZM58.3334 11.6667C57.5985 11.6665 56.874 11.8398 56.2188 12.1725L16.3334 28L12.168 24.3314C10.9803 23.2837 9.27313 23.0639 7.8568 23.7709L7.00003 24.1992L11.9948 34.3757C12.3378 35.2471 12.9349 35.9951 13.7086 36.5226C14.4824 37.0501 15.3969 37.3326 16.3334 37.3334C17.0174 37.3312 17.6926 37.1788 18.3112 36.8867L33.9883 30.7982L32.6667 49H34.166C36.133 49 37.8897 47.7651 38.5547 45.9147L45.6367 26.2728L60.0241 20.681C60.0332 20.678 60.0424 20.675 60.0515 20.6719V20.6673C60.9204 20.3233 61.666 19.7262 62.1917 18.9535C62.7175 18.1807 62.999 17.268 63 16.3334C63 15.0957 62.5084 13.9087 61.6332 13.0335C60.758 12.1584 59.571 11.6667 58.3334 11.6667ZM9.33336 56C9.02417 55.9956 8.71719 56.0528 8.43026 56.1681C8.14334 56.2834 7.88219 56.4545 7.66199 56.6716C7.44179 56.8887 7.26694 57.1475 7.1476 57.4327C7.02825 57.718 6.9668 58.0241 6.9668 58.3334C6.9668 58.6426 7.02825 58.9487 7.1476 59.234C7.26694 59.5193 7.44179 59.778 7.66199 59.9951C7.88219 60.2122 8.14334 60.3833 8.43026 60.4986C8.71719 60.6139 9.02417 60.6711 9.33336 60.6667H60.6667C60.9759 60.6711 61.2829 60.6139 61.5698 60.4986C61.8567 60.3833 62.1179 60.2122 62.3381 59.9951C62.5583 59.778 62.7331 59.5193 62.8525 59.234C62.9718 58.9487 63.0333 58.6426 63.0333 58.3334C63.0333 58.0241 62.9718 57.718 62.8525 57.4327C62.7331 57.1475 62.5583 56.8887 62.3381 56.6716C62.1179 56.4545 61.8567 56.2834 61.5698 56.1681C61.2829 56.0528 60.9759 55.9956 60.6667 56H9.33336Z" fill="#DC2340"/>
</svg>
