<svg width="44" height="44" viewBox="0 0 44 44" fill="none" xmlns="http://www.w3.org/2000/svg">
<path d="M3 19.5C1.61929 19.5 0.5 20.6193 0.5 22C0.5 23.3807 1.61929 24.5 3 24.5L3 22L3 19.5ZM42.7678 23.7678C43.7441 22.7915 43.7441 21.2085 42.7678 20.2322L26.8579 4.32233C25.8816 3.34602 24.2986 3.34602 23.3223 4.32233C22.346 5.29864 22.346 6.88155 23.3223 7.85786L37.4645 22L23.3223 36.1421C22.346 37.1184 22.346 38.7014 23.3223 39.6777C24.2986 40.654 25.8816 40.654 26.8579 39.6777L42.7678 23.7678ZM3 22L3 24.5L41 24.5L41 22L41 19.5L3 19.5L3 22Z" fill="#DC2340"/>
</svg>
