<svg width="113" height="113" viewBox="0 0 113 113" fill="none" xmlns="http://www.w3.org/2000/svg">
<path d="M52.7334 11.3C48.5713 11.3 45.2001 14.6712 45.2001 18.8334H15.0668C10.9046 18.8334 7.53345 22.2045 7.53345 26.3667V60.2667C7.53345 64.4289 10.9046 67.8 15.0668 67.8H97.9334C102.096 67.8 105.467 64.4289 105.467 60.2667V26.3667C105.467 22.2045 102.096 18.8334 97.9334 18.8334H67.8001C67.8001 14.6712 64.4289 11.3 60.2668 11.3H52.7334ZM56.5001 52.7334C58.5793 52.7334 60.2668 54.4208 60.2668 56.5C60.2668 58.5792 58.5793 60.2667 56.5001 60.2667C54.4209 60.2667 52.7334 58.5792 52.7334 56.5C52.7334 54.4208 54.4209 52.7334 56.5001 52.7334ZM7.53345 73.2367V86.6334C7.53345 90.7955 10.9046 94.1667 15.0668 94.1667H97.9334C102.096 94.1667 105.467 90.7955 105.467 86.6334V73.2367C103.241 74.5324 100.691 75.3334 97.9334 75.3334H15.0668C12.3096 75.3334 9.75955 74.5324 7.53345 73.2367Z" fill="white"/>
</svg>
