<svg width="30" height="30" viewBox="0 0 30 30" fill="none" xmlns="http://www.w3.org/2000/svg">
<path d="M19.8711 9.26373C20.0803 9.055 20.4189 9.05496 20.628 9.26373C20.8372 9.47294 20.8372 9.81234 20.628 10.0215L15.7042 14.9464L20.628 19.8702C20.8372 20.0794 20.8372 20.4188 20.628 20.628C20.4188 20.8372 20.0794 20.8372 19.8702 20.628L14.9463 15.7042L10.0215 20.628C9.81233 20.8372 9.47294 20.8372 9.26373 20.628C9.05483 20.4188 9.05462 20.0793 9.26373 19.8702L14.1885 14.9464L9.26373 10.0215C9.05474 9.81233 9.0546 9.47287 9.26373 9.26373C9.47287 9.0546 9.81231 9.05474 10.0215 9.26373L14.9463 14.1885L19.8711 9.26373Z" fill="#DC2340"/>
</svg>
