<svg width="24" height="24" viewBox="0 0 24 24" fill="none" xmlns="http://www.w3.org/2000/svg">
<g opacity="0.1">
<path d="M8.79995 1.6001C7.91595 1.6001 7.19995 2.3161 7.19995 3.2001V16.0001C7.19995 16.8841 7.91595 17.6001 8.79995 17.6001H19.2C20.084 17.6001 20.8 16.8841 20.8 16.0001V6.8001C20.8 6.5881 20.716 6.38487 20.5656 6.23447L16.1656 1.83447C16.0152 1.68407 15.812 1.6001 15.6 1.6001H8.79995ZM15.2 3.12354L19.2765 7.2001H16C15.5584 7.2001 15.2 6.8417 15.2 6.4001V3.12354ZM4.79995 5.6001C3.91595 5.6001 3.19995 6.3161 3.19995 7.2001V20.0001C3.19995 20.8841 3.91595 21.6001 4.79995 21.6001H15.2C16.084 21.6001 16.8 20.8841 16.8 20.0001V19.2001H8.79995C7.03515 19.2001 5.59995 17.7649 5.59995 16.0001V5.6001H4.79995Z" fill="#142637"/>
</g>
</svg>
