<svg width="100" height="100" viewBox="0 0 100 100" fill="none" xmlns="http://www.w3.org/2000/svg">
<path d="M10.0001 16.6667C8.16008 16.6667 6.66675 18.1601 6.66675 20.0001V73.3334C6.66675 74.8867 7.75279 76.134 9.19279 76.504L30.0001 82.5131V22.3634L11.3152 16.8881C10.8752 16.7481 10.4667 16.6667 10.0001 16.6667ZM63.3334 17.2852L36.6667 22.6628V82.6563L63.3334 77.3308V17.2852ZM70.0001 17.5001V77.6433L88.9389 83.1186C89.2755 83.2319 89.6234 83.3334 90.0001 83.3334C91.8401 83.3334 93.3334 81.8401 93.3334 80.0001V26.6667C93.3334 25.0834 92.1992 23.9332 90.7292 23.4832L70.0001 17.5001Z" fill="#DC2340"/>
</svg>
