<svg width="30" height="30" viewBox="0 0 30 30" fill="none" xmlns="http://www.w3.org/2000/svg">
<path fill-rule="evenodd" clip-rule="evenodd" d="M15.2364 25.9372C13.0773 25.9372 12.074 25.6207 10.33 24.3545C9.22682 25.7789 5.73352 26.8922 5.58118 24.9876C5.58118 23.5578 5.26599 22.3496 4.90878 21.0306C4.48328 19.4057 4 17.596 4 14.9739C4 8.71139 9.11651 4 15.1786 4C21.2459 4 25.9999 8.94353 25.9999 15.0319C26.0203 21.0262 21.2046 25.9052 15.2364 25.9372ZM15.3257 9.41308C12.3734 9.26008 10.0726 11.3124 9.56302 14.5307C9.14277 17.195 9.88871 20.4397 10.5243 20.6086C10.829 20.6824 11.596 20.0599 12.074 19.5798C12.8644 20.1282 13.7849 20.4576 14.7426 20.5347C17.8016 20.6825 20.4154 18.3435 20.6208 15.2746C20.7403 12.1992 18.3851 9.59435 15.3257 9.41836L15.3257 9.41308Z" fill="white"/>
</svg>
