<svg width="100" height="100" viewBox="0 0 100 100" fill="none" xmlns="http://www.w3.org/2000/svg">
<path d="M48.9974 5.33203V7.33073H50H51.0026V5.33203H48.9974ZM50 7.33073C49.8682 7.33039 49.7377 7.35608 49.6159 7.40635C49.4941 7.45661 49.3835 7.53045 49.2903 7.62362C49.1971 7.71679 49.1233 7.82745 49.073 7.94925C49.0228 8.07104 48.9971 8.20157 48.9974 8.33333C48.9971 8.46509 49.0228 8.59562 49.073 8.71742C49.1233 8.83922 49.1971 8.94988 49.2903 9.04305C49.3835 9.13622 49.4941 9.21005 49.6159 9.26032C49.7377 9.31058 49.8682 9.33628 50 9.33594C50.1318 9.33628 50.2623 9.31058 50.3841 9.26032C50.5059 9.21005 50.6165 9.13622 50.7097 9.04305C50.8029 8.94988 50.8767 8.83922 50.927 8.71742C50.9772 8.59562 51.0029 8.46509 51.0026 8.33333C51.0029 8.20157 50.9772 8.07104 50.927 7.94925C50.8767 7.82745 50.8029 7.71679 50.7097 7.62362C50.6165 7.53045 50.5059 7.45661 50.3841 7.40635C50.2623 7.35608 50.1318 7.33039 50 7.33073ZM48.0599 9.44661C44.9199 9.80995 43.9974 11.0641 43.9974 12.3307C43.9974 13.5807 46.0026 16.0807 46.0026 16.0807V17.3307C45.0026 19.3307 43.2526 20.332 41.0026 20.332C41.0026 20.332 41.9987 18.7041 41.9987 17.3307C41.9987 16.1106 40.7205 15.5295 38.9974 15.3776C38.9863 15.1206 38.8767 14.8777 38.6911 14.6995C38.5056 14.5212 38.2586 14.4213 38.0013 14.4206C37.7429 14.4197 37.4942 14.5188 37.3073 14.6972C37.1204 14.8756 37.0098 15.1195 36.9987 15.3776C35.2756 15.5295 33.9974 16.1106 33.9974 17.3307C33.9974 18.7074 35 20.332 35 20.332V21.3346H41.0026C46.0026 21.3346 47.7513 19.0807 48.0013 17.3307H50H51.9987C52.2487 19.0807 53.9974 21.3346 58.9974 21.3346H65V20.332C65 20.332 66.0026 18.7074 66.0026 17.3307C66.0026 16.1074 64.7183 15.5276 62.9883 15.3776L61.9987 19.3359L61.0156 15.3776C59.2856 15.5276 58.0013 16.1074 58.0013 17.3307C58.0013 18.7041 58.9974 20.332 58.9974 20.332C56.7474 20.332 54.9974 19.3307 53.9974 17.3307V16.0807C53.9974 16.0807 56.0026 13.5807 56.0026 12.3307C56.0026 11.0641 55.0801 9.80995 51.9401 9.44661L50 15.332L48.0599 9.44661ZM38.0013 14.4206H38.9974V12.4219H36.9987V14.4206H38.0013ZM72.0964 10.7357C71.953 10.7357 71.5169 10.9961 71.5169 10.9961C71.5169 10.9961 69.4809 12.3174 69.1276 12.4674C66.9509 13.7174 69.7461 15.5945 69.7461 18.1445C69.7461 20.2612 67.0964 21.3216 67.0964 21.3216C70.273 21.3216 71.3346 20.2639 71.3346 17.6172C71.3346 16.3305 70.0113 14.9682 71.3346 12.8516C72.198 13.2549 75.0391 14.9674 75.0391 14.9674C75.0391 14.9674 75.5729 15.2356 75.5729 16.2956C75.5729 17.1689 74.8551 17.9915 74.5117 18.4115C73.9184 19.1248 73.4505 19.7707 73.4505 20.5273C73.4505 21.3207 73.7817 21.8132 74.5117 22.6432C74.9751 23.1732 76.4629 24.5666 75.5729 25.5599C77.4996 24.6032 77.4679 23.0828 76.8945 22.3828C76.8945 22.3828 76.3609 21.8516 76.6276 21.3216H79.8047C79.8047 21.3216 79.8035 20.5235 78.7435 19.9935C77.6768 19.4602 77.6823 19.2956 77.6823 18.9323C77.6823 18.669 77.6884 18.531 78.2617 18.0143C78.6884 17.6843 79.1195 17.0964 79.0495 16.3997C78.8361 14.6297 77.1758 14.3116 75.5924 14.1016C75.0424 13.5049 74.3235 12.5503 74.1602 12.3503C73.6968 11.6903 72.9164 10.6257 72.0964 10.7357ZM61.0026 11.3346V13.3333H61.9271C61.6747 13.3524 61.439 13.4665 61.2674 13.6526C61.0959 13.8387 61.0012 14.0829 61.0026 14.3359C61.0036 14.5998 61.1089 14.8526 61.2955 15.0391C61.4821 15.2257 61.7348 15.331 61.9987 15.332C62.2637 15.3327 62.5181 15.2282 62.7061 15.0414C62.8941 14.8547 63.0003 14.6009 63.0013 14.3359C63.0016 14.2042 62.9759 14.0736 62.9257 13.9519C62.8754 13.8301 62.8016 13.7194 62.7084 13.6262C62.6152 13.5331 62.5046 13.4592 62.3828 13.409C62.261 13.3587 62.1305 13.333 61.9987 13.3333H63.0013V11.3346H61.0026ZM29.2839 12.4284C28.5072 12.3251 27.7609 13.3317 27.3242 13.9583C27.1676 14.145 26.4966 15.0486 25.9766 15.612C24.4766 15.812 22.9083 16.1066 22.7083 17.7799C22.6417 18.4399 23.0472 18.9966 23.4505 19.3099C23.9905 19.7932 23.9974 19.9258 23.9974 20.1758C23.9974 20.5191 24.0013 20.6719 23.0013 21.1719C22.0013 21.6719 21.9987 22.4219 21.9987 22.4219H25C25.25 22.9219 24.7526 23.4245 24.7526 23.4245C24.2126 24.0845 24.1826 25.5224 26.0026 26.4258C25.1593 25.4891 26.562 24.1719 26.9987 23.6719C27.6854 22.8852 28.0013 22.4232 28.0013 21.6732C28.0013 20.9598 27.5587 20.3478 26.9987 19.6745C26.6754 19.2778 26.0026 18.5024 26.0026 17.6758C26.0026 16.6758 26.4974 16.4258 26.4974 16.4258C26.4974 16.4258 29.1867 14.8039 30 14.4206C31.25 16.4206 30 17.7091 30 18.9258C30 21.4258 30.9974 22.4219 33.9974 22.4219C33.9974 22.4219 31.4974 21.4206 31.4974 19.4206C31.4974 17.0139 34.1335 15.2425 32.0768 14.0625C31.7435 13.9225 29.8242 12.6758 29.8242 12.6758C29.8242 12.6758 29.4172 12.4284 29.2839 12.4284ZM37.1615 15.9635C37.2515 16.1048 37.3756 16.2211 37.5224 16.3019C37.6691 16.3826 37.8338 16.4252 38.0013 16.4258C38.1642 16.4259 38.3247 16.3863 38.4688 16.3102C38.6129 16.2342 38.7363 16.1241 38.8281 15.9896L38.0013 19.3359L37.1615 15.9635ZM86.0026 18.418C86.0026 18.418 82.2626 23.5565 76.0026 30.4232C72.2559 34.5365 68.0013 37.6485 68.0013 39.9219C68.0013 42.1719 70 41.9219 70 43.6719C70 44.9219 68.5026 46.4193 66.0026 46.4193H62.2266C62.1866 46.3859 62.1429 46.3518 62.1029 46.3151C63.2862 45.2684 63.9974 43.0552 63.9974 42.4219C61.4974 42.4219 57.9948 41.918 57.9948 38.418C57.9948 33.918 61.352 31.0339 61.9987 30.6706C62.1354 30.5772 62.3205 30.5065 62.4805 30.4232C63.5205 30.5298 64.6281 31.0796 65.4948 32.3763C65.7448 32.1263 65.9794 31.7037 65.9961 31.3737C66.0161 31.0304 65.7515 30.5878 65.4948 30.3711C65.1915 30.0911 64.8678 29.8607 64.5378 29.694C65.2811 29.5273 66.0448 29.4206 66.7448 29.4206C68.4948 29.4206 69.2448 30.4232 69.2448 30.4232C69.2448 30.4232 70 29.9219 70 28.6719C70 27.1719 68.0026 26.4258 66.0026 26.4258C66.0026 25.3224 65.1007 24.4206 63.9974 24.4206H53.9974C54.9974 26.4206 56.0026 26.4258 56.0026 26.4258C56.0026 26.4258 54.34 28.1324 53.75 28.9258C53.0567 29.8524 50.1962 33.4598 50.0195 41.6732H49.9805C49.8071 33.4598 46.9433 29.8524 46.25 28.9258C45.66 28.1358 43.9974 26.4258 43.9974 26.4258C43.9974 26.4258 45.0026 26.4206 46.0026 24.4206H36.0026C34.8993 24.4206 33.9974 25.3224 33.9974 26.4258C31.9974 26.4258 30 27.1719 30 28.6719C30 29.9219 30.7487 30.4232 30.7487 30.4232C30.7487 30.4232 31.4987 29.4206 33.2487 29.4206C33.9487 29.4206 34.7157 29.5273 35.4557 29.694C35.1224 29.8607 34.7987 30.0976 34.4987 30.3776C34.242 30.5943 33.9774 31.0304 33.9974 31.3737C34.0141 31.7037 34.2487 32.1263 34.4987 32.3763C35.3654 31.0796 36.4795 30.5265 37.5195 30.4232C37.6829 30.5065 37.8646 30.5772 38.0013 30.6706C38.648 31.0339 41.9987 33.9245 41.9987 38.4245C41.9987 41.9245 38.5026 42.4219 36.0026 42.4219C36.0026 43.0785 36.7513 45.4258 38.0013 46.4258H33.9974C31.4974 46.4258 30 44.9219 30 43.6719C30 41.9219 31.9987 42.1719 31.9987 39.9219C31.9987 37.6485 28.2454 34.7839 24.4987 30.6706C18.2387 23.8039 13.9974 18.4245 13.9974 18.4245C13.9974 18.4245 11.9987 19.6719 11.9987 22.4219C11.9987 27.4219 26.4974 37.4219 26.4974 37.4219L25.2474 38.6719C23.4974 37.9219 14.2526 33.1745 11.0026 28.4245C11.0026 28.4245 10 29.1732 10 31.6732C10 36.1732 20.2526 39.6706 24.7526 40.6706L23.9974 42.4219C23.9974 42.4219 16.25 41.6745 10 38.4245C10 39.1745 10.0026 41.4206 12.2526 43.1706C14.7793 45.1372 19.2487 45.1758 20.7487 45.1758C24.212 45.1758 24.7526 44.9219 24.7526 44.9219L25.2474 46.4258C25.2474 46.4258 23.4816 47.5255 20.4883 48.1055L20.3646 48.125C20.6712 48.4917 20.9926 48.9222 21.2826 49.4922C21.3392 49.5955 21.3956 49.7079 21.4323 49.8112C21.7356 50.4379 21.8196 51.0824 21.8229 51.7057C24.4029 50.7491 26.0026 49.1732 26.0026 49.1732L26.9987 50.9245C26.9987 50.9245 26.4707 52.0025 23.9974 53.9258C23.3541 54.4291 22.5896 54.8228 21.8229 55.1628C22.0262 55.6361 22.055 56.167 21.875 56.6536C21.695 57.1303 21.3257 57.5012 20.8724 57.7279L21.1393 58.2747C21.5493 58.3614 21.9867 58.4278 22.5 58.4245C23.7667 58.4145 24.7067 58.1578 26.25 57.1745C29 55.4245 30 52.4219 30 52.4219L31.9987 52.9232C31.9987 52.9232 31.5026 58.4219 26.0026 61.1719C26.0026 61.1719 27.0026 62.4219 29.7526 62.4219C34.5026 62.4219 33.9974 54.4206 33.9974 54.4206C33.9974 54.4206 38.0013 54.6745 38.0013 58.4245V62.4219C38.0013 63.6719 36.7526 64.4206 36.0026 64.4206C34.0026 64.4206 31.9987 65.6745 31.9987 68.4245C31.9987 72.1745 35.7487 74.9219 35.7487 74.9219L31.25 76.4258H29.8177C29.4044 75.2625 28.302 74.4206 26.9987 74.4206C26.9129 74.4206 26.8418 74.4656 26.7578 74.4727L17.9883 56.3672C18.3125 56.494 18.6257 56.5634 18.8411 56.4648C19.5445 56.1448 20 55.9505 20 55.9505L19.1471 54.2057C19.1471 54.2057 20.3538 52.161 19.5638 50.5143C19.5571 50.4977 19.5444 50.4951 19.5378 50.4818C19.5344 50.4751 19.5312 50.4754 19.5312 50.4688C18.9146 49.2288 18.0869 48.6822 18.0469 48.6589C18.0435 48.6589 17.7214 48.444 17.7214 48.444L16.7643 51.0156C16.6677 50.6623 16.1335 49.1611 13.0469 48.4245C11.6002 51.2211 12.4823 52.5711 12.6823 52.8711L10.0195 51.9466C10.0195 51.9466 9.88417 53.3611 10.5208 54.6745C11.3175 56.3278 13.7109 56.6797 13.7109 56.6797L14.5638 58.4245C14.5638 58.4245 14.9672 58.2432 15.6706 57.9232C15.8979 57.8202 16.0407 57.5125 16.1523 57.1615L24.9219 75.2669C24.3555 75.8127 23.9974 76.5734 23.9974 77.4219C23.9974 79.0785 25.342 80.4232 26.9987 80.4232C27.135 80.4232 27.253 80.3713 27.3828 80.3516L28.112 81.862C28.2853 82.2186 28.6371 82.4219 29.0104 82.4219C29.1571 82.4219 29.3098 82.3942 29.4531 82.3242C29.9498 82.0842 30.1554 81.4863 29.9154 80.9896L29.349 79.8177L38.5482 76.8425C39.4048 76.5958 40 75.8054 40 74.9154V73.4245C40 70.4245 41.2474 68.4245 43.9974 68.4245C46.2474 68.4245 48.0013 72.4206 48.0013 74.4206C48.0013 74.4206 40.7493 76.1734 38.6393 79.7201C38.146 80.5501 38.0013 81.1712 38.0013 81.8945C38.0013 83.6712 39.4336 84.4531 39.4336 84.4531C40.6436 81.4665 44.7513 77.1719 48.0013 76.1719C46.238 77.7652 42.5 82.1611 42.5 84.6745C42.5 88.4211 45.2474 88.418 45.2474 88.418C45.2474 85.268 46.7259 80.0739 48.5026 78.1706C48.2526 80.4206 48.0013 84.1659 48.0013 86.4193C48.0013 89.4193 50 90.4232 50 90.4232C50 90.4232 51.9987 89.4193 51.9987 86.4193C51.9987 84.1659 51.7474 80.4206 51.4974 78.1706C53.2741 80.0739 54.7526 85.268 54.7526 88.418C54.7526 88.418 57.5 88.418 57.5 84.668C57.5 82.1546 53.762 77.7652 51.9987 76.1719C55.2487 77.1719 59.3564 81.4698 60.5664 84.4531C60.5664 84.4531 61.9987 83.6712 61.9987 81.8945C61.9987 81.1712 61.854 80.5435 61.3607 79.7135C59.2507 76.1702 51.9987 74.4206 51.9987 74.4206C51.9987 72.4206 53.7526 68.4245 56.0026 68.4245C58.7526 68.4245 60 70.4245 60 73.4245V74.9154C60 75.8087 60.5952 76.5958 61.4518 76.8425L71.3542 79.668C73.1075 80.168 74.9248 80.4232 76.7448 80.4232C76.7448 80.4232 76.7383 80.4038 76.7383 80.3971C76.8249 80.4005 76.9087 80.4232 76.9987 80.4232C79.4154 80.4232 81.4312 78.7091 81.8945 76.4258H78.0013H76.0026H72.1289C72.1556 76.5391 72.1705 76.6543 72.2005 76.7643L71.0026 77.1745L64.2513 74.9219C64.2513 74.9219 68.0013 72.1745 68.0013 68.4245C68.0013 65.6745 65.9974 64.4206 63.9974 64.4206C63.2474 64.4206 61.9987 63.6719 61.9987 62.4219V58.4245C61.9987 54.6745 66.0026 54.4206 66.0026 54.4206C66.0026 54.4206 65.4974 62.4219 70.2474 62.4219C72.9974 62.4219 73.9974 61.1719 73.9974 61.1719C69.9907 59.1685 68.6496 55.7144 68.2096 53.9844C68.9363 53.7644 69.6298 53.4723 70.2865 53.099C70.7431 54.0823 71.8033 55.9345 73.75 57.1745C75.2933 58.1578 76.2333 58.4145 77.5 58.4245C80.6567 58.4511 81.9987 56.4258 81.9987 56.4258C81.9987 56.4258 78.2526 55.6758 76.0026 53.9258C73.5293 52.0025 73.0013 50.9245 73.0013 50.9245L73.0339 50.8659C73.4539 50.3926 73.8462 49.8891 74.1862 49.3425C74.9195 49.9991 77.8854 52.4219 81.9987 52.4219C87.7487 52.4219 88.0013 47.4219 88.0013 47.4219C88.0013 47.4219 84.7954 48.5811 81.9987 48.4245C78.7454 48.2445 76.4274 47.2843 75.3841 46.7643C75.5674 46.2043 75.7138 45.6292 75.8138 45.0326C76.3471 45.0992 77.348 45.1758 79.2513 45.1758C80.7513 45.1758 85.2272 45.1372 87.7539 43.1706C90.0006 41.4206 90 39.1745 90 38.4245C83.75 41.6745 76.0026 42.4219 76.0026 42.4219L75.9766 42.3568C75.9499 41.7401 75.8849 41.1302 75.7682 40.5469C80.4816 39.4135 90 36.0132 90 31.6732C90 29.1732 88.9974 28.4245 88.9974 28.4245C85.9507 32.8778 77.6294 37.3363 75.1628 38.4896C74.9361 37.9063 74.6524 37.3529 74.3424 36.8229C77.4058 34.6229 88.0013 26.7019 88.0013 22.4219C88.0013 19.4219 86.0026 18.418 86.0026 18.418ZM40 44.4206H49.9674H50H60V61.1198C60 63.3431 59.1489 64.4206 57.4089 64.4206H53.2096C51.483 64.4206 50.3467 67.0411 50 68.4245C49.6533 67.0411 48.517 64.4206 46.7904 64.4206H42.5911C40.8545 64.4206 40 63.3431 40 61.1198V44.4206ZM46.2044 46.4388C46.1011 46.4821 46.0537 46.5959 46.0937 46.6992L46.2695 47.1354C46.2329 47.1588 46.2022 47.177 46.1589 47.207C46.1122 47.2304 46.1095 47.3972 46.1328 47.6172C46.1561 47.7639 46.1328 47.9372 46.1328 48.0339C46.113 48.0961 46.1001 48.374 46.0742 48.5807C45.2695 48.8643 44.6608 49.4618 44.401 49.9544C44.2244 50.2878 44.0026 50.9258 44.7526 51.4258C45.5026 51.9258 46.1037 51.901 46.9271 51.901C47.5781 51.901 47.8799 51.756 48.0078 51.6862C48.0117 51.842 48.0198 52.0482 48.0078 52.168C47.9945 52.308 48.0041 52.6724 48.5807 52.9557L49.2773 54.707C49.2007 54.7337 49.101 54.7717 48.9844 54.7917C48.8177 54.8383 48.5292 54.9354 48.3659 54.6354C48.2959 54.5154 47.7669 53.112 47.7669 53.112C47.3903 53.1853 47.1576 53.3848 46.9076 53.5482C46.7342 53.6615 46.6041 53.7985 46.4974 53.9518C46.2774 53.2752 46.0039 52.9167 45.2539 52.9167C44.5039 52.9167 44.0039 54.1641 44.0039 55.6641C44.0039 55.7074 43.9906 57.282 44.0039 57.4154C44.7939 56.892 45.3915 56.3665 45.4948 55.4232C45.4948 55.0098 45.3743 54.543 45.5143 54.1797C45.641 53.8464 46.1922 53.961 46.2956 54.401C46.1789 54.7777 46.1702 55.2047 46.2435 55.638C46.2902 55.9547 46.4328 56.203 46.4128 56.543C46.3661 56.883 45.8241 56.9562 45.8008 57.1029L45.7096 58.4896C45.6363 58.9996 45.3555 59.6805 45.1888 60.1172C45.2821 60.1639 45.4443 60.1604 45.5143 60.2604C45.4005 60.475 45.3928 60.9254 45.4232 61.0221C44.9698 60.8327 45.0521 60.3918 45 60.1758C44.9533 60.0491 44.7474 59.4206 43.9974 59.4206C44.2474 59.4206 44.4987 60.1732 44.4987 60.4232C44.4754 60.7498 44.4974 62.1745 46.4974 62.1745C48.4974 62.1745 49.4206 60.7292 49.4206 60.7292C49.4206 60.7292 49.2593 61.4206 48.5026 61.9206C48.5026 61.9206 49.2487 61.9219 49.4987 62.4219C49.7254 62.1452 50.228 62.0419 50.5013 62.4219C51.1346 62.0152 51.7487 62.1719 51.9987 62.4219C51.9987 62.2685 52.3546 61.2855 52.5846 61.1589C52.6746 61.1589 53.0967 61.6532 53.75 61.6732C54.5 61.6732 54.8883 61.2317 55.0716 61.1784C55.3216 61.0751 55.6186 61.132 55.8919 61.0286C55.8919 60.7753 55.9793 60.4459 56.0026 60.1693L55.6576 60.4232H54.7526V60.0195C54.7526 60.0195 55.9326 59.1732 56.0026 59.1732C56.0026 59.1732 55.5746 58.9291 55.5013 58.9258C55.228 58.9125 54.4987 59.4206 54.4987 59.4206C54.4987 59.4206 54.2644 59.428 54.0495 59.4336C53.9306 59.1016 53.8072 58.8526 53.7305 58.5677C53.6838 58.3477 53.7082 58.1041 53.6849 57.8841L53.4701 57.3958C53.3334 56.9725 53.3057 56.5045 53.2357 56.0612C53.299 56.0412 54.2448 55.6706 55.4948 55.6706C55.7448 56.4206 55.5469 56.5281 55.5469 56.7448C55.5235 56.8681 55.3125 56.7945 55.3125 56.8945C55.2892 56.9679 55.3863 57.2331 55.293 57.2331L55.1497 57.2591C55.0997 57.1725 54.9722 57.1821 54.9089 57.1354C54.8622 57.1821 54.6495 57.6175 54.6029 57.8841C54.6962 57.9075 54.8537 57.9379 55.1237 57.8646C55.3104 57.8179 55.4796 57.6727 55.5729 57.526C55.7862 57.1127 55.8528 56.6216 55.9961 56.1849L55.7487 54.9219H53.9974C53.9974 52.6719 53.088 52.4045 53.0013 52.1745V50.6706C53.2513 51.6706 53.8703 51.484 54.1536 51.7773C54.2703 51.9007 54.2253 52.0443 54.2253 52.0443L54.4987 52.4219H55L55.2474 51.9206C55.2474 51.9206 54.9282 50.5103 54.5182 49.5703L55 48.9258L54.3164 49.1536C54.1731 48.8803 54.0146 48.6245 53.8346 48.4245L53.8281 48.431C53.5315 48.0543 53.2315 48.0093 52.5781 48.0859C52.5781 48.1326 52.793 48.3782 52.793 48.5482C51.5063 48.5482 50.7552 50.4804 50.7552 50.6771C50.6119 50.5804 50.2156 49.4075 49.6289 49.2708C49.4656 49.2342 49.3187 48.9994 49.2187 48.776C49.3321 48.9127 49.4929 49.0261 49.7396 49.0495C49.9329 48.9428 50.0848 48.8187 50.2148 48.6654C50.4515 48.3854 50.5013 48.1164 50.5013 47.9297C50.5013 47.4297 50.0026 47.1745 49.7526 47.1745C49.5026 47.1745 48.75 47.4284 48.75 48.6784V48.776C48.4209 48.5361 47.9189 48.4418 47.2135 48.431L46.9206 47.6953C46.9845 47.6565 47.0308 47.5904 47.0512 47.5091C47.0715 47.4278 47.0644 47.3368 47.0312 47.2526C46.9973 47.1674 46.9388 47.0953 46.8669 47.0497C46.795 47.0042 46.7145 46.9884 46.6406 47.0052L46.4648 46.556C46.4215 46.4527 46.3111 46.3988 46.2044 46.4388ZM46.5625 47.8906L46.7839 48.457C46.6922 48.465 46.6051 48.4796 46.5169 48.4961C46.5096 48.2869 46.5039 48.0078 46.5039 48.0078C46.5039 48.0078 46.5358 47.964 46.5625 47.8906ZM50.0456 50.9766C50.0456 50.9766 50.5052 51.2353 50.6185 51.3086C50.5052 52.4219 50.8222 53.3426 50.8789 53.5026C50.9389 53.6926 50.9349 54.0939 50.4883 54.2839C50.2149 53.5272 50.1028 53.1627 49.8828 52.3893C49.7995 52.0127 49.8956 51.3766 50.0456 50.9766ZM51.6536 56.0807C51.7703 56.1274 51.8923 56.206 51.9857 56.276C52.1723 56.4227 52.3371 56.5645 52.4805 56.7578C52.6471 57.0011 52.8364 57.2718 52.9297 57.5651C53.003 57.7818 52.9762 58.0287 53.0729 58.2487C53.0929 58.2962 53.1432 58.4135 53.1771 58.4831C53.0531 58.5479 52.98 58.7277 52.9883 59.1536C52.9983 59.6703 52.7033 59.7685 52.5 59.9219V58.9258C52.5 58.9258 51.9987 58.6745 51.9987 58.4245C51.7749 58.4245 51.5744 58.8346 51.5299 59.2773L50.7878 57.4154H51.9987C51.9987 57.4154 52.0154 57.1778 51.582 57.0378C51.582 57.0378 51.3267 56.5254 51.25 56.1654C51.25 56.1654 51.607 56.0807 51.6536 56.0807ZM49.9674 56.4193L51.263 59.6745C51.0224 59.6804 50.6653 59.6915 50.5339 59.6745C50.0866 59.2668 48.8486 58.6083 48.8281 57.9036C49.0181 57.757 49.3255 57.5134 49.4922 57.2201C49.5855 57.0267 49.6739 56.7558 49.7005 56.5625L49.7135 56.4518C49.8002 56.4418 49.9041 56.4326 49.9674 56.4193ZM48.0013 56.8294C48.1046 57.0328 48.3273 57.3705 48.3073 57.6172L48.1901 58.151C48.409 58.3015 48.6503 58.5715 48.9779 58.8997C48.7534 58.779 48.5216 58.6719 48.2487 58.6719C46.9987 58.6719 46.867 60.3545 47.487 60.6445C47.2086 60.9088 46.5397 61.0379 46.1654 61.0807C46.1525 60.8941 46.0543 60.6702 45.9635 60.5794C45.8702 60.3361 45.8724 59.7526 45.8724 59.7526C45.8724 59.2659 46.1571 58.1936 46.5104 57.9036C46.9571 57.5636 47.527 57.4723 47.9036 56.9857C47.9436 56.939 47.9713 56.8828 48.0013 56.8294ZM45.6185 61.0612C45.7946 61.0863 45.9423 61.1024 46.0482 61.1003C46.0204 61.1023 45.9506 61.1198 45.931 61.1198C45.7895 61.1198 45.7188 61.0829 45.6185 61.0612ZM76.0026 68.4245V70.4232H78.0013V68.4245H76.0026ZM76.0026 70.5208C74.0459 70.9208 72.4995 72.4639 72.1029 74.4206H76.0026V70.5208ZM78.0013 70.5208V74.4206H81.901C81.5044 72.4639 79.958 70.9208 78.0013 70.5208Z" fill="#DC2340"/>
</svg>
