<svg width="160" height="160" viewBox="0 0 160 160" fill="none" xmlns="http://www.w3.org/2000/svg">
<path d="M58.5587 31.6774C55.8983 31.3307 53.1607 32.2114 51.1939 34.1782L49.2001 36.1719L65.5282 50.2914L83.7556 43.0555L61.1626 32.4336C60.3233 32.0387 59.4455 31.7929 58.5587 31.6774ZM124 36C122.614 35.9996 121.248 36.3264 120.013 36.9539L44.8001 66.8L36.9454 59.8821C34.7058 57.9065 31.4865 57.4918 28.8157 58.825L27.2001 59.6328L36.6189 78.8227C37.2655 80.4659 38.3916 81.8765 39.8507 82.8712C41.3097 83.8658 43.0343 84.3985 44.8001 84.4C46.09 84.396 47.3633 84.1085 48.5298 83.5578L78.0923 72.0766L75.6001 106.4H78.4275C82.1367 106.4 85.4492 104.071 86.7032 100.582L100.058 63.543L127.188 52.9985C127.206 52.9928 127.223 52.9871 127.24 52.9813V52.9727C128.879 52.3238 130.285 51.1979 131.276 49.7408C132.267 48.2836 132.798 46.5624 132.8 44.8C132.8 42.4661 131.873 40.2278 130.223 38.5775C128.572 36.9272 126.334 36 124 36ZM31.6001 119.6C31.0171 119.592 30.4382 119.7 29.8971 119.917C29.3561 120.134 28.8636 120.457 28.4484 120.867C28.0332 121.276 27.7034 121.764 27.4784 122.302C27.2533 122.84 27.1375 123.417 27.1375 124C27.1375 124.583 27.2533 125.16 27.4784 125.698C27.7034 126.236 28.0332 126.724 28.4484 127.134C28.8636 127.543 29.3561 127.866 29.8971 128.083C30.4382 128.301 31.0171 128.408 31.6001 128.4H128.4C128.983 128.408 129.562 128.301 130.103 128.083C130.644 127.866 131.137 127.543 131.552 127.134C131.967 126.724 132.297 126.236 132.522 125.698C132.747 125.16 132.863 124.583 132.863 124C132.863 123.417 132.747 122.84 132.522 122.302C132.297 121.764 131.967 121.276 131.552 120.867C131.137 120.457 130.644 120.134 130.103 119.917C129.562 119.7 128.983 119.592 128.4 119.6H31.6001Z" fill="white" fill-opacity="0.1"/>
</svg>
