<svg width="30" height="30" viewBox="0 0 30 30" fill="none" xmlns="http://www.w3.org/2000/svg">
<path d="M3.64805 14.1169C3.70469 14.0891 3.76137 14.0628 3.8166 14.0378C4.77676 13.6021 5.74966 13.1942 6.72115 12.7863C6.77355 12.7863 6.86133 12.7266 6.91089 12.7072C6.98595 12.6753 7.06102 12.6447 7.13608 12.6128C7.28053 12.5518 7.42498 12.4921 7.56801 12.4311C7.85691 12.3104 8.14437 12.1896 8.43327 12.0689C9.00965 11.8275 9.58602 11.5861 10.1624 11.3433C11.3152 10.8604 12.4694 10.3762 13.6221 9.89335C14.7749 9.4105 15.929 8.92625 17.0818 8.44341C18.2345 7.96056 19.3887 7.47633 20.5415 6.99348C21.6942 6.51063 22.8484 6.02639 24.0012 5.54354C24.2575 5.43531 24.5351 5.27438 24.8098 5.2272C25.0406 5.18696 25.2658 5.10926 25.498 5.06625C25.9385 4.98439 26.4242 4.95108 26.8462 5.13007C26.9921 5.1925 27.1266 5.27992 27.2385 5.38953C27.7738 5.90845 27.6988 6.76038 27.5855 7.4902C26.7967 12.5768 26.0079 17.6647 25.2176 22.7513C25.11 23.4492 24.9627 24.2151 24.4005 24.6563C23.9247 25.0295 23.2477 25.0712 22.66 24.913C22.0723 24.7534 21.554 24.419 21.0456 24.0902C18.937 22.7221 16.8269 21.3541 14.7182 19.986C14.2169 19.6613 13.6589 19.2367 13.6646 18.6471C13.6674 18.2919 13.8841 17.9755 14.105 17.6938C15.9375 15.3518 18.5815 13.7422 20.5486 11.5084C20.8261 11.1934 21.0442 10.6246 20.6633 10.4428C20.4367 10.3346 20.1761 10.4816 19.9693 10.6218C17.3693 12.3908 14.7706 14.1613 12.1705 15.9303C11.3223 16.5075 10.4329 17.1014 9.41044 17.2429C8.4956 17.3706 7.5751 17.1208 6.69 16.8655C5.94793 16.6518 5.20725 16.4326 4.46943 16.2065C4.07715 16.0871 3.67213 15.9581 3.36907 15.6875C3.06601 15.417 2.89184 14.9619 3.07453 14.6011C3.18924 14.375 3.41158 14.232 3.64525 14.1155L3.64805 14.1169Z" fill="white"/>
</svg>
