<svg width="225" height="70" viewBox="0 0 225 70" fill="none" xmlns="http://www.w3.org/2000/svg">
<path fill-rule="evenodd" clip-rule="evenodd" d="M163.836 38.4775C174.173 28.3527 182.32 24.1883 189.915 23.2903C190.59 22.3474 192.904 19.1035 193.612 18.0596C177.196 20.6862 168.173 33.46 163.847 38.4775" fill="white"/>
<path fill-rule="evenodd" clip-rule="evenodd" d="M204.227 11.5094C203.204 11.6534 200.903 11.6201 198.98 12.9164C197.057 14.2127 194.745 17.2928 193.612 18.9104C194.667 17.7139 196.068 17.3704 198.135 17.1267C200.192 16.8718 203.171 16.9161 205.283 16.617C207.317 16.3289 209.54 15.8968 212.174 12.0855L215.731 7C212.041 10.8667 207.672 11.0329 204.238 11.5204" fill="white"/>
<path fill-rule="evenodd" clip-rule="evenodd" d="M164.224 38.718C174.383 30.711 179.84 27.5307 191.911 27.418L189.31 31.1959C188.821 32.3237 188.065 32.2673 187.265 32.2109C178.64 32.132 172.616 32.8312 162.135 41.0299L164.224 38.7067" fill="white"/>
<path fill-rule="evenodd" clip-rule="evenodd" d="M164.928 38.1081C164.731 38.3096 164.033 39.1267 163.836 39.3282C169.733 34.5932 174.669 29.6566 186.966 27.8432C187.577 27.082 189.368 24.5297 190.209 23.1641C179.005 24.8208 171.666 31.6379 164.928 38.1193" fill="#DC2340"/>
<path fill-rule="evenodd" clip-rule="evenodd" d="M189.115 31.6717C189.211 31.289 189.442 31.0097 188.344 30.265C187.052 29.3962 186.599 29.7582 186.888 28.8791C187.1 28.2068 189.876 26.8725 191.909 27.6586C191.909 27.6586 190.107 30.0375 189.115 31.6717Z" fill="white"/>
<path fill-rule="evenodd" clip-rule="evenodd" d="M198.284 17.0048C195.921 17.3451 194.442 17.969 193.502 19.2621L190.209 24.0149C190.926 23.323 193.099 22.9827 195.451 22.9147H195.775C195.876 22.9147 195.977 22.9147 196.078 22.9147C196.414 22.9147 196.761 22.8806 197.13 22.8806C200.468 22.7331 205.25 22.2567 207.949 18.8651L211.847 12.8191L212.328 12.1045C208.812 17.0842 200.782 16.6532 198.284 17.0161" fill="#DC2340"/>
<path fill-rule="evenodd" clip-rule="evenodd" d="M199.851 22.1973C197.422 22.5466 194.649 22.6391 193.854 22.6904C192.489 22.7521 190.684 23.1938 190.19 23.8101C188.664 25.7413 187.202 27.5287 186.805 28.2684C187.74 27.3952 190.802 27.4877 194.521 27.313C198.228 27.1487 202 25.5153 204.966 22.0741L207.223 18.9102C205.718 20.8825 203.053 21.7454 199.851 22.2076" fill="white"/>
<path fill-rule="evenodd" clip-rule="evenodd" d="M115.365 33.3728L120.58 22.177H120.67L126.435 33.3728H132.358L124.704 18.9102H119.703L112.791 33.3728H115.365Z" fill="#DC2340"/>
<path fill-rule="evenodd" clip-rule="evenodd" d="M34.2033 26.9877L42.3058 26.8888C42.2166 28.801 41.169 29.8671 40.6229 30.3177C39.2855 31.3837 37.3685 31.4826 36.4546 31.4826C35.1172 31.4826 33.9581 31.2957 32.7767 30.5814C32.0188 30.1308 31.1607 29.3725 30.726 28.7241L30.3582 28.1746L27.7168 29.7022C28.4858 30.6034 29.7007 31.5046 30.9712 32.153C32.9327 33.1311 34.7271 33.3728 36.9116 33.3728C39.2409 33.3728 42.852 33.0431 45.4711 31.065C47.2877 29.6912 48.1347 27.812 48.1347 26.1415C48.1347 24.471 47.2877 22.5808 45.4711 21.218C43.2197 19.5036 39.9207 18.9102 36.9784 18.9102C35.0726 18.9102 33.3117 19.097 31.5396 19.7674C30.0573 20.2839 28.8982 21.0092 27.7168 22.0423L30.3582 23.5369L30.9935 22.8445C31.5173 22.2511 32.3978 21.7016 33.2002 21.3719C34.2702 20.8883 35.3847 20.7455 36.5438 20.7455C38.8954 20.7455 40.2328 21.5148 40.9907 22.2511C41.4922 22.7236 42.1498 23.6248 42.3058 25.0095L34.2033 24.8887V26.9877Z" fill="#DC2340"/>
<path fill-rule="evenodd" clip-rule="evenodd" d="M141.722 20.5806C143.058 20.5806 144.587 20.8664 145.776 22.361C146.728 23.5479 146.886 24.9326 146.886 26.1415C146.886 27.3504 146.728 28.7021 145.776 29.922C144.598 31.4166 143.069 31.7024 141.722 31.7024C140.374 31.7024 138.845 31.4166 137.678 29.922C136.727 28.7131 136.568 27.3504 136.568 26.1415C136.568 24.9326 136.727 23.5479 137.678 22.361C138.856 20.8664 140.385 20.5806 141.722 20.5806ZM141.722 33.3728C144.225 33.3728 147.713 32.8014 150.046 31.065C151.904 29.7132 152.776 27.79 152.776 26.1415C152.776 24.493 151.892 22.5808 150.046 21.218C147.702 19.4816 144.225 18.9102 141.722 18.9102C139.219 18.9102 135.73 19.4816 133.363 21.218C131.506 22.5808 130.656 24.504 130.656 26.1415C130.656 27.779 131.506 29.7022 133.363 31.065C135.719 32.8014 139.241 33.3728 141.722 33.3728Z" fill="#DC2340"/>
<path fill-rule="evenodd" clip-rule="evenodd" d="M97.3782 22.8098C97.8806 22.646 98.4722 22.5477 99.0751 22.5477H99.6891V29.6152H99.0751C98.4834 29.6152 97.8918 29.5169 97.3782 29.353C96.9317 29.211 96.5187 29.0253 96.1949 28.7413C95.5809 28.2497 95.0785 27.4195 95.0785 26.065C95.0785 24.7105 95.5809 23.924 96.1949 23.4215C96.5187 23.1375 96.9317 22.9409 97.3782 22.7989M106.923 31.3411C109.859 31.1445 111.411 30.4344 112.237 29.921C113.789 28.9488 114.492 27.5725 114.492 26.065C114.492 24.077 113.231 22.8972 112.237 22.2418C110.842 21.3242 108.877 20.9528 106.923 20.8218C106.398 20.7781 105.874 20.7781 105.349 20.7781H104.78V18.9102H99.5105V20.7781H98.9635C98.4388 20.7781 97.9141 20.7781 97.3894 20.8218C95.4135 20.9419 93.4486 21.3242 92.0755 22.2418C91.0819 22.8972 89.8204 24.0879 89.8204 26.065C89.8204 27.5725 90.5238 28.9488 92.0755 29.921C92.8793 30.4344 94.4311 31.1445 97.3894 31.3411C97.8695 31.3629 98.3941 31.3848 98.9635 31.3848H99.5105V33.3728H104.78V31.3848H105.349C105.918 31.3848 106.443 31.3629 106.923 31.3411ZM106.923 22.8098C107.381 22.9518 107.794 23.1485 108.107 23.4325C108.721 23.924 109.223 24.7542 109.223 26.076C109.223 27.3977 108.721 28.2497 108.107 28.7522C107.783 29.0362 107.37 29.2219 106.923 29.3639C106.398 29.5278 105.829 29.6261 105.215 29.6261H104.623V22.5586H105.215C105.829 22.5586 106.398 22.6569 106.923 22.8208" fill="#DC2340"/>
<path fill-rule="evenodd" clip-rule="evenodd" d="M77.9264 20.5806C79.2542 20.5806 80.7977 20.8664 81.9894 22.361C82.9427 23.5479 83.1015 24.9326 83.1015 26.1415C83.1015 27.3504 82.9427 28.7021 81.9894 29.922C80.809 31.4166 79.2542 31.7024 77.9264 31.7024C76.5985 31.7024 75.0323 31.4166 73.852 29.922C72.8987 28.7131 72.7625 27.3504 72.7625 26.1415C72.7625 24.9326 72.8987 23.5479 73.852 22.361C75.0323 20.8664 76.5872 20.5806 77.9264 20.5806ZM77.9264 33.3728C80.4118 33.3728 83.93 32.8014 86.2793 31.065C88.1178 29.7132 88.969 27.79 88.969 26.1415C88.969 24.493 88.1065 22.5808 86.2793 21.218C83.9414 19.4816 80.4118 18.9102 77.9264 18.9102C75.4409 18.9102 71.9 19.4816 69.5621 21.218C67.7122 22.5808 66.8496 24.504 66.8496 26.1415C66.8496 27.779 67.7122 29.7022 69.5621 31.065C71.9113 32.8014 75.4295 33.3728 77.9264 33.3728Z" fill="#DC2340"/>
<path fill-rule="evenodd" clip-rule="evenodd" d="M58.2298 28.083H59.2294C61.8078 28.083 63.591 27.7807 64.8745 26.9669C66.476 25.9438 66.8509 24.5255 66.8509 23.421C66.8509 22.3165 66.4874 20.9331 64.8745 19.9449C63.6024 19.1543 61.8873 18.9102 59.0022 18.9102H49.8359V33.3728H55.1971V28.0714H58.2412L58.2298 28.083ZM58.2298 21.1423C58.8773 21.1656 59.7178 21.2935 60.3198 21.7004C61.1376 22.2468 61.2739 23.0025 61.2739 23.4559C61.2739 23.9093 61.1603 24.7115 60.2743 25.2928C59.6724 25.723 58.9341 25.8508 58.2298 25.8973H55.1858V21.1191H57.6733C57.8323 21.1191 58.014 21.1191 58.2298 21.154" fill="#DC2340"/>
<path fill-rule="evenodd" clip-rule="evenodd" d="M17.4074 22.3049L20.0701 27.2343H14.7447L17.2714 22.2003H17.3394L17.4074 22.3049ZM21.1579 29.1991L23.4466 33.3728H29.4179L21.3165 18.9102H16.365L9 33.3728H11.6627L13.7702 29.1991H21.1579Z" fill="#DC2340"/>
<path fill-rule="evenodd" clip-rule="evenodd" d="M151.926 21.0958H157.433V33.3728H162.561V21.0958H168.09V18.9102H151.926V21.0958Z" fill="#DC2340"/>
<path fill-rule="evenodd" clip-rule="evenodd" d="M15.9418 46.7015L14.4391 46.0002L20.6743 45.1857C20.7865 45.378 20.8874 45.5477 21.0107 45.7287L15.9418 46.7015ZM32.6851 46.7015L34.1878 45.9549L27.9862 45.1631C27.9301 45.378 27.7731 45.5477 27.661 45.7174L32.6851 46.6902V46.7015ZM31.7767 46.8147L29.8927 47.4821L27.2124 46.611L26.9769 46.5318C27.0666 46.4527 27.1339 46.3848 27.2124 46.283C27.3245 46.1812 27.4143 46.0567 27.5152 45.9549L31.7767 46.8147ZM36.756 44.9368L35.0289 45.7966L28.1432 44.9368C28.1993 44.7671 28.2553 44.5861 28.3114 44.4165L36.7672 44.9368H36.756ZM37.3727 44.6879L39.6269 43.1608H27.4367C27.4367 43.7038 27.3582 44.1676 27.2012 44.5748C26.7302 45.8644 25.5526 46.4866 24.3751 46.464C23.22 46.43 22.0313 45.7852 21.5154 44.6088C21.3248 44.1789 21.2238 43.7151 21.2238 43.1608H9L11.2317 44.6879L20.5734 44.1676C20.7528 44.8803 21.078 45.5024 21.5154 45.9662C22.2556 46.8033 23.3322 47.2672 24.3751 47.2672C25.4068 47.2898 26.461 46.8825 27.2012 45.9889C27.6049 45.5251 27.9077 44.9255 28.0871 44.2015L37.3727 44.6879ZM27.2012 48.6359L27.4367 49.0997L27.2012 49.2242L26.5731 49.5296L25.8554 47.9911C25.3956 48.1721 24.891 48.2626 24.3863 48.2852C23.8368 48.3079 23.2761 48.2287 22.7939 48.059L22.1771 49.5296C21.9752 49.5522 21.706 49.5296 21.5266 49.3938C21.4369 49.3373 21.336 49.2355 21.3136 49.0997L21.5266 48.7151L22.0537 47.7083C21.8855 47.5952 21.7509 47.516 21.6051 47.3576L22.0425 46.792C22.7827 47.2784 23.6013 47.5386 24.3976 47.5386C25.1938 47.5613 25.99 47.2898 26.7302 46.7355L27.2236 46.8825L27.4255 46.9617C27.347 47.0183 27.3021 47.0748 27.2236 47.1314C27.0778 47.2898 26.9544 47.4481 26.7189 47.5726L27.2236 48.6246L27.2012 48.6359ZM27.2012 40.7174C27.6722 41.3169 28.0198 42.0522 28.1993 42.9119H27.4255C27.3694 42.6631 27.3021 42.4142 27.2012 42.1766C26.6741 40.7061 25.6087 39.654 24.3751 38.783C24.2069 38.6812 24.0723 38.568 23.9041 38.4775C24.0723 38.5341 24.2069 38.5907 24.3751 38.6472C25.4966 39.1223 26.4947 39.7898 27.2012 40.7174ZM25.104 46.1699C25.3059 46.1359 25.6087 46.0115 25.8554 45.8192L24.6218 43.206L25.9115 42.5499L24.8237 41.5431L24.3863 41.7581L22.5135 42.6631L23.063 43.9866L23.9489 43.5567L25.104 46.1699ZM21.7285 46.5432C21.6612 46.4866 21.5827 46.4074 21.5154 46.3508C21.3696 46.2151 21.2462 46.0794 21.1453 45.9436L16.895 46.8033L18.7006 47.4595L21.7285 46.5432ZM20.5734 44.9368C20.5061 44.7671 20.45 44.5861 20.394 44.4165L11.8709 44.9368L13.598 45.8305L20.5734 44.9368Z" fill="#DC2340"/>
<path d="M57.16 41.0293C57.5899 41.0293 58.3704 41.0494 58.8455 41.481C59.1735 41.7922 59.23 42.1837 59.1735 42.5551C59.083 43.2277 58.6531 43.9003 58.031 44.3018C57.522 44.6431 56.7528 44.884 55.9724 44.884H54.4341L53.4048 47.8353H52.3867L54.7508 41.0293H57.16ZM54.6942 44.1111H56.2099C56.7189 44.1111 57.1035 43.9504 57.3637 43.7898C57.703 43.5489 58.0084 43.1072 58.065 42.7157C58.1215 42.3242 57.9632 42.1335 57.8953 42.0633C57.7256 41.8926 57.3749 41.8123 57.0243 41.8123H55.5086L54.7055 44.1111H54.6942Z" fill="#DC2340"/>
<path d="M64.096 43.4606C64.2713 43.7766 64.3413 44.2263 64.2712 44.834C64.166 45.7212 63.7221 47.1189 62.7756 47.9453C62.2148 48.4193 61.5254 48.6867 60.8711 48.6867C59.8662 48.6867 59.4923 48.1276 59.3989 47.9453C59.1535 47.5199 59.1768 46.9852 59.2236 46.6084C59.3404 45.6726 59.7845 44.2871 60.7309 43.4606C61.2917 42.9745 61.9811 42.7314 62.6354 42.7314C63.4066 42.7314 63.8856 43.0717 64.1076 43.4606M63.1028 45.4417C63.243 44.9798 63.4183 44.2628 63.1963 43.8617C63.0794 43.643 62.7873 43.4728 62.4017 43.4728C61.9811 43.4728 61.5838 43.6794 61.3267 43.9468C60.9295 44.3357 60.6958 44.9312 60.5439 45.4417L60.392 45.9643C60.2635 46.3775 60.0415 47.0946 60.2986 47.5442C60.392 47.7144 60.6257 47.9332 61.0814 47.9332C61.502 47.9332 61.8409 47.763 62.1096 47.5442C62.6121 47.1067 62.7873 46.5112 62.9509 45.9643L63.1028 45.4417Z" fill="#DC2340"/>
<path d="M68.3585 48.1265C68.1973 48.2239 67.9555 48.3579 67.7339 48.4553C67.3913 48.6136 67.0287 48.6867 66.6156 48.6867C66.0615 48.6867 65.6384 48.4553 65.4167 48.1143C65.1749 47.7368 65.1145 47.1157 65.1649 46.6285C65.2656 45.6055 65.7794 43.9371 66.7264 43.2064C67.1495 42.8776 67.7238 42.7314 68.157 42.7314C68.4693 42.7314 68.8622 42.8289 69.0939 43.0359C69.3458 43.2551 69.4264 43.5352 69.3961 43.9249C69.3659 44.1563 69.2853 44.4121 69.2047 44.5947L68.429 44.68C68.5499 44.3268 68.6204 43.998 68.4995 43.7788C68.429 43.6326 68.2376 43.4987 67.895 43.4987C67.6734 43.4987 67.4417 43.5596 67.21 43.7179C66.6861 44.0954 66.5048 44.6922 66.3436 45.3011L66.1521 46.0561C66.0313 46.5433 65.9708 47.0548 66.1119 47.3958C66.2025 47.6028 66.404 47.8829 66.948 47.8829C67.21 47.8829 67.4014 47.8464 67.6935 47.7368C67.9051 47.6637 68.0764 47.5906 68.2779 47.4688L68.3585 48.1386V48.1265Z" fill="#DC2340"/>
<path d="M74.1063 48.1265C73.9129 48.2239 73.6227 48.3579 73.3567 48.4553C72.9456 48.6136 72.5104 48.6867 72.0147 48.6867C71.3497 48.6867 70.8419 48.4553 70.5759 48.1143C70.2857 47.7368 70.2132 47.1157 70.2736 46.6285C70.3945 45.6055 71.0111 43.9371 72.1356 43.2064C72.6434 42.8776 73.3325 42.7314 73.8645 42.7314C74.2393 42.7314 74.7109 42.8289 74.9889 43.0359C75.2791 43.2551 75.3879 43.5352 75.3517 43.9249C75.3275 44.1563 75.2187 44.4121 75.1219 44.5947L74.191 44.68C74.3361 44.3268 74.4207 43.998 74.2756 43.7788C74.191 43.6326 73.9612 43.4987 73.5501 43.4987C73.2842 43.4987 73.0061 43.5596 72.728 43.7179C72.0993 44.0954 71.8817 44.6922 71.6882 45.3011L71.4585 46.0561C71.3134 46.5433 71.2409 47.0548 71.4101 47.3958C71.519 47.6028 71.7607 47.8829 72.4136 47.8829C72.728 47.8829 72.9578 47.8464 73.2963 47.7368C73.5502 47.6637 73.7678 47.5906 73.9975 47.4688L74.1063 48.1386V48.1265Z" fill="#DC2340"/>
<path d="M79.7016 47.8359H78.8017L80.0683 43.8501L76.424 47.8359H75.3574L76.9684 42.7314H77.8683L76.6128 46.7281L80.246 42.7314H81.3126L79.7016 47.8359Z" fill="#DC2340"/>
<path d="M85.6567 47.8353H84.7567L86.0234 44.0971L82.3791 47.8353H81.3125L82.9235 43.0508H83.8235L82.568 46.789L86.2011 43.0508H87.2677L85.6567 47.8353ZM87.1344 41.0293C87.1344 41.0902 87.1011 41.1918 87.0677 41.334C86.9789 41.6185 86.8122 41.8826 86.3678 42.1061C86.0011 42.2889 85.6901 42.3194 85.3567 42.3194C85.1234 42.3194 84.7456 42.3194 84.479 42.1061C84.3901 42.0248 84.2124 41.8521 84.2457 41.5474C84.2679 41.395 84.3568 41.1817 84.4457 41.0293H85.1567L85.1123 41.1512C85.0567 41.2731 85.0123 41.4559 85.1345 41.5982C85.2456 41.72 85.4123 41.7302 85.5567 41.7302C85.7345 41.7302 85.89 41.7099 86.0566 41.5982C86.2677 41.4661 86.3233 41.3137 86.3789 41.1614L86.4233 41.0293H87.1233H87.1344Z" fill="#DC2340"/>
<path d="M91.333 48.1265C91.1819 48.2239 90.9301 48.3579 90.7086 48.4553C90.3662 48.6136 90.0036 48.6867 89.5907 48.6867C89.0268 48.6867 88.6139 48.4553 88.3923 48.1143C88.1506 47.7368 88.0902 47.1157 88.1305 46.6285C88.2413 45.6055 88.7448 43.9371 89.6915 43.2064C90.1144 42.8776 90.6884 42.7314 91.1315 42.7314C91.4437 42.7314 91.8365 42.8289 92.0681 43.0359C92.3098 43.2551 92.4105 43.5352 92.3601 43.9249C92.34 44.1563 92.2594 44.4121 92.1688 44.5947L91.3934 44.68C91.5142 44.3268 91.5847 43.998 91.4639 43.7788C91.3934 43.6326 91.202 43.4987 90.8596 43.4987C90.6381 43.4987 90.4064 43.5596 90.1748 43.7179C89.6512 44.0954 89.4598 44.6922 89.3088 45.3011L89.1275 46.0561C89.0067 46.5433 88.9462 47.0548 89.0872 47.3958C89.1778 47.6028 89.3792 47.8829 89.913 47.8829C90.1748 47.8829 90.3662 47.8464 90.6482 47.7368C90.8596 47.6637 91.0409 47.5906 91.2322 47.4688L91.3229 48.1386L91.333 48.1265Z" fill="#DC2340"/>
<path d="M96.1726 47.8253L95.9712 46.2547C95.941 46.0531 95.9309 45.8302 95.79 45.6923C95.6692 45.5543 95.498 45.5331 95.3571 45.5331H94.7027L94.0382 47.8253H93.2227L94.6825 42.827H95.498L94.9241 44.8114H95.498C95.639 44.8114 95.8806 44.8008 96.082 44.6416C96.2431 44.5143 96.3538 44.3233 96.4545 44.1535L96.7867 43.591C96.9881 43.2621 97.1592 42.9543 97.5418 42.8057C97.6828 42.7527 97.8136 42.7314 97.9244 42.7314C98.0653 42.7314 98.2063 42.7633 98.3271 42.8057L98.0452 43.4743C97.9345 43.4425 97.7834 43.4425 97.6727 43.5274C97.5519 43.6229 97.4613 43.7927 97.411 43.8882L97.1492 44.3233C97.0384 44.5143 96.9478 44.7053 96.7163 44.8857C96.5753 45.0025 96.4041 45.0767 96.2431 45.1404V45.1829C96.3739 45.2253 96.535 45.3314 96.6458 45.4694C96.7767 45.6604 96.827 45.9894 96.827 46L97.0787 47.8359H96.1927L96.1726 47.8253Z" fill="#DC2340"/>
<path d="M102.672 47.8359H101.772L103.028 43.8501L99.3945 47.8359H98.3279L99.9389 42.7314H100.839L99.5834 46.7281L103.217 42.7314H104.283L102.672 47.8359Z" fill="#DC2340"/>
<path d="M106.144 46.1101C106.051 46.5233 105.967 47.0581 106.123 47.3984C106.269 47.6779 106.612 47.8724 107.07 47.8724C107.35 47.8724 107.569 47.8116 107.818 47.7265C108.037 47.6536 108.213 47.5807 108.421 47.4592L108.515 48.1276C108.349 48.2248 108.099 48.3585 107.86 48.4557C107.496 48.6016 107.111 48.6867 106.706 48.6867C105.822 48.6867 105.437 48.1762 105.291 47.8602C104.844 46.9122 105.395 44.5302 106.425 43.485C106.914 42.9867 107.496 42.7314 108.047 42.7314C108.723 42.7314 109.077 43.0961 109.233 43.4121C109.545 44.0319 109.326 44.8462 109.118 45.6969L109.056 45.9521H106.175L106.144 46.098V46.1101ZM108.359 45.1986L108.411 44.9555C108.494 44.5909 108.598 44.1534 108.453 43.8253C108.317 43.5336 108.089 43.4728 107.902 43.4728C107.558 43.4728 107.288 43.6065 107.038 43.8617C106.799 44.117 106.56 44.5059 106.414 45.0649L106.383 45.1865H108.359V45.1986Z" fill="#DC2340"/>
<path d="M117.988 47.8724H117.949C117.782 48.079 117.586 48.2856 117.322 48.4558C117.028 48.6381 116.822 48.6867 116.499 48.6867C116.215 48.6867 115.882 48.6502 115.637 48.395C115.47 48.2127 115.303 47.8967 115.352 47.3498C115.401 46.8272 115.627 46.1466 116.205 45.6848C116.518 45.4417 117.018 45.1986 117.88 45.1986H118.566L118.743 44.4572C118.782 44.2871 118.89 43.9225 118.654 43.6673C118.586 43.5822 118.429 43.485 118.086 43.485C117.92 43.485 117.635 43.5093 117.4 43.6673C117.194 43.8131 117.077 44.0076 116.989 44.3479L116.273 44.2992C116.303 43.8496 116.499 43.3999 116.91 43.0961C117.39 42.7558 118.037 42.7314 118.311 42.7314C118.791 42.7314 119.272 42.8651 119.477 43.2541C119.566 43.4364 119.624 43.6916 119.585 44.0805C119.556 44.36 119.487 44.5909 119.419 44.8705L118.498 48.5651H117.782L117.959 47.8602L117.988 47.8724ZM118.4 45.9157H117.684C117.234 45.9157 116.93 46.0129 116.705 46.2074C116.43 46.4383 116.273 46.7907 116.234 47.1432C116.215 47.3741 116.234 47.5199 116.332 47.6658C116.489 47.8967 116.695 47.9088 116.861 47.9088C117.145 47.9088 117.312 47.8359 117.577 47.6536C117.763 47.5199 117.929 47.3619 118.096 47.1432L118.39 45.9157H118.4Z" fill="#DC2340"/>
<path d="M122.063 42.7314H124.348C124.738 42.7314 125.128 42.764 125.384 43.1108C125.495 43.2625 125.585 43.4901 125.54 43.8152C125.495 44.1403 125.328 44.4763 125.05 44.7364C124.793 44.9748 124.548 45.0832 124.37 45.1265V45.1591C124.637 45.2241 124.782 45.4083 124.838 45.495C124.916 45.6359 124.983 45.8418 124.949 46.1019C124.905 46.4596 124.727 46.9797 124.136 47.4024C123.668 47.7384 123.2 47.8359 122.687 47.8359H120.447L122.052 42.7314H122.063ZM121.562 47.1532H122.787C123.133 47.1532 123.378 47.0556 123.545 46.9472C123.802 46.7738 123.969 46.4704 124.013 46.1453C124.036 45.961 123.991 45.8201 123.868 45.7118C123.701 45.5709 123.445 45.5492 123.356 45.5492H122.085L121.573 47.1532H121.562ZM122.286 44.8773H123.423C123.623 44.8773 123.891 44.8664 124.158 44.6822C124.414 44.5088 124.559 44.227 124.593 43.9452C124.626 43.7285 124.537 43.5876 124.437 43.5117C124.303 43.4142 124.102 43.3817 123.946 43.3817H122.754L122.286 44.8664V44.8773Z" fill="#DC2340"/>
<path d="M129.896 47.8359H128.989L130.265 43.8501L126.616 47.8359H125.553L127.165 42.7314H128.071L126.818 46.7281L130.445 42.7314H131.508L129.896 47.8359Z" fill="#DC2340"/>
<path d="M135.003 47.8724H134.964C134.797 48.079 134.601 48.2856 134.327 48.4558C134.043 48.6381 133.828 48.6867 133.515 48.6867C133.221 48.6867 132.898 48.6502 132.653 48.395C132.487 48.2127 132.31 47.8967 132.369 47.3498C132.418 46.8272 132.653 46.1466 133.221 45.6848C133.534 45.4417 134.033 45.1986 134.895 45.1986H135.571L135.747 44.4572C135.786 44.2871 135.884 43.9225 135.669 43.6673C135.6 43.5822 135.443 43.485 135.101 43.485C134.934 43.485 134.641 43.5093 134.415 43.6673C134.2 43.8131 134.092 44.0076 134.004 44.3479L133.289 44.2992C133.319 43.8496 133.515 43.3999 133.926 43.0961C134.396 42.7558 135.042 42.7314 135.326 42.7314C135.806 42.7314 136.285 42.8651 136.491 43.2541C136.579 43.4364 136.638 43.6916 136.599 44.0805C136.569 44.36 136.501 44.5909 136.432 44.8705L135.522 48.5651H134.807L134.983 47.8602L135.003 47.8724ZM135.414 45.9157H134.699C134.259 45.9157 133.945 46.0129 133.72 46.2074C133.446 46.4383 133.28 46.7907 133.25 47.1432C133.231 47.3741 133.25 47.5199 133.348 47.6658C133.505 47.8967 133.71 47.9088 133.877 47.9088C134.151 47.9088 134.327 47.8359 134.592 47.6536C134.778 47.5199 134.944 47.3619 135.111 47.1432L135.414 45.9157Z" fill="#DC2340"/>
<path d="M140.911 48.539H139.991L141.417 43.5804H139.934L139.739 44.2203C139.497 44.9954 139.256 45.746 138.968 46.4842C138.727 47.0871 138.428 47.7761 137.784 48.2314C137.428 48.4775 136.979 48.6375 136.611 48.6867V47.85C136.876 47.7885 137.221 47.6531 137.462 47.4563C137.83 47.161 138.049 46.7057 138.209 46.275C138.428 45.7091 138.865 44.4171 139.072 43.6789L139.348 42.7314H142.567L140.911 48.5267V48.539Z" fill="#DC2340"/>
<path d="M146.91 47.8359H146.003L147.268 43.8501L143.63 47.8359H142.566L144.178 42.7314H145.074L143.82 46.7281L147.458 42.7314H148.522L146.91 47.8359Z" fill="#DC2340"/>
<path d="M152.782 47.8359H151.829L152.605 45.5335H150.24L149.463 47.8359H148.521L150.216 42.7314H151.158L150.475 44.8058H152.841L153.535 42.7314H154.477L152.782 47.8359Z" fill="#DC2340"/>
<path d="M158.82 47.8359H157.913L159.178 43.8501L155.54 47.8359H154.477L156.089 42.7314H156.984L155.73 46.7281L159.357 42.7314H160.432L158.82 47.8359Z" fill="#DC2340"/>
<path d="M164.775 47.8359H163.879L165.144 43.8501L161.495 47.8359H160.432L162.055 42.7314H162.95L161.697 46.7281L165.323 42.7314H166.387L164.775 47.8359Z" fill="#DC2340"/>
<path d="M79.4887 58.6044C82.9483 59.1814 89.5664 60.0866 97.6687 60.2789C105.76 60.4939 115.268 59.9961 124.252 58.5705C133.236 57.1788 141.674 54.8593 147.644 52.3475C153.671 49.9375 157.041 46.9957 157.03 46.9844C157.064 47.007 153.559 50.4014 147.164 53.3205C140.848 56.3528 131.919 59.2493 122.534 61.1275C113.148 63.0623 103.305 63.9335 95.2916 63.9901C87.2897 64.0919 81.0623 63.3226 78.886 62.9605C71.3529 61.7725 65.8843 59.668 62.5474 57.6427C59.177 55.5947 58.0498 53.7618 58.4069 53.3997C58.7864 52.9811 60.4604 53.8297 63.8643 54.9611C67.2682 56.0926 72.4465 57.4956 79.4998 58.6157" fill="#DC2340"/>
</svg>
