<svg xmlns="http://www.w3.org/2000/svg" version="1.1" xmlns:xlink="http://www.w3.org/1999/xlink" width="1000" height="1000"><metadata><rdf:RDF xmlns:rdf="http://www.w3.org/1999/02/22-rdf-syntax-ns#" xmlns:dc="http://purl.org/dc/elements/1.1/"><rdf:Description><dc:creator>RealFaviconGenerator</dc:creator><dc:source>https://realfavicongenerator.net</dc:source></rdf:Description></rdf:RDF></metadata><g clip-path="url(#SvgjsClipPath1471)"><rect width="1000" height="1000" fill="#ffffff"></rect><g transform="matrix(8,0,0,8,0,0)"><svg xmlns="http://www.w3.org/2000/svg" width="125" height="125" viewBox="0 0 125 125" fill="none"><rect width="125" height="125" fill="#DC2340"></rect><path d="M86.5911 33.5451C92.0016 34.7196 95.598 39.659 95.6171 44.9604C95.6299 49.0808 92.6445 51.9505 88.558 52.0965C84.4714 52.2425 80.4167 50.2807 77.5141 47.1317C74.2487 43.589 72.9247 39.0432 72.7273 34.2181C72.4982 28.7073 76.0819 24.1678 81.6579 23.4885C85.2671 23.0504 88.7489 23.9139 92.0144 25.7868C100.162 30.4659 105.057 39.6527 104.452 49.0744C103.994 56.1724 99.0226 61.569 92.1608 62.8451C87.0367 63.7974 82.0844 62.68 77.5205 60.1214C71.3843 56.6804 66.8521 51.2838 63.7522 45.0302C61.1933 39.8749 60.8178 34.6181 61.6962 29.0437C62.2563 25.482 63.2175 22.5996 65.7891 20.003C69.2455 16.5047 73.663 14.581 78.749 14.9302C85.4708 15.4 91.6579 17.8063 96.9602 22.079C107.329 30.4532 113.816 44.9857 110.913 58.0771C109.398 64.8894 105.197 70.8066 98.9335 73.9874C91.7788 77.6253 79.8947 77.257 72.721 73.4795C64.5415 69.1749 58.1507 62.6673 53.0966 55.0169C49.9458 50.249 47.7943 45.2905 47.3041 39.5511C47.0113 36.0783 46.7949 32.6816 47.0559 29.2152C47.7243 20.1934 53.7077 12.9049 62.3136 10.2003C66.623 8.848 70.9578 8.67659 75.4835 9.24163C76.642 9.38766 77.7878 10.086 78.5644 11.1019C75.6745 11.3177 73.0392 11.5526 70.3021 12.4415C61.1551 15.3937 56.8776 24.1932 57.425 33.6213C58.4626 51.5568 72.6446 68.6924 91.2505 67.0607C102.956 66.0322 109.392 55.5249 108.017 44.008C106.928 34.9418 101.664 27.0185 93.733 22.4155C90.0793 20.295 85.8018 19.4506 81.6134 19.6093C77.425 19.7681 74.1214 21.6283 71.8617 24.8281C64.9489 34.6054 70.3467 48.6554 80.5822 54.1979C85.7381 56.9851 91.9953 56.6486 96.2728 52.6552C98.768 50.3251 99.4109 46.7444 99.169 43.4112C98.6725 36.7322 94.2104 31.1198 87.7114 29.6786C84.9997 29.0755 82.2817 29.7739 80.5058 31.869C78.5198 34.2117 78.0106 37.3227 79.1436 40.4463C79.9711 42.7319 82.2117 44.973 85.1016 45.646C87.6286 46.2365 89.8629 44.5604 89.9329 42.0208C89.9965 39.7733 87.9469 38.0337 85.3944 38.1417L84.6051 40.9415C82.8801 40.2622 82.0908 38.421 82.3454 36.4783C82.6 34.5355 84.2359 33.0308 86.5974 33.5451H86.5911Z" fill="white"></path><path d="M113.18 63.588C113.473 70.8003 110.5 77.4348 106.026 82.9964C102.423 87.4724 97.948 90.5072 92.5374 92.4245C82.5311 95.9672 72.0983 95.5037 62.4229 91.0786C47.4071 84.2027 34.6191 70.5717 28.763 55.1948C24.2054 43.2399 24.269 31.3103 31.1754 20.4601C32.2448 18.784 33.6452 17.3111 35.3257 16.3016C41.2327 12.7399 47.5089 10.0162 54.3071 8.93057C53.1359 10.6575 51.971 11.9082 50.628 13.1653C44.7591 18.6634 42.5949 26.4979 43.0277 34.5483C43.7916 48.6808 50.5325 61.5309 61.4172 70.5082C74.0333 80.914 90.405 84.6662 104.434 75.0985C106.446 73.7271 108.082 72.2605 109.361 70.14L113.18 63.5943V63.588Z" fill="white"></path><path d="M114 78.4691C113.306 87.7258 105.445 98.1252 98.2648 103.192C89.8817 109.109 79.7289 111.413 69.5062 110.721C52.7144 109.579 35.9672 99.8013 26.0881 86.3988C18.5261 76.1391 12.6254 61.3145 12.8291 48.4961C12.9564 40.4839 18.4688 33.0366 23.3192 26.9036C23.2747 28.4781 23.0964 29.913 22.74 31.4113C20.4994 40.7251 22.7591 51.8801 26.782 60.6542C33.8793 76.12 46.6673 88.5575 62.3006 95.2619C72.3961 99.5918 83.0262 99.814 93.3253 96.4174C99.5825 94.354 104.675 90.9192 108.647 85.6179L113.994 78.4755L114 78.4691Z" fill="white"></path><path d="M80.7533 114.245C76.444 117.655 67.9399 117.166 61.861 117.274C54.8655 117.401 48.3728 116.017 42.0584 112.969C32.8541 108.531 25.0947 101.916 19.2577 93.5479C13.4207 85.1801 9.57599 72.3745 10.1552 62.1401C10.7027 62.6798 11.1737 63.2575 11.3392 63.9432C16.7116 86.3102 33.3633 104.551 55.1965 111.953C60.8362 113.864 66.4058 114.62 72.3638 114.461L80.7533 114.239V114.245Z" fill="white"></path></svg></g></g><defs><clipPath id="SvgjsClipPath1471"><rect width="1000" height="1000" x="0" y="0" rx="150" ry="150"></rect></clipPath></defs></svg>