<svg width="100" height="100" viewBox="0 0 100 100" fill="none" xmlns="http://www.w3.org/2000/svg">
<path d="M49.9999 6.66675C49.4423 6.66791 48.8939 6.80894 48.4049 7.0769L11.7382 27.0769C11.0538 27.4142 10.5059 27.9761 10.1859 28.6688C9.86582 29.3614 9.79306 30.1428 9.97973 30.8826C10.1664 31.6224 10.6012 32.2758 11.2115 32.7337C11.8218 33.1916 12.5708 33.4263 13.3333 33.3985V50.0001H46.6666V15.6121L49.9999 13.7957L53.3333 15.6121V50.0001H86.6666V33.405C87.4316 33.4362 88.1839 33.2031 88.7973 32.7449C89.4107 32.2867 89.8476 31.6313 90.0347 30.8889C90.2219 30.1465 90.1478 29.3624 89.8249 28.6682C89.502 27.974 88.95 27.4121 88.2616 27.0769L51.595 7.0769C51.106 6.80894 50.5575 6.66791 49.9999 6.66675ZM29.9999 26.6667C31.8399 26.6667 33.3333 28.1601 33.3333 30.0001C33.3333 31.8401 31.8399 33.3334 29.9999 33.3334C28.1599 33.3334 26.6666 31.8401 26.6666 30.0001C26.6666 28.1601 28.1599 26.6667 29.9999 26.6667ZM69.9999 26.6667C71.8399 26.6667 73.3333 28.1601 73.3333 30.0001C73.3333 31.8401 71.8399 33.3334 69.9999 33.3334C68.1599 33.3334 66.6666 31.8401 66.6666 30.0001C66.6666 28.1601 68.1599 26.6667 69.9999 26.6667ZM13.3333 56.6667V80.0001C13.3333 83.6834 16.3166 86.6667 19.9999 86.6667H46.6666V56.6667H13.3333ZM53.3333 56.6667V86.6667H79.9999C83.6833 86.6667 86.6666 83.6834 86.6666 80.0001V56.6667H53.3333ZM29.9999 63.3334C31.8399 63.3334 33.3333 64.8267 33.3333 66.6667C33.3333 68.5067 31.8399 70.0001 29.9999 70.0001C28.1599 70.0001 26.6666 68.5067 26.6666 66.6667C26.6666 64.8267 28.1599 63.3334 29.9999 63.3334ZM69.9999 63.3334C71.8399 63.3334 73.3333 64.8267 73.3333 66.6667C73.3333 68.5067 71.8399 70.0001 69.9999 70.0001C68.1599 70.0001 66.6666 68.5067 66.6666 66.6667C66.6666 64.8267 68.1599 63.3334 69.9999 63.3334Z" fill="#142637"/>
</svg>
