<svg width="100" height="100" viewBox="0 0 100 100" fill="none" xmlns="http://www.w3.org/2000/svg">
<g clip-path="url(#clip0_2001_1086)">
<path d="M56.5755 3.28775C56.0538 3.29969 55.5421 3.43396 55.0818 3.67975C54.6214 3.92553 54.2252 4.27596 53.925 4.70284C53.6248 5.12972 53.429 5.62111 53.3534 6.13747C53.2777 6.65383 53.3244 7.18073 53.4896 7.67577L76.8229 81.0091C77.0372 81.6836 77.4606 82.2724 78.0318 82.6902C78.603 83.1081 79.2923 83.3333 80 83.3333H96.6667C97.1084 83.3396 97.5469 83.258 97.9568 83.0932C98.3667 82.9285 98.7398 82.684 99.0543 82.3739C99.3689 82.0637 99.6187 81.6941 99.7892 81.2866C99.9597 80.8791 100.047 80.4417 100.047 80C100.047 79.5582 99.9597 79.1209 99.7892 78.7134C99.6187 78.3058 99.3689 77.9363 99.0543 77.6261C98.7398 77.316 98.3667 77.0714 97.9568 76.9067C97.5469 76.742 97.1084 76.6604 96.6667 76.6667H82.4349L59.8437 5.65754C59.6331 4.95947 59.1994 4.34971 58.6091 3.92169C58.0188 3.49366 57.3045 3.27098 56.5755 3.28775ZM16.6667 9.99999C15.7826 10.0001 14.9348 10.3513 14.3097 10.9764C13.6846 11.6015 13.3334 12.4493 13.3333 13.3333V47.5911C11.3479 48.7454 10 50.8702 10 53.3333V78.3333C10 84.7372 15.2628 90 21.6667 90C26.2772 90 30.259 87.251 32.1484 83.3333H47.8516C49.741 87.251 53.7228 90 58.3333 90C64.7372 90 70 84.7372 70 78.3333C70 75.1858 68.72 72.3217 66.6667 70.2148V63.3333C66.6667 60.8702 65.3188 58.7454 63.3333 57.5911V57.3307C63.3333 54.2502 62.7227 51.2025 61.5365 48.3594L49.8242 20.2604C47.2407 14.0575 41.1595 9.99999 34.4401 9.99999H16.6667ZM20 16.6667H34.4401C38.4874 16.6667 42.1154 19.0819 43.6719 22.819L55.3841 50.9245C56.1451 52.7484 56.5223 54.6959 56.6016 56.6667H40L35.3125 49.6354C34.0758 47.7787 31.9923 46.6667 29.7656 46.6667H20V16.6667ZM21.6667 73.3333C24.4676 73.3333 26.6667 75.5324 26.6667 78.3333C26.6667 81.1342 24.4676 83.3333 21.6667 83.3333C18.8658 83.3333 16.6667 81.1342 16.6667 78.3333C16.6667 75.5324 18.8658 73.3333 21.6667 73.3333ZM58.3333 73.3333C61.1342 73.3333 63.3333 75.5324 63.3333 78.3333C63.3333 81.1342 61.1342 83.3333 58.3333 83.3333C55.5324 83.3333 53.3333 81.1342 53.3333 78.3333C53.3333 75.5324 55.5324 73.3333 58.3333 73.3333Z" fill="#142637"/>
</g>
<defs>
<clipPath id="clip0_2001_1086">
<rect width="100" height="100" fill="white"/>
</clipPath>
</defs>
</svg>
