<svg width="30" height="30" viewBox="0 0 30 30" fill="none" xmlns="http://www.w3.org/2000/svg">
<path d="M24.707 8.793L18.207 2.293C18.019 2.105 17.765 2 17.5 2H7C5.895 2 5 2.895 5 4V26C5 27.105 5.895 28 7 28H23C24.105 28 25 27.105 25 26V9.5C25 9.235 24.895 8.981 24.707 8.793ZM18 21H10C9.448 21 9 20.552 9 20C9 19.448 9.448 19 10 19H18C18.552 19 19 19.448 19 20C19 20.552 18.552 21 18 21ZM20 17H10C9.448 17 9 16.552 9 16C9 15.448 9.448 15 10 15H20C20.552 15 21 15.448 21 16C21 16.552 20.552 17 20 17ZM18 10C17.448 10 17 9.552 17 9V3.904L23.096 10H18Z" fill="#DC2340"/>
</svg>
