<svg width="30" height="30" viewBox="0 0 30 30" fill="none" xmlns="http://www.w3.org/2000/svg">
<path d="M15.0001 4C8.38463 4 3.0001 9.38453 3.0001 16V21C2.99823 21.1325 3.02271 21.2641 3.07212 21.387C3.12153 21.51 3.1949 21.6219 3.28794 21.7163C3.38098 21.8107 3.49186 21.8856 3.61411 21.9368C3.73637 21.9879 3.86757 22.0142 4.0001 22.0142C4.13263 22.0142 4.26383 21.9879 4.38609 21.9368C4.50834 21.8856 4.61922 21.8107 4.71226 21.7163C4.8053 21.6219 4.87867 21.51 4.92808 21.387C4.97749 21.2641 5.00197 21.1325 5.0001 21V16C5.0001 10.4655 9.46557 6 15.0001 6C20.5346 6 25.0001 10.4655 25.0001 16V21C24.9982 21.1325 25.0227 21.2641 25.0721 21.387C25.1215 21.51 25.1949 21.6219 25.2879 21.7163C25.381 21.8107 25.4919 21.8856 25.6141 21.9368C25.7364 21.9879 25.8676 22.0142 26.0001 22.0142C26.1326 22.0142 26.2638 21.9879 26.3861 21.9368C26.5083 21.8856 26.6192 21.8107 26.7123 21.7163C26.8053 21.6219 26.8787 21.51 26.9281 21.387C26.9775 21.2641 27.002 21.1325 27.0001 21V16C27.0001 9.38453 21.6156 4 15.0001 4ZM8.0001 17C7.4481 17 7.0001 17.448 7.0001 18V25C7.0001 25.552 7.4481 26 8.0001 26H9.0001C10.1051 26 11.0001 25.105 11.0001 24V19C11.0001 17.895 10.1051 17 9.0001 17H8.0001ZM21.0001 17C19.8951 17 19.0001 17.895 19.0001 19V24C19.0001 25.105 19.8951 26 21.0001 26H22.0001C22.5521 26 23.0001 25.552 23.0001 25V18C23.0001 17.448 22.5521 17 22.0001 17H21.0001Z" fill="white"/>
</svg>
