<svg width="36" height="36" viewBox="0 0 36 36" fill="none" xmlns="http://www.w3.org/2000/svg">
<path d="M36 18.0039C36 27.9481 27.9468 36 18.0055 36C8.06286 36 0 27.9481 0 18.0039C0 8.05966 8.06286 0 18.0055 0C27.9469 0 36 8.05966 36 18.0039Z" fill="#EEF1F7"/>
<g clip-path="url(#clip0_49_2494)">
<path d="M27.0314 15.0694H18.4591V18.4463H25.213V22.3428H18.4591V28.0576H14.0431V14.8096H12.3079C11.5546 14.8096 10.7519 15.3525 10.7519 16.3059C10.7519 17.0072 11.2272 17.6099 11.8065 17.8592L10.6791 21.7194C8.2971 21.0673 6.49173 19.1477 6.49173 16.3396C6.49173 12.8795 9.29979 10.9131 12.3858 10.9131H27.034V15.0694H27.0314ZM-1.28564 37.9287H39.2144V-2.57129H-1.28564V37.9287Z" fill="#4389C8"/>
</g>
<defs>
<clipPath id="clip0_49_2494">
<rect width="36" height="36" rx="18" fill="white"/>
</clipPath>
</defs>
</svg>
