<svg width="66" height="66" viewBox="0 0 66 66" fill="none" xmlns="http://www.w3.org/2000/svg">
<g opacity="0.1" clip-path="url(#clip0_2029_65)">
<path d="M6.60008 11C4.16908 11 2.20008 12.969 2.20008 15.4V46.2C1.90856 46.1959 1.61912 46.2497 1.34859 46.3584C1.07806 46.4672 0.831832 46.6286 0.624219 46.8332C0.416606 47.0379 0.251746 47.2819 0.139221 47.5508C0.0266962 47.8198 -0.03125 48.1084 -0.03125 48.4C-0.03125 48.6916 0.0266962 48.9802 0.139221 49.2492C0.251746 49.5181 0.416606 49.7621 0.624219 49.9668C0.831832 50.1715 1.07806 50.3328 1.34859 50.4416C1.61912 50.5503 1.90856 50.6041 2.20008 50.6H6.60008H8.9118C9.45607 54.3079 12.6502 57.2 16.5001 57.2C20.3499 57.2 23.5441 54.3079 24.0884 50.6H39.6001H44.1118C44.6561 54.3079 47.8502 57.2 51.7001 57.2C55.5499 57.2 58.7441 54.3079 59.2884 50.6H63.8001C64.0916 50.6041 64.381 50.5503 64.6516 50.4416C64.9221 50.3328 65.1683 50.1715 65.376 49.9668C65.5836 49.7621 65.7484 49.5181 65.8609 49.2492C65.9735 48.9802 66.0314 48.6916 66.0314 48.4C66.0314 48.1084 65.9735 47.8198 65.8609 47.5508C65.7484 47.2819 65.5836 47.0379 65.376 46.8332C65.1683 46.6286 64.9221 46.4672 64.6516 46.3584C64.381 46.2497 64.0916 46.1959 63.8001 46.2V35.2H50.6001V26.4C50.6001 25.1856 51.5857 24.2 52.8001 24.2H59.0864L58.3431 22.4684C57.6501 20.8514 56.0597 19.8 54.2997 19.8H39.6001V15.4C39.6001 12.969 37.6311 11 35.2001 11H6.60008ZM19.8001 17.6C25.8743 17.6 30.8001 22.5258 30.8001 28.6C30.8001 34.6742 25.8743 39.6 19.8001 39.6C13.7259 39.6 8.80008 34.6742 8.80008 28.6C8.80008 22.5258 13.7259 17.6 19.8001 17.6ZM19.7657 19.7699C19.183 19.779 18.6277 20.019 18.2217 20.4371C17.8157 20.8552 17.5921 21.4173 17.6001 22V28.6C17.6001 29.0086 17.7138 29.4091 17.9286 29.7567C18.1434 30.1043 18.4507 30.3852 18.8161 30.568L23.2161 32.768C23.4745 32.8972 23.7559 32.9743 24.0442 32.9949C24.3324 33.0154 24.6219 32.9789 24.896 32.8876C25.1702 32.7962 25.4236 32.6517 25.642 32.4624C25.8603 32.2731 26.0392 32.0426 26.1684 31.7842C26.2976 31.5257 26.3747 31.2443 26.3951 30.956C26.4156 30.6678 26.3791 30.3783 26.2877 30.1042C26.1963 29.8301 26.0518 29.5766 25.8624 29.3583C25.6731 29.1401 25.4426 28.9612 25.1841 28.832L22.0001 27.2422V22C22.0041 21.7057 21.949 21.4135 21.8381 21.1408C21.7272 20.8682 21.5627 20.6205 21.3544 20.4126C21.146 20.2046 20.8981 20.0406 20.6252 19.9302C20.3523 19.8198 20.06 19.7653 19.7657 19.7699ZM16.5001 46.2C18.3487 46.2 19.8001 47.6514 19.8001 49.5C19.8001 51.3486 18.3487 52.8 16.5001 52.8C14.6515 52.8 13.2001 51.3486 13.2001 49.5C13.2001 47.6514 14.6515 46.2 16.5001 46.2ZM51.7001 46.2C53.5487 46.2 55.0001 47.6514 55.0001 49.5C55.0001 51.3486 53.5487 52.8 51.7001 52.8C49.8515 52.8 48.4001 51.3486 48.4001 49.5C48.4001 47.6514 49.8515 46.2 51.7001 46.2Z" fill="#F5F6F8"/>
</g>
<defs>
<clipPath id="clip0_2029_65">
<rect width="66" height="66" fill="white"/>
</clipPath>
</defs>
</svg>
