<svg width="30" height="30" viewBox="0 0 30 30" fill="none" xmlns="http://www.w3.org/2000/svg">
<path d="M4 13C4 20.234 11.152 23.697 12.048 24.503C12.963 25.327 13.719 27.171 14.024 28.217C14.172 28.724 14.587 28.981 15 28.993C15.412 28.982 15.828 28.725 15.976 28.217C16.281 27.171 17.037 25.326 17.952 24.503C18.848 23.697 26 20.234 26 13C26 6.925 21.075 2 15 2C8.925 2 4 6.925 4 13ZM11.293 12.293L15.293 8.293C15.684 7.902 16.316 7.902 16.707 8.293C17.098 8.684 17.098 9.316 16.707 9.707L13.414 13L16.707 16.293C17.098 16.684 17.098 17.316 16.707 17.707C16.512 17.902 16.256 18 16 18C15.744 18 15.488 17.902 15.293 17.707L11.293 13.707C10.902 13.316 10.902 12.684 11.293 12.293Z" fill="#DC2340"/>
</svg>
