<svg width="30" height="30" viewBox="0 0 30 30" fill="none" xmlns="http://www.w3.org/2000/svg">
<path d="M15 2C8.925 2 4 6.925 4 13C4 20.234 11.152 23.697 12.048 24.503C12.963 25.326 13.719 27.171 14.024 28.217C14.172 28.725 14.588 28.982 15 28.993C15.413 28.981 15.828 28.724 15.976 28.217C16.281 27.171 17.037 25.327 17.952 24.503C18.848 23.697 26 20.234 26 13C26 6.925 21.075 2 15 2ZM18.707 13.707L14.707 17.707C14.512 17.902 14.256 18 14 18C13.744 18 13.488 17.902 13.293 17.707C12.902 17.316 12.902 16.684 13.293 16.293L16.586 13L13.293 9.707C12.902 9.316 12.902 8.684 13.293 8.293C13.684 7.902 14.316 7.902 14.707 8.293L18.707 12.293C19.098 12.684 19.098 13.316 18.707 13.707Z" fill="#DC2340"/>
</svg>
