<svg width="30" height="30" viewBox="0 0 30 30" fill="none" xmlns="http://www.w3.org/2000/svg">
<path d="M15.002 5C5.46804 5 4.00008 7.81166 4.00008 10.3477C4.00008 11.1597 4.21063 11.7218 4.43563 12.0918C4.66763 12.4718 5.115 12.656 5.545 12.543C6.618 12.263 8.93294 11.657 10.0059 11.377C10.3589 11.285 10.6288 11.0073 10.7188 10.6543L11.172 8.86523C11.273 8.46523 11.6038 8.17014 12.0138 8.11914C12.7218 8.03214 13.8851 7.91406 15.0001 7.91406C16.1141 7.91406 17.2774 8.03214 17.9864 8.11914C18.3964 8.16914 18.7272 8.46423 18.8282 8.86523L19.2813 10.6543C19.3703 11.0073 19.6451 11.285 19.9981 11.377L24.4532 12.543C24.8842 12.655 25.3345 12.4708 25.5665 12.0898C25.7905 11.7188 26.0001 11.1577 26.0001 10.3477C26.0001 7.81166 24.536 5 15.002 5ZM12.9845 11.9863C12.7196 11.9905 12.4672 12.0995 12.2826 12.2896C12.0981 12.4796 11.9965 12.7351 12.0001 13V13.0039C11.3379 13.0156 10.6979 13.2423 10.1798 13.6562L7.23641 16.0098C6.44141 16.6458 5.91947 17.5604 5.77547 18.5684L5.14266 23H5.00008C4.86757 22.9981 4.73601 23.0226 4.61304 23.072C4.49007 23.1214 4.37815 23.1948 4.28378 23.2878C4.18941 23.3809 4.11447 23.4918 4.06333 23.614C4.01218 23.7363 3.98584 23.8675 3.98584 24C3.98584 24.1325 4.01218 24.2637 4.06333 24.386C4.11447 24.5082 4.18941 24.6191 4.28378 24.7122C4.37815 24.8052 4.49007 24.8786 4.61304 24.928C4.73601 24.9774 4.86757 25.0019 5.00008 25H25.0001C25.1326 25.0019 25.2642 24.9774 25.3871 24.928C25.5101 24.8786 25.622 24.8052 25.7164 24.7122C25.8108 24.6191 25.8857 24.5082 25.9368 24.386C25.988 24.2637 26.0143 24.1325 26.0143 24C26.0143 23.8675 25.988 23.7363 25.9368 23.614C25.8857 23.4918 25.8108 23.3809 25.7164 23.2878C25.622 23.1948 25.5101 23.1214 25.3871 23.072C25.2642 23.0226 25.1326 22.9981 25.0001 23H24.8575L24.2247 18.5684C24.0807 17.5614 23.5588 16.6458 22.7638 16.0098L19.8223 13.6562C19.3042 13.2423 18.6623 13.0156 18.0001 13.0039V13C18.0019 12.8662 17.9769 12.7334 17.9265 12.6095C17.8761 12.4855 17.8013 12.373 17.7066 12.2784C17.6119 12.1839 17.4992 12.1094 17.3751 12.0592C17.2511 12.009 17.1182 11.9842 16.9845 11.9863C16.7196 11.9905 16.4672 12.0995 16.2826 12.2896C16.0981 12.4796 15.9965 12.7351 16.0001 13H14.0001C14.0019 12.8662 13.9769 12.7334 13.9265 12.6095C13.876 12.4855 13.8013 12.373 13.7066 12.2784C13.6119 12.1839 13.4992 12.1094 13.3751 12.0592C13.2511 12.009 13.1182 11.9842 12.9845 11.9863ZM13.0001 16C13.5521 16 14.0001 16.448 14.0001 17C14.0001 17.552 13.5521 18 13.0001 18C12.4481 18 12.0001 17.552 12.0001 17C12.0001 16.448 12.4481 16 13.0001 16ZM17.0001 16C17.5521 16 18.0001 16.448 18.0001 17C18.0001 17.552 17.5521 18 17.0001 18C16.4481 18 16.0001 17.552 16.0001 17C16.0001 16.448 16.4481 16 17.0001 16ZM13.0001 20C13.5521 20 14.0001 20.448 14.0001 21C14.0001 21.552 13.5521 22 13.0001 22C12.4481 22 12.0001 21.552 12.0001 21C12.0001 20.448 12.4481 20 13.0001 20ZM17.0001 20C17.5521 20 18.0001 20.448 18.0001 21C18.0001 21.552 17.5521 22 17.0001 22C16.4481 22 16.0001 21.552 16.0001 21C16.0001 20.448 16.4481 20 17.0001 20Z" fill="#DC2340"/>
</svg>
