<svg width="113" height="113" viewBox="0 0 113 113" fill="none" xmlns="http://www.w3.org/2000/svg">
<path d="M18.8334 15.0667C14.6712 15.0667 11.3 18.4378 11.3 22.6V75.3333C11.3 79.4955 14.6712 82.8667 18.8334 82.8667H48.025L46.1417 90.4H41.4334C40.9343 90.3929 40.4387 90.4851 39.9755 90.6713C39.5123 90.8574 39.0908 91.1337 38.7353 91.4842C38.3799 91.8347 38.0976 92.2523 37.9049 92.7128C37.7123 93.1733 37.6131 93.6675 37.6131 94.1667C37.6131 94.6658 37.7123 95.16 37.9049 95.6205C38.0976 96.081 38.3799 96.4987 38.7353 96.8491C39.0908 97.1996 39.5123 97.4759 39.9755 97.662C40.4387 97.8482 40.9343 97.9404 41.4334 97.9333H71.5667C72.0658 97.9404 72.5614 97.8482 73.0246 97.662C73.4878 97.4759 73.9093 97.1996 74.2648 96.8491C74.6202 96.4987 74.9025 96.081 75.0952 95.6205C75.2878 95.16 75.387 94.6658 75.387 94.1667C75.387 93.6675 75.2878 93.1733 75.0952 92.7128C74.9025 92.2523 74.6202 91.8347 74.2648 91.4842C73.9093 91.1337 73.4878 90.8574 73.0246 90.6713C72.5614 90.4851 72.0658 90.3929 71.5667 90.4H66.8584L64.975 82.8667H94.1667C98.3289 82.8667 101.7 79.4955 101.7 75.3333V22.6C101.7 18.4378 98.3289 15.0667 94.1667 15.0667H18.8334ZM18.8334 22.6H94.1667V67.8H18.8334V22.6ZM56.5 71.5667C58.5792 71.5667 60.2667 73.2541 60.2667 75.3333C60.2667 77.4125 58.5792 79.1 56.5 79.1C54.4208 79.1 52.7334 77.4125 52.7334 75.3333C52.7334 73.2541 54.4208 71.5667 56.5 71.5667Z" fill="#DC2340"/>
</svg>
