<svg width="160" height="160" viewBox="0 0 160 160" fill="none" xmlns="http://www.w3.org/2000/svg">
<g clip-path="url(#clip0_2061_264)">
<path d="M27.1999 36C22.3379 36 18.3999 39.938 18.3999 44.8V106.4C17.8169 106.392 17.238 106.499 16.6969 106.717C16.1559 106.934 15.6634 107.257 15.2482 107.666C14.833 108.076 14.5032 108.564 14.2782 109.102C14.0531 109.64 13.9373 110.217 13.9373 110.8C13.9373 111.383 14.0531 111.96 14.2782 112.498C14.5032 113.036 14.833 113.524 15.2482 113.934C15.6634 114.343 16.1559 114.666 16.6969 114.883C17.238 115.101 17.8169 115.208 18.3999 115.2H27.1999H31.8234C32.9119 122.616 39.3002 128.4 46.9999 128.4C54.6996 128.4 61.0879 122.616 62.1765 115.2H93.1999H102.223C103.312 122.616 109.7 128.4 117.4 128.4C125.1 128.4 131.488 122.616 132.576 115.2H141.6C142.183 115.208 142.762 115.101 143.303 114.883C143.844 114.666 144.336 114.343 144.752 113.934C145.167 113.524 145.497 113.036 145.722 112.498C145.947 111.96 146.063 111.383 146.063 110.8C146.063 110.217 145.947 109.64 145.722 109.102C145.497 108.564 145.167 108.076 144.752 107.666C144.336 107.257 143.844 106.934 143.303 106.717C142.762 106.499 142.183 106.392 141.6 106.4V84.4H115.2V66.8C115.2 64.3712 117.171 62.4 119.6 62.4H132.173L130.686 58.9367C129.3 55.7027 126.119 53.6 122.599 53.6H93.1999V44.8C93.1999 39.938 89.2619 36 84.3999 36H27.1999ZM46.9999 106.4C50.6971 106.4 53.5999 109.303 53.5999 113C53.5999 116.697 50.6971 119.6 46.9999 119.6C43.3027 119.6 40.3999 116.697 40.3999 113C40.3999 109.303 43.3027 106.4 46.9999 106.4ZM117.4 106.4C121.097 106.4 124 109.303 124 113C124 116.697 121.097 119.6 117.4 119.6C113.703 119.6 110.8 116.697 110.8 113C110.8 109.303 113.703 106.4 117.4 106.4Z" fill="#DC2340"/>
</g>
<defs>
<clipPath id="clip0_2061_264">
<rect width="132" height="132" fill="white" transform="translate(14 14)"/>
</clipPath>
</defs>
</svg>
