<svg width="100" height="100" viewBox="0 0 100 100" fill="none" xmlns="http://www.w3.org/2000/svg">
<path d="M52.3827 16.7122C51.4061 16.5589 50.651 17.5603 51.0676 18.457L53.3333 23.3333H73.3333V21.4257C73.3333 20.6057 72.737 19.9086 71.927 19.7786L52.3827 16.7122ZM53.3333 26.6666L49.6353 31.0156C48.8587 31.9289 49.5096 33.3333 50.7096 33.3333H53.9517C55.5751 37.8666 60.3416 40.9329 65.6249 39.7395C70.2283 38.6995 73.3333 34.352 73.3333 29.6354V28.3333C73.3333 27.4133 72.5866 26.6666 71.6666 26.6666H53.3333ZM13.3333 40V56.6666H16.5364C16.562 57.5166 16.9113 58.3247 17.5129 58.9257L30.9765 72.3567C31.5375 72.916 32.2794 73.2573 33.0691 73.3193C33.8589 73.3814 34.6449 73.1601 35.2864 72.6953L46.6666 66.7708V80L77.0702 49.5963C75.2602 47.7863 72.7599 46.6666 69.9999 46.6666H56.6666C53.4706 46.6666 50.6586 48.1941 48.828 50.5273L34.3489 64.4075L24.733 56.3346C25.8667 55.8023 26.6666 54.6679 26.6666 53.3333V43.3333C26.6666 41.4933 25.1733 40 23.3333 40H13.3333ZM79.5312 53.802L46.8293 86.6666H79.9999V56.6666C79.9999 55.6633 79.8045 54.7154 79.5312 53.802Z" fill="#DC2340"/>
</svg>
