<svg width="56" height="56" viewBox="0 0 56 56" fill="none" xmlns="http://www.w3.org/2000/svg">
<path d="M56 28.006C56 43.4748 43.4728 56 28.0085 56C12.5422 56 0 43.4748 0 28.006C0 12.5372 12.5422 0 28.0085 0C43.473 0 56 12.5372 56 28.006Z" fill="#EEF1F7"/>
<g clip-path="url(#clip0_60_2055)">
<path d="M28.0004 13.3008C21.0414 13.3008 15.4004 18.9418 15.4004 25.9008C15.4004 29.379 16.8097 32.5284 19.089 34.8084C21.369 37.0896 26.7404 40.3908 27.0554 43.8558C27.1026 44.3753 27.4788 44.8008 28.0004 44.8008C28.522 44.8008 28.8982 44.3753 28.9454 43.8558C29.2604 40.3908 34.6318 37.0896 36.9117 34.8084C39.1911 32.5284 40.6004 29.379 40.6004 25.9008C40.6004 18.9418 34.9594 13.3008 28.0004 13.3008Z" fill="#FF4433"/>
<path d="M27.9998 30.3102C30.4354 30.3102 32.4098 28.3358 32.4098 25.9002C32.4098 23.4647 30.4354 21.4902 27.9998 21.4902C25.5643 21.4902 23.5898 23.4647 23.5898 25.9002C23.5898 28.3358 25.5643 30.3102 27.9998 30.3102Z" fill="white"/>
</g>
<defs>
<clipPath id="clip0_60_2055">
<rect width="33.6" height="33.6" fill="white" transform="translate(11.1992 11.2002)"/>
</clipPath>
</defs>
</svg>
